<?xml version="1.0" encoding="utf-8"?>
<!-- Generator: Adobe Illustrator 27.0.0, SVG Export Plug-In . SVG Version: 6.00 Build 0)  -->
<svg version="1.1" id="レイヤー_1" xmlns="http://www.w3.org/2000/svg" xmlns:xlink="http://www.w3.org/1999/xlink" x="0px"
	 y="0px" viewBox="0 0 514 234.4" style="enable-background:new 0 0 514 234.4;" xml:space="preserve">
<path d="M44.3,218.4c-1.1-0.3-2.1-0.6-3.2-0.9c-0.3,0.2-0.6,0.4-0.9,0.6c-1.2-0.3-2.1-0.6-3.1-0.8c-0.1-0.3-0.3-0.5-0.4-0.8
	c-0.5-0.4-1.1-0.4-1.6-0.6c-0.4-0.1-0.9-0.2-1.4-0.4c-0.2-0.8-1.2-1.1-1.5-1.8c-0.3-0.6-0.8-1.2-1.1-1.8c0.1-0.4,0.4-0.7,0.1-1.1
	c-0.1-0.1,0-0.4,0.1-0.5c0.6-1.4,1.3-2.8,1.9-4.2c0.2-0.1,0.6-0.3,0.6-0.3c-0.2-0.3-0.2-0.6,0-0.9c0.5-1.1,1-2.2,1.6-3.5
	c0.3-0.1,0.8-0.2,1.1-0.3c0.3-0.7,0.6-1.3,0.8-1.9c0.6-0.3,1.3-0.5,1.9-0.8c0.1-0.6,1.4-0.4,1.5-1c0.4-0.2,0.8-0.5,1.3-0.3
	c0.1,0,0.2,0,0.2,0c0.4-0.4,0.7-0.8,1.5-0.7c0.6,0.1,1-0.3,1.6-0.4c2.1,0.6,4.2,1.1,6.2,1.7c0.7-0.2,1.4-0.6,2-0.6
	c0.7,0,1.1-0.4,1.8-0.4c0.6,0,1.3-0.1,2-0.2c0.8-0.1,1.7-0.1,2.4-0.4c0.1,0,0.3-0.1,0.4,0c0.6,0.3,1.4-0.2,2,0.1
	c0.1,0.1,0.5,0,0.6-0.1c0.5-0.3,1-0.1,1.5-0.3c0.2-0.4,0.3-0.7,0.5-1.1c0.6-0.2,1.1-0.4,1.7-0.6c0.7-0.3,1.4-0.6,2.2-0.8
	c0.6-0.1,1.3-0.2,2-0.2c1.1,0,1.9-0.5,2.8-0.8c0.1-0.5,0.8-0.6,1.3-0.8s0.9-0.5,1.5-0.3c0.1,0,0.4-0.1,0.6-0.2
	c1.7-0.6,3.3-1.2,5-1.9c0.4-0.2,0.7-0.4,1-0.7c1.1-0.9,2.6-1.4,4.3-1.6c0.4-0.1,0.9,0,1.3-0.2c0.7-0.3,1.5-0.7,2.4-0.6
	c0.2,0,0.6-0.2,0.8-0.4c0.6-0.5,1.1-1,1.9-1.2c0.7-0.2,1.3-0.8,2.2-0.5c0.6-0.3,1.3-0.3,1.7-0.9c0.3-0.4,1.2-0.3,1.4-0.9
	c0,0,0.2-0.1,0.2-0.1c0.6,0.2,0.7-0.2,1.1-0.4c0.4-0.2,1,0,1.5-0.3c0.4-0.2,0.9-0.3,1.3-0.5c1.2-0.4,2.3-0.9,3.5-1.3
	c1.2-0.5,2.4-1,3.7-1.3c1.3-0.2,2.3-0.8,3.5-1.1c0.3-0.1,0.5-0.2,0.9-0.1c0.3,0,0.7-0.1,0.8-0.2c0.3-0.3,0.6-0.5,1-0.7
	c1.5-0.5,2.9-1.1,4.3-1.6c0.4-0.1,0.9,0,1.3-0.2c0.3-0.1,0.2-0.7,0.8-0.5c0.6,0.2,0.6-0.2,0.8-0.4c0.3-0.2,0.7-0.3,1.1-0.4
	c2.4-0.9,4.8-1.8,7.1-2.7c0.3,0.1,0.6,0.2,1,0.3c0.7-0.4,1.7-0.5,2.3-1.1c0.5-0.5,1.6-0.4,2.1-1.1c0.7-0.2,1.3-0.5,2-0.7
	c0.6-0.2,1-0.6,1.8-0.4c0.4-0.4,0.9-0.6,1.5-0.9c0.5-0.2,1.2-0.3,1.6-0.8c0.9-0.3,1.5-1,2.5-1.3c0.5-0.1,0.9-0.3,1.3-0.5
	c0.6-0.2,1.2-0.4,1.7-0.6c0.6-0.2,1.2-0.4,1.7-0.6c0.6-0.2,1.2-0.5,1.7-0.6c0.6-0.2,0.8-0.7,1.5-0.9c0.8-0.2,1.5-0.5,2.2-0.8
	c0.7-0.2,1.3-0.6,2.2-0.6c0.5,0,1-0.4,1.5-0.5c0.6-0.2,1-0.5,1.5-0.8c0.4-0.3,1-0.4,1.5-0.6c0.1,0,0.1-0.1,0.1-0.1
	c0.2-0.9,1.4-0.9,2.1-1.3c0.1-0.2,0.2-0.5,0.3-0.7c0.7-0.2,1.3-0.5,2-0.7c0.6-0.2,1.2-0.6,2-0.5c0.2,0,0.7-0.2,0.8-0.3
	c0.2-0.6,1.1-0.5,1.4-0.9c0.3-0.5,1-0.5,1.5-0.8c0.5-0.2,1.2-0.4,1.7-0.7c0.3-0.2,0.8,0.3,1-0.2c0.2-0.4,0.7-0.2,0.9-0.3
	c1-0.4,2.1-0.5,3.1-0.8c0.8-0.2,1.3-0.6,1.9-1c0.5-0.3,1.4-0.3,1.7-0.9c1-0.4,2-0.7,3-1.1c0.2-0.4,0.2-0.8,0.8-1
	c0.7-0.2,1.6-0.4,1.7-1.1c0,0,0.1-0.1,0.2-0.1c0.7-0.1,1.1-0.7,1.7-0.9c1.1-0.5,2.3-0.9,3.5-1.3c0.7-0.3,1.5-0.4,1.9-1
	c0.2-0.3,0.8-0.5,1.3-0.5c0.8,0,1.3-0.3,2-0.5c0.2-0.1,0.4-0.2,0.7-0.1c0.2,0.1,0.5,0.1,0.7,0.2c0.4-0.4,0.8-0.8,1.4-1.1
	c0.5-0.3,1.2-0.4,1.6-0.5c0.3-0.5,0.3-0.9,0.9-1s0.7-0.6,1.2-0.8c0.5-0.2,1-0.4,1.5-0.5c0.2-0.4,0.3-0.8,0.5-1.1
	c0.5-0.2,1-0.3,1.2-0.6c0.3-0.4,0.5-0.3,0.9-0.3c0.3,0,0.7-0.2,1-0.5c0.2-0.1,0.3-0.3,0.5-0.3c0.5,0.1,0.6-0.1,0.9-0.4
	c0.3-0.3,0.8-0.4,1.3-0.5c0.4-0.1,0.7-0.3,0.7-0.6c0.1-0.3,0.4-0.4,0.7-0.5c0.4-0.2,0.9-0.3,1.3-0.5c0.1-0.6,0.6-0.4,1-0.4
	c0.1,0,0.2-0.2,0.3-0.3c0.1-0.2,0.2-0.3,0.2-0.5c1.1-0.3,2-1,3.3-0.9c1.1-0.4,2.2-0.8,3.2-1.2c0.2-0.4,0.3-0.9,1-1
	c0.7-0.1,0.8-0.7,1.5-0.9c0.5-0.1,1.2-0.3,1.5-0.6c0.9-0.8,2.2-1,3.2-1.5c0.5-0.2,1.3-0.2,1.6-0.8c0.3-0.5,1.2-0.3,1.4-0.9
	c0-0.1,0.4-0.2,0.6-0.3c1.4-0.6,3.1-0.9,4.3-1.9c0.1-0.1,0.4-0.2,0.6-0.2c0.8,0.1,1.3-0.3,1.9-0.5c-0.3-0.8-0.2-1.1,0.4-1.3
	c0.8-0.2,1.2-1,2.1-1.1c0.5-0.6,1.4-0.7,2.1-1.1c0.1-0.1,0.2-0.3,0.1-0.5c0-0.1-0.2-0.2-0.3-0.2c-0.5,0-0.8,0.1-1.3,0.1
	c-0.3,0-0.7,0.2-1.1,0.4c-1.5-0.4-3-0.8-4.6-1.2c-0.5,0.2-1.1,0.5-1.7,0.7c-0.8-0.2-1.5-0.4-2.3-0.6c-0.6,0.3-1.2,0.6-1.5,0.7
	c-0.9-0.1-1.3-0.4-1.8-0.1c-0.4,0.1-0.9,0.1-1.3,0.2c-0.3,0.1-0.8-0.2-1.1-0.3c-0.4-0.1-0.8-0.2-1.1-0.3c-0.6,0.2-1.2,0.4-1.8,0.7
	c-0.9-0.2-1.8-0.5-2.6-0.7c-0.6,0.1-1,0.5-1.6,0.4c-0.5-0.1-0.9,0.3-1.3,0c-0.3-0.2-0.6-0.1-0.9,0.1c-0.4,0.2-0.8,0.4-1.3,0.1
	c-0.2-0.1-0.5-0.1-0.6,0c-0.5,0.4-1.2,0.2-1.8,0.3c-0.6,0.1-1-0.2-1.6-0.3c-0.2,0-0.3-0.1-0.4-0.1c-0.4,0.1-0.7,0.3-1.2,0.5
	c-0.7-0.2-1.5-0.4-2.3-0.6c-0.4,0.2-0.7,0.2-0.9,0.4c-0.2,0.1-0.2,0.3-0.3,0.4c-0.7-0.2-1.3-0.3-1.9-0.5c-0.3,0.1-0.7,0.3-1,0.5
	c-0.7-0.1-1.3-0.4-2-0.5c-0.6,0.2-1.2,0.4-1.7,0.6c-0.5,0.1-0.8-0.3-1.3-0.1c-0.3,0.1-0.6,0.3-1.1,0.3c-1,0-1,0.1-2.2-0.2
	c-0.6,0.2-1.2,0.4-1.7,0.6c-0.5,0-0.9-0.4-1.3-0.1c-0.6,0.4-1.4,0.1-2,0.4c-0.6-0.2-1,0.2-1.6,0.3c-0.5-0.1-1.1-0.3-1.9-0.5
	c-0.3,0.2-0.7,0.4-1,0.6c-0.5-0.1-0.8-0.2-1.3-0.4c-0.5,0.2-1.1,0.5-1.8,0.7c-0.5-0.1-0.8-0.3-1.4,0c-0.7,0.3-1.6,0.4-2.4,0.2
	c-0.2,0-0.4,0.1-0.7,0.1c-0.7,0-1.5,0.3-2.2,0c-0.5-0.2-1.2,0.1-1.8,0.1c-0.4,0-0.8,0.4-1.3,0.2c-0.3-0.1-0.7,0.3-1.1,0.1
	c-0.4,0.3-0.9,0-1.3,0.2c-0.4,0.2-0.8,0-1.1-0.1c-0.1,0-0.2,0-0.2,0c-1.2,0.7-2.8,0.2-3.9,0.9c-0.6-0.2-1.2-0.3-1.8-0.5
	c-0.6,0.2-1.2,0.6-1.8,0.6c-0.7,0-1.2,0.2-1.8,0.4c-0.5-0.1-0.9-0.2-1.4-0.4c-0.6,0.2-1.1,0.6-1.8,0.4c-0.3,0.2-0.8,0.1-1.1,0.1
	c-0.6,0.1-1.2,0.4-1.7,0.6c-0.3-0.1-0.6-0.2-0.9-0.2c-0.6,0.2-1.2,0.6-2,0.3c-0.1-0.1-0.5,0-0.6,0.1c-0.5,0.3-1.1,0-1.5,0.3
	c-0.5,0.2-0.9-0.3-1.3-0.1c-0.3,0.1-0.7,0.4-1.1,0.4c-0.6,0-1.2,0.1-1.8,0.2c-0.6,0.1-1.2,0.4-1.7,0.6c-0.2,0.1-0.4,0.1-0.7,0.1
	c-0.8,0.1-1.5,0.1-2.2,0.4c-0.2,0.1-0.5,0.1-0.7,0c-0.6-0.2-1.2,0-1.8-0.1c-0.6-0.1-1.1,0-1.6,0c-1.1,0-1.1,0.1-2.2-0.2
	c-0.5,0.1-0.9,0.5-1.5,0.4c-0.4-0.1-0.9,0.2-1.3,0c-0.3-0.1-0.5,0-0.7,0.2c-0.2,0.2-0.7,0.5-0.9,0.5c-0.7-0.1-1,0.3-1.5,0.3
	c-0.6,0-1,0.1-1.5,0.3c-0.2,0.1-0.5,0.1-0.7,0c-0.5-0.3-1.1,0.3-1.6,0c-0.3,0.2-0.5,0.4-0.8,0.6c-0.3-0.1-0.6-0.2-0.9-0.2
	c-0.7,0.2-1.3,0.6-2,0.6c-0.9,0-1.5,0.5-2.2,0.6c-0.8-0.4-1.2,0.5-2,0.3c-0.3-0.1-0.8,0.1-1.1,0.3c-0.5,0.2-1,0.2-1.5,0.3
	c-0.5,0-0.8,0.3-1.3,0.3c-0.5,0-1,0.3-1.5,0.3c-0.7,0.1-1.4,0.2-2-0.1c-0.1-0.1-0.5,0-0.6,0.1c-0.2,0.4-0.5,0.5-0.9,0.3
	c-0.5,0.3-1,0.1-1.5,0.2c-0.4,0.1-0.9,0-1.3,0.2c-0.5,0.2-1,0.4-1.5,0.6c-0.4,0.2-0.9,0.4-1.3,0.5c-0.3,0.1-0.7-0.1-1.1,0.1
	c-0.2,0.1-0.7,0-0.9,0.1c-0.7,0.4-1.5,0.2-2.2,0.5c-0.4,0.2-0.9,0.5-1.5,0.3c-0.2,0-0.5,0.1-0.6,0.2c-0.4,0.3-0.7,0.6-1.2,0.8
	c-0.5,0.2-0.9,0.1-1.3,0.2c-0.5,0.1-1,0.4-1.5,0.6c-0.9-0.2-1,0.3-1.2,0.8c-0.9,0.3-1.7,0.7-2.6,1c-0.3,0.1-0.6,0.3-1.1,0.2
	c-0.2,0-0.4,0.1-0.6,0.2c-0.5,0.1-0.7,0.6-1.2,0.8c-0.5,0.1-1.1,0.2-1.3,0.7c-0.1,0.3-0.6,0-0.8,0.1c-1.9,0.7-3.8,1.4-5.6,2.1
	c-0.5,0.8-1.7,0.9-2.6,1.2c-0.5,0.2-1,0.2-1.5,0.3c-0.5,0.1-1,0.4-1.5,0.5c-0.2,0.1-0.5,0.1-0.6,0c-0.7-0.3-1.2,0.1-1.8,0.3
	c-0.2,0-0.4-0.1-0.6-0.2c-0.7-0.3-1.3-0.2-1.7,0.3c-0.2,0.2-0.4,0.4-0.7,0.4c-0.6,0.1-0.7,0.6-1.2,0.8c-0.5,0.2-0.4,0.8-0.7,1.1
	c-0.3,0.1-0.6,0.2-0.9,0.3c-0.2,0-0.4-0.1-0.6-0.2c-0.1,0-0.4-0.1-0.4,0c-0.8,0.7-1.8,1.1-3,1.1c-0.1,0-0.3,0.1-0.4,0.2
	c-1,0.4-2,0.8-3,1.1c-1.2-0.1-2,0.6-3.1,0.9c-0.5,0.1-1,0.1-1.5,0.3c-0.6,0.2-1.2,0.4-1.7,0.6c-0.5,0.2-1,0.4-1.5,0.6
	c-0.7,0.3-1.5,0.1-2.2,0.5c-0.6,0.3-1.3,0.1-2,0.3c-0.5,0.1-0.9,0.4-1.3,0.4c-0.5-0.1-0.9,0.1-1.3,0.1c-0.4,0-0.8,0.1-1.1,0.1
	c-0.5-0.1-0.8,0.2-1.4,0.1c-0.3-0.1-0.7,0.2-1.2,0.4c-0.7-0.2-1.4-0.4-2.1-0.6c-0.6-0.2-1.2-0.2-1.8-0.1c-0.7,0.1-1.4,0.1-2-0.1
	c-0.5-0.2-1.1-0.3-1.6-0.4c-0.2-0.3-0.4-0.6-0.6-1c-1.2-0.3-2.4-0.7-3.6-1c-0.9-1-1.1-2.4-2.5-3.2c0.2-0.5,0.5-1,0.7-1.5
	c-0.3-0.1-0.5-0.2-0.6-0.3c0-0.1-0.1-0.2,0-0.3c1.2-2.7,2.4-5.3,3.6-8c0.3,0,0.6,0,0.9,0c0.1,0,0.2,0,0.2-0.1
	c0.4-0.9,0.9-1.9,1.3-2.8c0.6-0.3,1.4-0.4,1.5-1.1c0.4-0.2,0.6-0.5,1-0.7c0.5-0.3,1.3-0.4,1.6-0.7c0.4-0.4,0.9-0.5,1.3-0.7
	c0.6-0.2,1.2-0.4,1.7-0.7c0.6-0.3,1.4-0.1,2-0.4c0.6-0.4,1.4-0.6,2.1-0.8c0.6-0.2,1.3-0.5,2-0.7c0.6-0.2,1.3-0.5,2-0.7
	c0.7-0.3,1.5-0.3,2.2-0.4c0.1,0,0.4,0,0.4,0c0.2-0.8,1.2-0.3,1.7-0.6c0.4-0.2,0.9-0.5,1.5-0.4c0.6,0.1,1-0.6,1.8-0.3
	c0.5-0.2,1-0.4,1.5-0.6c0.5-0.2,1-0.4,1.5-0.6c0.9,0.2,1.5-0.4,2.4-0.5c0.8,0.3,1.8,0.3,2.7,0.1c0.5-0.1,0.8,0.1,1.2,0.1
	c1.8-0.7,3.6-1.4,5.5-2c0.5,0,1.1,0.6,1.4-0.2c0.6-0.2,1.3-0.5,1.9-0.7c0.1-0.1,0.3,0,0.4,0c0.7-0.1,1.3-0.1,2-0.2
	c0.2-0.1,0.6,0.1,0.8,0.2c0.6-0.2,1.2-0.5,1.8-0.7c0.3-0.1,0.5-0.3,0.5-0.6c-0.1-0.3-0.5-0.3-0.8-0.3c-0.4,0-0.7,0.1-1.1,0.1
	c-0.4,0-0.8-0.2-1.1-0.3c-0.4,0.1-0.8,0.3-1.2,0.4c-0.7-0.2-1.5-0.4-2.4-0.6c-0.3,0.2-0.7,0.4-1,0.6c-1.5-0.4-2.9-0.8-4.3-1.1
	c-0.7-0.1-1-0.5-1.5-0.8s-0.8-0.7-1.5-0.8c-0.6-0.1-1.2-0.3-1.8-0.5c-0.4-0.4-0.3-0.9-1-1.1c-0.2-0.1-0.2-0.2-0.2-0.5
	c0-0.6-0.7-1-0.7-1.5c0-0.5-0.3-0.9-0.5-1.4c1.3-2.9,2.6-5.8,3.9-8.7c0.2-0.4,0.6-0.6,0.8-0.8c0.4-0.4,1.1-0.7,1.2-1.3
	c0-0.4,0.3-0.7,0.4-1c0.4-0.2,0.8-0.3,1.1-0.4c0.6-1.2,0.7-1.2,2.4-2.1c0.4-0.2,0.7-0.5,1.3-0.5c0.4,0,0.9-0.3,1.3-0.5
	c0.5-0.2,1-0.4,1.5-0.6c0.3-0.1,0.6,0,0.9-0.1c0.3,0,0.6,0,0.9-0.1c0.4-0.1,0.7-0.3,1-0.4c0.6,0.1,1,0.3,1.5,0.4
	c0.4-0.1,0.7-0.3,1.1-0.4c0.5,0.1,1.1,0.4,1.5,0.3c0.7-0.1,1.6,0,2.1-0.5c0.4,0.1,0.7,0.2,1,0.3c0.2,0.3,0.4,0.6,0.5,0.9
	c1.1,0.3,2.2,0.6,3.3,0.9c0.4-0.1,0.7-0.3,1.1-0.4c1.2,0.3,2.4,0.6,3.8,1c0.5-0.2,1.1-0.6,1.6-0.8c1.2,0.3,2.3,0.6,3.4,0.9
	c0.4-0.1,0.7-0.3,1.2-0.4c0.7,0.2,1.4,0.4,2.2,0.6c0.6,0.1,1.1,0.4,1.5,0.8c0.4,0.4,1,0.7,1.7,0.9c1,0.2,2,0.5,3,0.8
	c0.2,0.3,0.4,0.6,0.7,1c1.1-0.1,1.4,0.8,2.4,1c0.1,0,0.2,0.1,0.2,0.1c0.3,1.1,1.9,1.4,2.3,2.4c0.1,0.3,1,0.3,0.5,0.8
	c0.3,0.3,0.6,0.5,0.8,0.8c0.2,0.3,0.4,0.6,0.5,0.8c0.2,0.3,0.4,0.7,0.6,1c0.3,0.3,0,0.6,0.1,0.9c0.1,0.2,0.3,0.4,0.4,0.7
	c0.1,0.3-0.1,0.6,0.2,0.9c0.2,0.2,0.4,0.5,0.3,0.7c-0.1,0.4,0.1,0.6,0.3,0.9c0.3,0.3,0,0.6,0.1,0.9c0.3,0.1,0.6-0.1,0.8-0.2
	c0.3-0.1,0.6-0.3,0.9-0.3c0.5-0.1,1-0.2,1.5-0.1c0.6,0.1,1.2,0.4,1.8,0.1c0.6,0.2,1.2,0.3,1.8,0.5c0.4-0.1,0.4-0.5,0.9-0.6
	c0.8-0.2,1.6-0.5,2.4-0.9c0.5-0.2,0.9,0,1.3-0.2c0.4-0.2,0.8,0,1.1,0.1c0.6,0.1,1.2,0.3,1.9,0.5c0.7-0.2,1.4-0.4,1.9-0.9
	c0.1-0.2,0.6-0.3,0.8-0.3c0.9,0.2,1.6-0.7,2.5-0.2c0.1,0.1,0.4-0.1,0.6-0.2c1.1-0.4,2.2-0.8,3.2-1.2c0.4-0.1,0.8-0.4,1.1-0.4
	c0.4,0.1,0.8-0.2,1.1-0.1c0.7,0.1,1-0.2,1.6-0.4c0.8,0.2,1.7,0.5,2.7,0.7c0.9-0.3,1.8-0.7,2.8-1c0.3-0.1,0.6,0,0.9,0
	c0.8,0.1,1.5,0,2.2-0.3c0.8-0.3,1.5-0.7,2.4-0.6c0.1,0,0.3-0.1,0.4-0.1c0.5,0,1,0.5,1.6,0.2c0.4-0.2,0.9,0.1,1.3-0.2
	c0.1,0.1,0.2,0.2,0.2,0.3c0.4,0.4,0.5,0.4,0.8,0.2c0.3-0.1,0.7-0.2,0.9-0.5c0.3-0.3,0.8-0.4,1.5-0.3c1,0.1,2.1,0.2,3.1,0
	c0.5-0.1,0.9,0,1.4,0.1c1-0.4,2-0.8,3-1.2c0.8,0.2,1.5,0.4,2.5,0.7c0.5-0.2,1-0.5,1.6-0.6c0.5-0.1,1-0.1,1.5-0.3
	c0.2-0.1,0.5-0.1,0.7,0c0.4,0.1,0.8,0.1,1.1-0.1c0.5,0.3,0.9-0.2,1.3-0.1c0.4,0.1,0.8,0.2,1.2,0.3c1.2-0.5,2.4-0.9,3.6-1.4
	c0.5,0.1,1,0.3,1.4,0.4c0.3-0.1,0.7-0.3,1.1-0.4c1,0.3,2,0.6,3.2,0.9c0.5-0.2,1-0.4,1.4-0.5c0.4-0.2,0.9-0.4,1.3-0.5
	c0.4-0.1,0.8-0.5,1.3-0.3c0.5,0.2,0.9,0,1.3,0c0.7,0,1.4-0.2,2,0.1c0.3,0.1,0.7,0.3,1.1,0.3c0.3,0,0.6-0.1,0.9-0.1
	c0.2,0,0.5,0.1,0.8,0.2c0.3-0.1,0.7-0.4,1.2-0.5c0.5-0.1,1-0.3,1.5-0.3c0.5,0,1.1,0.3,1.6,0.2c0.5-0.1,0.9,0,1.4,0.1
	c0.2,0,0.3,0.1,0.7,0.2c0.5-0.2,1.1-0.5,1.6-0.8c0.3,0.1,0.5,0.1,0.6,0.2c0.4,0.2,0.8-0.2,1.1-0.1c0.5,0.1,0.7-0.2,1.1-0.1
	c0.3,0,0.7,0.2,0.9,0.1c0.4-0.2,0.8,0,1.1-0.1c0.4-0.1,0.7-0.3,1-0.4c0.5,0.1,1,0.3,1.5,0.4c0.6-0.5,1.4-0.4,2.2-0.5
	c0.7-0.1,1.2-0.2,1.8-0.4c1,0.3,2.1,0.6,3.2,0.9c0.5-0.1,0.9-0.4,1.3-0.4c0.4,0,0.8,0.2,1.3,0c0.6-0.2,1.1,0.5,1.8,0.2
	c0.5-0.2,1-0.3,1.5-0.3c0.2,0,0.5-0.1,0.7-0.1c0.7,0.3,1.3,0,2-0.1c0.3,0,0.6-0.1,0.9,0c0.2,0.1,0.5,0.1,0.7,0
	c0.5-0.2,1-0.4,1.6-0.6c1.4,0.4,2.8,0.8,4.3,1.2c0.4,0.1,0.9,0.4,1.1,0.3c0.5-0.2,1.1,0,1.6-0.2c0.4-0.1,0.9,0,1.3-0.2
	c0.2-0.1,0.5-0.1,0.6-0.2c0.4-0.2,0.7-0.2,1.1,0c0.3,0.1,0.6,0,0.9-0.1c0.5-0.2,0.9-0.1,1.3-0.1c0.8,0.1,1.7-0.1,2.5-0.5
	c1.6,0.4,3.3,0.9,4.8,1.3c0.7,0,1.1-0.5,1.7-0.4c0.5,0.1,1-0.3,1.6,0c0.1,0.1,0.3,0,0.4,0c0.4-0.1,0.7-0.3,1.1-0.3
	c1,0,1.9-0.2,2.9-0.3c0.4-0.1,0.6,0,0.9,0.1c1.4,0.4,2.9,0.8,4.4,1.2c0.6-0.4,1.4-0.4,2.2-0.5c0.6-0.1,1.2,0.2,2,0.4
	c0.5-0.1,1.1-0.4,1.8-0.4c0.6,0,1.4,0,2-0.4c0.6,0,1.1,0.2,1.6,0.3c0.5,0.1,0.9,0.2,1.3,0.4c0.9-0.4,1.8-0.7,2.7-1
	c0.4-0.2,0.9-0.3,0.9-0.8c0-0.1,0.1-0.2,0.2-0.3c0.6-0.2,1-0.5,1.5-0.8c0.7-0.5,1.7-0.6,2.4-1.1c0.6-0.5,1.5-0.7,2.3-0.9
	c0.6-0.2,0.7-0.6,1.2-0.8c0.5-0.1,0.8-0.5,1.3-0.8c0.5-0.2,0.6-0.7,1.2-0.8c0.6-0.7,1.4-1.1,2.3-1.4c1.1-0.4,2.2-0.8,3.3-1.2
	c0.4-0.1,0.3-0.7,1-0.5c0.6,0.2,0.5-0.5,1-0.6c0.5-0.1,0.9-0.3,1.4-0.5c0.1-0.3,0.3-0.6,0.5-1c0.1-0.2,0.3-0.2,0.6-0.1
	c0.3,0.1,0.5,0,0.6-0.2c0.2-0.4,1-0.4,1-1c0-0.3,0.5-0.3,0.7-0.4c0.2-0.1,0.5-0.2,0.7-0.4c0.8-0.9,1-1.1,2.2-1.6
	c0.1-0.1,0.1-0.3,0.2-0.5c0.1-0.2,0.2-0.4,0.3-0.6c1.8-0.7,3.5-1.4,5.4-2c0.7-0.2,1.1-0.6,1.6-1c0.9-0.7,0.8-0.8,1.5-1
	c0.2-0.4,0.3-0.7,0.5-1.1c0.5-0.3,1.2-0.3,1.5-0.8c0.1-0.2,0.6-0.4,0.8-0.3c1,0.3,0.8-0.4,1.3-0.9c0.4-0.1,1-0.3,1.6-0.4
	c0.2-0.5,0.4-0.9,0.5-1.2c0.5-0.2,1-0.3,1.2-0.6c0.3-0.4,0.8-0.4,1.1-0.6c0.4-0.2,1-0.2,1-0.7c0.4-0.2,0.9-0.3,1.3-0.5
	c0.2-0.1,0.5-0.2,0.6-0.3c0.1-0.6,0.7-0.7,1.3-1c0.4-0.2,0.7-0.6,1.2-0.8c0.5-0.1,0.8-0.3,1.3-0.1c0.5,0.2,0.9-0.1,1.2-0.4
	c0.2-0.2,0.2-0.6,0.6-0.7c0.3-0.1,0.5-0.4,0.8-0.6c0.5-0.2,0.3-0.8,0.9-1c0.4-0.1,0.7-0.6,1.2-0.8c0.5-0.2,0.9-0.5,1.2-0.8
	c0.3-0.4,1.1-0.4,1.3-0.7c0.3-0.5,0.6-0.4,1.1-0.4c0.1-0.1,0.2-0.2,0.3-0.3c0.2-0.8,0.9-1.2,1.7-1.6c0.4-0.2,0.7-0.4,1-0.7
	c0.2-0.2,0.7-0.3,1.1-0.4c0-0.5,0.7-0.4,0.9-0.8c0-0.1,0.2-0.2,0.3-0.2c0.5-0.2,1.1-0.3,1.5-0.6c0.3-0.3,0.6-0.5,1.1-0.6
	c0.5-0.1,0.5-0.4,0.7-0.7c0-0.1,0.2-0.2,0.3-0.3c1.2-0.4,1.1-0.4,1.9-1.2c0.3-0.3,0.8-0.4,1.2-0.6c0.2-0.4,0.4-0.9,0.6-1.3
	c0.2-0.1,0.4-0.2,0.6-0.3c0.4-0.2,1-0.3,1.2-0.5c0.2-0.3,0.5-0.5,0.9-0.6c0.5-0.1,0.6-0.5,1-0.7c0.2-0.1,0.4-0.4,0.6-0.5
	c0.6-0.2,1.1-0.4,1.5-0.9c1.1-0.2,1.8-1,2.8-1.3c0.1,0,0.3-0.2,0.3-0.2c0-0.6,0.8-0.7,1.1-1.1c0.1-0.2,0.7-0.3,1.1-0.4
	c0.2-0.4,0.4-0.9,0.5-1.2c0.8-0.3,1.4-0.5,1.9-0.7c0.3-0.6,0.4-1,1.1-1.2c0.7-0.1,0.9-0.8,1.7-0.9c0.6-0.1,1.2-0.4,1.7-0.6
	c0.3-0.1,0.7-0.2,1.1-0.2c0.5,0,1-0.2,1.2-0.7c0.1-0.4,0.4-0.8,0.6-1.3c0.7-0.2,1.2-0.6,1.8-1c0.5-0.4,0.5-1,0.9-1.5
	c0.6-0.3,1.4-0.4,1.5-1.1c0.7-0.4,1.2-1,2-1.1c0.2-0.5,0.4-0.9,0.6-1.4c0.4-0.3,1.2-0.2,1.3-0.7c0.2-0.4,0.5-0.6,0.9-0.8
	c0-0.7,0.8-0.8,1.5-1.1c0.2-0.3,0.3-0.7,0.5-1.2c0.6-0.1,1.2-0.3,1.8-0.5c0.3-0.6,0.5-1.1,0.7-1.6c0.6-0.3,1.4-0.4,1.5-1.1
	c0.5-0.3,0.9-0.7,1.4-0.9c0.6-0.2,0.8-0.6,1-1c0.6-0.2,1.2-0.4,1.7-0.6c0.1-0.1,0.2-0.2,0.2-0.3c0.3-0.5,0.2-1.1,1-1.4
	c0.3-0.1,0.3-0.6,0.5-0.8c0.2-0.3,0.3-0.8,0.6-1c0.4-0.2,0.5-0.6,1-0.7c0.4-0.1,0.4-0.2,0.2-0.6s-0.1-0.7,0.1-0.9
	c0.9-0.5,1-1.2,1.3-1.9c0.1-0.1,0.1-0.2,0.2-0.3c0.4-0.1,0.7-0.3,1.1-0.4c0.2-0.4,0.4-0.9,0.6-1.4c0.5-0.3,1.3-0.3,1.5-0.9
	c0.4-0.1,0.7-0.3,0.8-0.6c0.3-0.7,0.6-1.4,0.9-2.1c0.4-0.2,1-0.2,1.1-0.4c0.2-0.6,0.9-0.8,1.2-1.3c0.1-0.2,0.2-0.4,0.3-0.4
	c0.9-0.2,1.2-0.9,2.1-1.1c0.5-0.1,1-0.3,1.2-0.8c0.6,0.1,1.1-0.1,1.5-0.3c0.5-0.2,1-0.4,1.5-0.6c1.7,0.4,3.3,0.9,5,1.4
	c0.1,0.3,0.3,0.6,0.5,0.9c0.6,0.2,1.3,0.4,1.9,0.5c0.3,0.5,0.5,1,1.1,1.2c0,0.4,0.7,0.4,0.8,0.6c0.2,0.7,1.2,1,1.4,1.6
	c0.2,0.5,0.7,0.8,1.1,1.1c0.4,0.4,0.6,0.9,0.9,1.3s0.7,0.9,0.8,1.4c0.1,0.4,0.1,0.8,0.4,1.2c0.1,0.1,0.1,0.4,0,0.5
	c-0.3,0.4,0.2,0.7,0,1c-0.2,0.5,0.4,0.8,0.5,1.2c-1,2.2-1.9,4.4-3,6.5c-0.2,0.4-0.1,1.1-0.8,1.3c-0.7,0.2-0.3,1-1.2,1.1
	c-0.2,0.5-0.8,0.8-1.2,1.3c-0.2,0.2-0.2,0.5-0.5,0.5c-0.7,0.1-1,0.6-1.5,0.9c-0.4,0.2-0.7,0.6-1.1,0.9c-0.5,0.3-0.9,0.9-1.6,1
	c-0.6,0.1-0.6,0.5-0.8,1c-0.8,0.3-1.8,0.7-2.7,1c-0.9,0.3-1.3,1-2.3,1.2c-0.1,0.3-0.2,0.5-0.3,0.7c-0.3,1-1.2,1.7-2.4,2.1
	c-0.2,0.5-0.4,0.9-0.7,1.4c-0.2,0-0.4,0-0.6,0c-0.7,0-1.2,0.3-1.3,0.8c0,0.2-0.2,0.4-0.2,0.5c-0.6,0.2-1.3,0.3-1.7,0.7
	c-0.4,0.4-1,0.6-1.5,0.8c-0.2,0.3-0.3,0.7-0.5,1.1c-0.9,0.1-1.3,0.8-2,1.1c0,0.6-0.6,0.8-1.2,1c-1.5,0.4-2.4,1.3-3.8,1.8
	c-0.2,0.1-0.3,0.3-0.4,0.4c-0.1,0.1-0.2,0.4-0.3,0.4c-0.7,0.1-1.1,0.6-1.7,1c-0.4,0.3-1-0.2-1.2,0.2c-0.2,0.4-0.5,0.4-0.9,0.5
	c-0.6,0.1-0.6,0.5-0.8,0.8c-1.3,0.5-2.5,0.9-3.7,1.4c-0.3,0.6-0.5,1.2-0.8,1.8c-0.1,0.3-0.2,0.7-0.5,0.8c-0.6,0.2-0.5,0.6-0.8,0.9
	c-0.3,0.2-0.6,0.3-0.8,0.6c-0.2,0.2-0.7,0.3-1,0.4c-0.5,0.2-1,0.4-0.9,1c-1,0.2-1.6,0.8-2.7,0.7c-0.1,0-0.3,0.2-0.5,0.3
	c-0.2,0.3-1.2,1.1-1.5,1.2c-0.2,0.1-0.5,0.2-0.8,0.4c-0.4,0.4-0.9,0.8-1.5,1.1c-0.2,0.1-0.2,0.4-0.3,0.6c-0.6,0.2-1.2,0.4-1.8,0.7
	c-0.2,0.3-0.3,0.7-0.5,1.2c-0.6,0.1-1.2,0.3-1.8,0.5c-0.3,0.5-0.3,0.9-0.9,1c-0.8,0.1-1.1,0.8-1.9,1c-0.7,0.1-1.3,0.5-2,0.7
	c-0.6,0.1-0.7,0.6-1.2,0.8c-0.6,0.1-0.8,0.5-1.2,0.8c-0.5,0.3-0.8,0.8-1.5,0.9c-0.2,0-0.4,0.2-0.4,0.4c-0.2,0.6-0.7,0.9-1.3,1.2
	c-0.5,0.3-1.2,0.6-1.3,1.2c-0.1,0.5-0.6,0.8-1.1,0.8c-0.9,0-1.6,0.2-2.2,0.8c-0.5,0.4-1.2,0.5-1.8,0.8c-0.1,0.2-0.2,0.4-0.3,0.6
	c-0.4,0.3-1,0.5-1.6,0.7c-0.5,0.2-0.9,0.5-1.2,0.8c-0.5,0.4-1,0.7-1.7,0.9c-0.7,0.2-1.3,0.5-2,0.7c-0.3,0.7-0.6,1.4-1,2.1
	c-0.5,0.3-1.1,0.4-1.5,0.8c-0.3,0.4-1.1,0.4-1.7,0.7c-0.2,0.1-0.3,0.4-0.5,0.8c-0.5,0.2-1.2,0.4-1.8,0.6c-0.2,0.4-0.2,0.8-0.8,0.9
	c-0.2,0-0.5,0.1-0.6,0.2c-0.2,0.4-0.5,0.6-1.1,0.4c-0.3,0.2-0.7,0.2-1,0.5c-0.4,0.5-1.2,0.6-1.9,0.9c-0.1,0.3-0.2,0.6-0.4,0.9
	c-0.1,0.2-0.3,0.2-0.6,0.1s-0.5,0-0.5,0.2c-0.1,0.4-0.9,0.3-0.9,0.8c0,0-0.3,0.1-0.4,0.1c-0.5-0.2-0.7,0-0.8,0.4
	c-0.9,0.2-1.6,0.9-2.6,0.7c-0.1,0-0.2,0.1-0.2,0.1c-0.1,0.6-1,0.8-1.1,1.3c-0.1,0.6-1,0.8-1.2,1.3c-0.7,0.1-0.8,0.6-1,0.9
	c-0.7,0.2-1.3,0.5-2,0.7s-1.3,0.6-2,0.7c-0.7,0.2-1,0.8-1.7,0.9c-0.7,0.1-0.8,0.7-1.5,0.9c-0.6,0.1-1.2,0.4-1.7,0.6
	c-0.4,0.2-0.9,0.3-1.3,0.5c-0.2,0.2-0.1,0.7-0.6,0.8c-0.8,0.2-1.2,0.8-1.8,1.1c-0.1,0.4-0.5,0.4-0.9,0.6c-0.6,0.2-0.7,0.6-0.7,1.1
	c0.5-0.1,1-0.3,1.4-0.5c0.5-0.2,1,0,1.6-0.2c0.4-0.2,1-0.3,1.5-0.3c0.4,0,0.8,0.1,1.1,0.2c3.5,0.9,7,1.9,10.4,2.8
	c0.5-0.2,0.8-0.3,1.2-0.4c1,0.3,2.1,0.6,3.2,0.9c0.4-0.1,0.9-0.3,1.3-0.5c0.4,0.1,0.8,0.2,1.1,0.3c0.4,0.1,0.7,0.1,1.1,0
	c0.6-0.1,1.2,0.1,1.7,0.5c0.6,0.5,1.2,1,1.8,1.5c0.6,0.1,1-0.3,1.7-0.4c0.2,0.2,0.4,0.5,0.7,0.6c0.6,0.3,0.9,0.7,1.7,0.9
	c1.8,0.4,3.5,0.9,5.2,1.4c0.6,0.2,1.3,0.1,1.6,0.6c0.3,0.5,1.1,0.2,1.3,0.7c0,0.1,0.3,0.2,0.5,0.3c0.4,0.1,0.8,0.2,1.1,0.3
	c1.2,0.3,1.2,0.3,2.7,1.5c0.6,0,0.5,0.7,1.2,0.8c0.5,0,0.9,0.2,1.3,0.3c0.3,0.7,0.9,1.1,1.5,1.6c1,0.8,2.1,1.4,2.5,2.5
	c0.2,0.3,1,0.4,0.6,1c0.5,0.3,0.8,0.7,1.1,1.1c0.2,0.4,0.5,0.8,0.7,1.2c0.3,0.6,0.8,1.1,0.9,1.7c0.1,0.6,0.5,1,0.7,1.5
	c0,0.1,0.1,0.1,0.1,0.2c-0.2,1.3,0.7,2.3,1.4,3.4c0.3,0.5,0.1,1,0.5,1.4c-0.2,0.5,0.2,0.9,0.5,1.4c-0.2,0.5-0.4,0.9-0.6,1.4
	c0.4,0.5,0.7,1.1,0.3,1.7c0.3,0.3,0.1,0.6,0.2,0.9c0,0.3,0.3,0.6,0.5,0.9c-0.5,1.2-1,2.3-1.6,3.5c0.1,0.2,0.2,0.4,0.3,0.5
	c0.1,0.1,0.2,0.3,0.3,0.3c0.7,0,1.3-0.1,2,0c0.1,0,0.2-0.3,0.4-0.4c0.5-0.4,1.2-0.1,1.8-0.4c0.5-0.2,1-0.3,1.6-0.1
	c0.3,0.1,0.5,0.2,0.9,0.1c1.1-0.3,2.1-0.1,3.1,0.2c0.3,0.1,0.8,0.3,1.1,0.2c0.5-0.2,1.1,0.1,1.6-0.2c0.8-0.5,2-0.2,2.8-0.8
	c0.9,0.2,1.7,0.5,2.5,0.5c0.8,0,1.6-0.1,2.4-0.3c0.3-0.1,0.6,0,0.8,0.3c0.1,0.1,0.4,0.4,0.5,0.3c1.1-0.4,2,0.2,3,0.4
	c1.1-0.7,2.7-0.2,3.9-0.9c1.3,0.4,2.7,0.7,4,1.1c0.6-0.1,1.1-0.4,1.6-0.4c0.6,0,1-0.5,1.5-0.4c0.6,0.1,1.2-0.4,1.8,0
	c1.5,0.4,3,0.8,4.4,1.2c0.7-0.3,1.4-0.5,1.8-0.7c0.8,0.2,1.2,0.3,1.8,0.5c0.5-0.2,1.1-0.5,1.6-0.8c0.4,0.1,0.8,0.1,0.8,0.2
	c0.5,0.6,1.4,0.7,2.2,1c0.8-0.3,1.5,0,2.2,0.2c0.1,0,0.4,0.1,0.4,0c0.3-0.2,0.8,0,1.1-0.1c0.5-0.3,0.9,0,1.3,0.1
	c0.4,0.1,0.8,0.3,1.1,0.3c0.5,0,1,0,1.5-0.1c0.3,0,0.6-0.2,0.9-0.3c0.7,0.2,1.5,0.4,2.4,0.6c0.3-0.2,0.7-0.4,1-0.5
	c0.5,0.1,0.8,0.2,1.1,0.3c0.5-0.2,1.1-0.5,1.6-0.7c0.2,0,0.4,0,0.5,0c1.2,0.3,2.4,0.7,3.6,1c1,0.3,1.7,0.3,2.9-0.1
	c0.5-0.2,0.9,0,1.4,0.1c0.3-0.1,0.7-0.3,1-0.4c0.2,0,0.4,0,0.5,0c0.8,0.2,1.5,0.4,2.3,0.6c0.4,0.1,0.8-0.3,1.3,0
	c0.4,0.2,0.9,0.2,1.3,0.4c0.5-0.2,0.8-0.3,1.2-0.5c0.2,0,0.4,0.1,0.6,0.2c0.4,0.1,0.8,0.3,1.1,0.3c0.5-0.1,0.9-0.1,1.3-0.1
	c0.2,0,0.5-0.1,0.7-0.1c0.9,0.1,1.7,0.7,2.7,0.5c1-0.2,1.8,0.5,2.8,0.5c0.3,0,0.2-0.6,0.7-0.5c0.7,0,1.3-0.1,2,0.1
	c0.7-0.4,1.2,0,1.8,0.2c0.4,0.1,0.7,0,1.1-0.1c0.3,0,0.6,0.1,0.9,0.2c0.6-0.2,1.2-0.4,1.8-0.7c0.7,0.2,1.5,0.4,2.2,0.6
	c0.7-0.2,1.4-0.7,2.2-0.2c0.7-0.2,1.5-0.1,2.3-0.5c0.6,0.2,1.3,0.4,1.9,0.5c0.3-0.1,0.5-0.2,0.8-0.3c0.8-0.2,1.6-0.3,2.5-0.1
	c2.6,0.7,5.1,1.4,7.7,2.1c0.7,0.2,1,0.5,1.5,0.8c0.4,0.3,0.8,0.8,1.5,0.8c0.1,0.5,0.8,0.5,1.3,0.7c0.2,0.1,0.4,0.2,0.5,0.3
	c0.3,0.3,0.3,0.6,0.8,0.9c0.3,0.1,0.5,0.6,0.7,0.9c0.6,0,0.5,0.6,1,0.7c0.2,0,0.3,0.2,0.4,0.4c0.3,0.5,0.5,1,1.2,1.3
	c0.2,0.1,0.4,0.5,0.3,0.6c-0.4,0.5-0.1,1,0.2,1.4c0.2,0.4,0.7,0.8,0.7,1.2c-0.1,0.4,0.3,0.7,0.3,1c0.1,0.6,0.3,1.1,0,1.7
	c-0.6,1.2-1.1,2.4-1.7,3.6c-0.4,0.1-0.8,0.2-1.2,0.3c-0.2,0.4-0.3,0.6-0.4,0.8c-0.4,0.2-1,0.3-1.4,0.7c-0.5,0.4-1.3,0.6-2,0.9
	c-1-0.2-1.8,0.4-2.6,0.7c-0.4,0.2-1.2-0.3-1.3,0.4c0,0-0.4,0.1-0.6,0.1c-0.7-0.2-1.4-0.3-2,0.1l-1.8,0.1c-0.4-0.1-0.8-0.4-1.3-0.1
	c-0.3,0.2-0.7-0.1-1.1,0.1c-0.3,0.2-0.6,0-0.8-0.2c-0.1-0.1-0.2-0.2-0.2-0.2c-1,0.4-1.8-0.2-2.7-0.4c-1.2-0.3-2.4-0.7-3.7-1
	c-0.6-0.1-1.3-0.6-2-0.2c-0.9-0.3-2.1-0.2-2.6-1c-0.5-0.1-0.9-0.3-1.3-0.4c-0.5,0.3-1,0.1-1.6,0c-0.5,0.3-1.1,0.1-1.6,0
	c-0.9-0.3-1.8,0.1-2.7-0.3c-0.8-0.3-1.7-0.5-2.5-0.7c-0.9-0.2-1.8-0.5-2.6-0.7c-0.4,0.2-0.8,0.3-1.2,0.4c-0.6,0-1.1-0.5-1.8-0.2
	c-0.6,0.2-1-0.2-1.6-0.3c-0.1,0-0.1,0-0.2,0.1c-0.6,0.1-1.2,0.2-1.8,0.2c-0.5,0-1.1-0.2-1.6-0.4c-0.7-0.3-1.5-0.2-2.2-0.2
	c-0.4,0-0.7,0.3-1.1,0.1c-0.5-0.3-0.9,0.1-1.3,0c-0.7-0.1-1.4-0.4-2.1-0.5c-0.4,0.1-0.8,0.3-1.3,0.5c-0.8-0.2-1.5-0.4-2.3-0.6
	c-0.5-0.1-1-0.4-1.3-0.3c-0.5,0.1-0.9,0-1.3,0c-0.4,0-0.9,0.2-1.5,0.4c-0.3-0.1-0.7-0.2-1.2-0.3c-0.2,0-0.5-0.1-0.7-0.1
	c-0.6,0.2-1.2,0.2-1.8,0.2c-0.6,0-1.2-0.3-1.8-0.5c-0.5-0.1-1,0.2-1.6,0c-0.5-0.2-1.2-0.4-1.8-0.5c-0.5-0.1-1.1-0.3-1.6-0.4
	c-0.4,0.1-0.8,0.3-1.2,0.4c-0.7-0.2-1.5-0.4-2.2-0.6c-0.6,0.3-1.2,0.6-1.6,0.8c-0.8-0.2-1.2-0.3-1.7-0.5c-0.6,0.2-1.2,0.4-1.8,0.7
	c-1-0.3-2.1-0.6-3.3-0.9c-0.3,0.2-0.7,0.4-1,0.6c-0.9-0.2-1.7-0.4-2.4-0.7c-0.4-0.1-0.8,0-1.1,0.1c-0.8-0.4-1.4,0.6-2.2,0.2
	c-0.7-0.4-1.5,0.1-2.2-0.2c-0.5,0.1-1,0.2-1.6,0c-0.3-0.1-0.8-0.3-1.1-0.2c-0.6,0.2-1.3-0.1-1.8,0.3c-0.1,0.1-0.3,0.1-0.4,0.1
	c-0.5-0.1-0.9-0.2-1.4-0.4c-0.8-0.2-1.5-0.4-2.3-0.6c-0.6,0.3-1.4,0.1-2,0.2c-0.8,0.2-1.4,0-2.2-0.2c-0.3,0.2-0.7,0.4-1,0.6
	c-0.7-0.4-1.4-0.1-1.9-0.2c-0.7-0.2-1.2,0.2-1.8,0c-0.4,0.2-0.7,0.2-1.1,0c-0.8-0.2-1.7-0.5-2.6-0.7c-0.5,0.2-1.1,0.5-1.6,0.8
	c-0.7-0.2-1.1-0.3-1.6-0.4c-0.7,0.4-1.4,0.6-2.2,0.2c-0.3-0.1-0.6,0.1-0.9,0.1c-0.8,0-1.5,0.2-2.2-0.1c-0.4-0.2-0.8,0.3-1.3,0
	c-0.4-0.2-0.9-0.3-1.4-0.4c-0.6,0.2-1.1,0.4-1.7,0.6c-0.2,0-0.4,0-0.5,0c-0.8-0.3-1.5-0.2-2.2,0.2c-0.5-0.1-1-0.4-1.4-0.3
	c-0.4,0.1-0.9,0-1.3,0.1c-0.5,0.2-1,0.1-1.6,0.2c-0.4,0.1-0.9-0.2-1.3-0.3c-0.7,0.2-1.3,0.7-2.1,0.2c-0.5,0.3-1.2,0-1.8,0.3
	c-0.2,0.1-0.5,0.3-0.6,0.2c-1.1-0.5-1.8,0.2-2.7,0.5c-0.4-0.1-0.8-0.2-1.5-0.4c-0.1,0.1-0.4,0.2-0.7,0.4c-0.2,0.1-0.5,0.1-0.7,0.1
	c-0.5-0.2-0.9-0.1-1.3,0.1c-0.5,0.2-0.3,0.5-0.7,0.9c-0.3,0.1-0.7,0.3-1.1,0.4c-0.2,0.4-0.3,0.7-0.5,1c-0.5,0.2-0.9,0.5-1.3,0.5
	c-0.6,0-0.4,0.9-1.3,0.6c-0.4-0.1-0.9,0.1-1.2,0.5c-0.2,0.4-0.8,0.4-1.3,0.6c-0.2,0.4-0.4,0.9-0.6,1.4c-0.8,0.2-1.3,0.6-2.1,0.5
	c-0.2,0-0.8,0.1-0.8,0.3c-0.2,0.5-0.8,0.5-1.3,0.8c-0.5,0.3-1.1,0.4-1.8,0.4c0,0.5-0.9,0.5-1,0.9c0,0.2-0.5,0.3-0.8,0.3
	c-0.3,0.1-0.5,0.3-0.6,0.5c-0.1,0.2-0.2,0.3-0.4,0.4c-0.5,0.3-1.2,0.4-1.6,0.8c-0.5,0.4-1.1,0.5-1.6,0.8c-0.5,0.3-0.9,0.6-1.4,0.9
	c-0.5,0.2-1.1,0-1.6,0.2c-0.4,0.2-0.8,0.4-1.3,0.5c-0.5,0.2-0.7,0.6-1.2,0.8c-1.1,0.2-2,0.9-3.3,1c-0.5,0-1,0.4-1.5,0.5
	c-0.6,0.2-1.1,0.5-1.7,0.6c-0.6,0.2-1,0.6-1.7,0.5c-0.7-0.1-1.1,0.4-1.7,0.5c-0.1,0-0.3,0.1-0.4,0.1c-0.9-0.4-1.5,0.1-2.2,0.4
	c-0.5,0.2-0.9-0.1-1.3,0.2c-0.6,0.4-1.5,0.1-2.2,0.5c-0.7,0.4-1.4,0.5-2.2,0.8c-0.6,0.2-1.3,0.4-2,0.5c-0.4,0-0.9-0.1-1.3,0.2
	s-0.9,0.1-1.3,0.2c-0.1,0-0.2,0.1-0.2,0.1c-0.4,0-0.8-0.2-1.1-0.1c-0.6,0.1-1.2,0.4-1.7,0.6s-1.1,0.5-1.7,0.6
	c-0.6,0.1-1.2,0-1.8,0.1c-0.5,0.1-1.1,0.1-1.5,0.3c-0.5,0.2-0.9,0.1-1.3,0.2c-0.6,0.1-1.2,0-1.8,0.4c-0.1,0.1-0.5,0.1-0.7,0
	c-0.6-0.2-1.2-0.2-1.8-0.1c-1.1,0.1-1.1,0.1-2.3-0.2c-0.5,0.2-1.1,0.5-1.7,0.6c-0.6,0.1-1.2,0-1.8,0.1c-0.8,0.2-1.6,0.2-2.4,0.3
	c-0.9,0-1.8-0.1-2.7,0.1c-0.2,0.1-0.6-0.1-0.9-0.1c-2.8-0.8-5.6-1.5-8.4-2.3c-1.4-0.4-1.8-0.7-2.6-1.9c-0.6-0.2-1.2-0.3-1.8-0.5
	c-0.5-0.5-0.5-1.3-1.4-1.7c-0.2-0.1-0.3-0.3-0.3-0.5c0.1-0.7-0.5-1.3-0.8-1.9c1.8-4,3.6-8,5.4-12c0.1-0.2,0.2-0.4,0.3-0.4
	c0.8-0.1,0.4-0.9,1.2-1.1c0.4-0.1,0.6-0.5,1-0.7c0.3-0.2,0.3-0.6,0.4-0.9c0.1-0.2,0.2-0.3,0.2-0.5c0.6-0.2,1.2-0.4,1.5-0.9
	c0.5,0,0.5-0.6,1-0.7c0.4-0.1,0.8-0.2,1.1-0.6c0.1-0.2,0.8-0.2,1-0.4c0.3-0.3,0.6-0.5,1-0.7c0.4-0.1,0.7-0.3,1.1-0.4
	c1.4-0.5,2.7-1,4.1-1.5c0.4-0.1,0.8-0.5,1.3-0.4c0.6,0.2,0.5-0.3,0.8-0.5c0.1,0,0.3-0.1,0.4,0c0.6,0.3,1.2-0.1,1.8,0
	c0.1,0,0.3-0.4,0.6-0.5c1.6-0.6,3.2-1.2,4.8-1.8c0.2-0.1,0.5,0,0.7,0c0.3,0.1,0.6,0.1,0.9,0c0.7-0.4,1.5-0.1,2.2-0.5
	c0.6-0.3,1.3-0.5,1.9-0.8c0.3-0.1,0.5-0.3,0.7-0.3c0.4,0.1,0.6,0.2,0.8,0.2c0.7,0.1,1.1-0.6,1.8-0.3c0.6,0.2,1.2,0.2,1.8,0.1
	c0.1,0,0.3,0,0.4,0c0.8-0.3,1.6-0.6,2.4-0.9c0.7-0.3,1.6,0,2.2-0.5c1.3,0.3,2.5,0.7,3.7,1c1.2-0.5,2.4-0.9,3.6-1.4
	c0.4-0.2,0.9-0.5,1.3-0.4c0.5,0.1,0.9-0.2,1.4-0.1c0.4,0.1,0.9-0.2,1.3,0c0.4,0.2,0.8-0.1,1.3-0.1c0.5,0.1,1-0.2,1.2-0.7
	c0.2-0.5,0.7-0.6,1.3-0.5c0.4,0.1,0.8,0.2,1.1,0c0.5-0.3,1.2-0.1,1.8-0.3c0.3-0.1,0.8,0.2,1.1,0.1c0.8-0.4,1.9-0.2,2.7-0.7
	c0.4-0.2,0.8-0.4,1.3-0.1c0.1,0,0.3,0,0.4,0c0.5-0.1,0.8-0.5,1.3-0.3c0.5,0.1,0.9-0.4,1.3-0.1c0.4-0.1,0.7-0.3,1.2-0.5
	c0.4,0.1,0.8,0.2,1.3,0.3c0.4,0.1,0.8,0.4,1.3,0.1c0.5-0.2,0.9,0.3,1.3,0.1c0.4-0.2,0.7-0.1,1.1,0c0.5,0.1,1.1-0.1,1.2-0.4
	c0.2-0.7,0.9-0.8,1.5-1c0-0.1,0.1-0.2,0.2-0.4c0.5-1.1,0.5-1.1,2-2.3c0.1-0.5,0.9-0.4,1-1c0-0.4,0.3-0.7,0.5-1.1
	c0.3,0,0.5,0.1,0.7,0.1c0.4-0.1,0.5-0.6,1-0.7c0.1,0,0.2-0.3,0.3-0.5c0-0.2-0.1-0.3-0.1-0.5c0-0.5-0.3-1,0-1.6
	c0.1-0.2-0.2-0.5-0.3-0.8c-0.7-0.1-0.6-0.7-1.2-1.1c-0.4-0.1-1-0.3-1.6-0.4c-0.3-0.5-0.5-1.1-0.9-1.4c-0.5-0.3-0.6-0.7-1-1
	c-0.5-0.3-0.8-0.9-1.6-1c-0.3,0-0.6-0.2-0.9-0.2c-0.8-0.1-1.2-0.5-1.7-0.9c-0.3-0.2-0.3-0.6-0.8-0.6c-0.6,0-0.6-0.5-1-0.7
	c-0.4-0.1-0.9-0.3-1.4-0.4c-0.3,0-0.6,0-1,0.1c-0.5-0.1-1-0.4-1.7-0.4c-0.7-0.1-0.5-0.8-1.2-0.8c-0.5,0-0.9-0.2-1.3-0.4
	c-0.1,0-0.1-0.1-0.1-0.2c-0.3-0.3-0.6-0.7-1-0.9c-0.5-0.2-1-0.3-1.6-0.5c-1.3-0.4-2.6-0.7-3.9-1c-0.8-0.2-1.5-0.5-2.3-0.5
	c-0.7,0-1.5,0.1-2.2,0.2c-0.3,0-0.6,0.1-0.9,0c-0.9-0.3-1.8-0.5-2.7-0.8c-0.5,0.3-1.2,0.2-1.5-0.1c-0.3-0.3-0.6-0.5-1.1-0.6
	c-1.1-0.3-2.3-0.6-3.4-0.9c-0.2,0.2-0.5,0.6-0.6,0.5c-0.7-0.2-1.4,0-2,0c-0.2,0-0.5-0.1-0.7-0.1c-0.5,0.2-1.1-0.1-1.5,0.3
	c-0.6-0.2-1.2-0.3-1.8-0.5c-1.4-0.4-2.7-0.7-4-1.1c-0.5,0.1-0.9,0.4-1.3,0.4c-0.4,0-0.8-0.3-1.3,0c-0.2,0.1-0.2-0.5-0.5-0.3
	c-0.4,0.2-0.8,0-1.1,0.1c-0.3,0.1-0.6,0.2-0.9,0.3c-0.3,0.1-0.6,0-0.8-0.3c-0.1-0.1-0.2-0.2-0.2-0.2c-0.8,0.4-1.7-0.3-2.5,0.3
	c-0.2,0.2-0.7,0.3-1.1,0.4c-0.4,0.7-0.4,0.7-1.6,1.2c-0.1,0.3-0.3,0.6-0.4,0.9c0,0.1,0,0.1-0.1,0.1c-0.4,0.2-1,0.3-1.2,0.6
	c-0.3,0.4-0.7,0.4-1.1,0.6c-0.4,0.2-1,0.2-1,0.7c-0.4,0.1-0.8,0.5-1.3,0.3c-0.2-0.1-0.4,0.1-0.5,0.3c-0.1,0.3-0.3,0.5-0.7,0.7
	c-0.8,0.3-1.6,0.6-2.4,0.9c-0.7,0.2-1.3,0.5-2,0.7c-0.7,0.2-1.3,0.5-1.9,0.7c-0.3,0.6-1.2,0.6-1.7,0.9c-0.4,0.3-0.9,0-1.3,0.2
	c-0.3,0.7-0.6,1.4-1,2.1c-0.7,0.3-1.5,0.4-1.5,1.1c-1,0.5-2.2,0.6-2.8,1.4c-0.6,0.1-1,0.5-1.8,0.5c-0.8,0-2,0.6-2.8,1.3
	c-0.4,0.4-0.9,0.6-1.5,0.9c-0.4,0.2-0.7,0.6-1,0.9c-0.4,0.3-1,0.6-1.4,0.9c-0.2,0.2-0.3,0.6-0.8,0.4c-0.7,0.2-1.5,0.5-2.2,0.8
	c-0.1,0-0.2,0.2-0.2,0.3c-0.1,0.3-0.3,0.5-0.8,0.6c-0.5,0.1-0.7,0.4-0.9,0.8c-0.2,0.4-0.7,0.6-1.1,0.9c-0.5,0.2-1,0.5-1.5,0.6
	c-0.6,0.1-0.7,0.6-1.2,0.8c-0.5,0.1-0.9,0.4-1.5,0.4c-0.8-0.1-1.4,0.8-2.4,0.5c-0.1,0-0.3,0.1-0.3,0.2c0,0.5-0.8,0.6-0.9,1
	c-0.2,0.4-0.4,0.7-0.9,0.8c-0.7,0.1-0.7,0.6-1,1c-0.7,0.3-1.4,0.6-2.2,0.8c-0.8,0.2-1.1,0.9-1.9,1c-0.7,0.1-1.3,0.5-2,0.7
	c-0.7,0.3-1.4,0.6-2.2,0.8c-0.6,0.2-0.8,0.7-1.5,0.9c-0.5,0.1-1,0.4-1.5,0.6c-0.6,0.2-1.2,0.5-1.7,0.6c-0.4,0.1-0.3,0.5-0.8,0.6
	c-0.4,0.1-0.7,0.4-1.1,0.4c-1.3-0.1-2.2,0.7-3.3,1c-0.3,0.7-1.3,0.7-1.9,1c-0.3,0.1-0.8,0-1.1,0.2c-0.2,0.1-0.2,0.5-0.4,0.6
	c-0.9,0.5-1.4,1.2-2.4,1.6c-1,0.3-1.9,0.7-2.8,1c-0.4,0.1-0.6,0.3-0.8,0.6c-0.3,0.4-0.8,0.9-1.4,1.1c-1.4,0.5-2.8,1-4.1,1.5
	c-0.4,0.1-0.8,0-1.1,0.1c-0.6,0.1-1.1,0.4-1.8,0.4c-0.6,0-0.7,0.6-1.2,0.7c-0.7,0.1-0.9,0.6-1.5,0.9c-0.5,0.2-1,0.4-1.5,0.6
	c-0.6,0.2-1.2,0.4-1.7,0.6c-0.1,0.2-0.2,0.5-0.3,0.7c-1.5,0.3-2.4,1.4-3.8,1.7c0,0.5-0.7,0.4-0.9,0.8c-0.2,0.4-0.8,0.4-1.2,0.6
	c-0.4,0.2-0.9,0.3-1.3,0.5c-0.4,0.2-0.9,0.3-1.3,0.5c-0.1,0-0.1,0.1-0.2,0.1c-0.5,0.1-0.5,0.5-0.7,0.9c-1.8,0.7-3.6,1.4-5.5,2.1
	c-0.1,0-0.2,0.1-0.2,0.1c-1-0.4-1.8,0.1-2.7,0.4c-0.8,0.3-1.6,0.5-2.3,0.9c-0.3,0.2-0.2,0.7-0.8,0.8c-0.8,0.1-1.1,0.8-1.9,1
	c-0.8,0.2-1.5,0.5-2.2,0.8c-0.5,0.2-0.8,0.5-1.3,0.7c-0.5,0.3-1.2,0.4-1.7,0.7c-0.5,0.2-1,0.4-1.5,0.6c-0.7,0.2-0.9,0.8-1.7,1
	c-0.7,0.1-1.3,0.5-2,0.7s-1.3,0.5-2,0.7c-0.6,0.2-1.2,0.7-2,0.5c-0.6,0.2-1.1,0.5-1.7,0.6c-0.3,0.1-0.6,0-0.9,0
	c-0.1,0.3-0.2,0.5-0.3,0.7c-0.4,0.2-1.2-0.2-1.3,0.5c-0.4,0.1-0.6,0.4-1.1,0.3c-0.1,0-0.4,0-0.4,0c-0.2,0.3-0.5,0.6-1.1,0.4
	c-0.7,0.3-1.5,0.5-2.2,0.8c-0.7,0.3-1.5,0.4-2,1c-0.2,0.3-0.8,0.4-1.2,0.5c-2.9,1.1-5.8,2.2-8.7,3.3c-0.7,0.3-1.6,0.3-1.9,1
	c0,0.1-0.3,0.1-0.4,0.1c-0.5-0.1-0.9,0-1.1,0.2c-0.8,0.7-1.8,1-3,1.1c-1,0.1-1.9,0.6-2.8,1c-0.9,0.4-2,0.5-2.5,1.2
	c-0.6,0.2-1.2,0.4-1.7,0.6c-0.4,0.2-0.8,0.3-1.3,0.5c-0.1,0.7-0.9,0.2-1.3,0.4c-0.4,0.2-0.8,0.4-1.3,0.5c-0.3,0.1-0.5,0.3-0.6,0.5
	c-0.1,0.1-0.6,0-0.8,0.1c-0.2,0-0.3,0.1-0.4,0.1c-0.5,0-0.4,0.8-1,0.5c-0.7-0.2-0.6,0.5-1,0.5c-0.2,0-0.4,0.4-0.6,0.5
	c-0.5,0.3-1,0.3-1.7,0c-1.2,0.5-2.5,1-3.8,1.4c-0.4,0.1-0.3,0.8-1,0.5c-0.4,0.1-0.9,0.5-1.3,0.4c-0.7-0.1-1.1,0.1-1.5,0.3
	c-3.1,1.1-6.1,2.3-9.2,3.4c-0.6,0.2-1.2,0.6-2,0.5c-0.2,0-0.7,0.2-0.8,0.3c-0.2,0.4-0.6,0.4-0.9,0.6c-0.5,0.4-1.2,0.1-1.8,0.3
	c-0.5,0.2-1,0.6-1.8,0.4c-0.2,0-0.3,0.2-0.5,0.3c-0.5,0.3-1.1,0.7-1.6,0.7c-0.5,0-0.9,0.2-1.3,0.3c-0.4,0.1-0.7,0.2-0.8,0.6
	c0,0-0.3,0.1-0.4,0.1c-0.4-0.1-0.6,0-0.7,0.3c-0.1,0.2-0.2,0.4-0.2,0.5c-0.1,0.4-0.5,0.4-0.9,0.6c-0.4,0.1-0.7-0.1-1.1,0.1
	c-0.3,0.2-0.7,0.3-1.1,0.4c-0.2,0.1-0.5,0.1-0.7,0c-0.5-0.2-0.9-0.2-1.1,0.3c-0.4,0-0.7,0.1-1.1,0.1c-0.4,0.1-0.9-0.1-1.3,0.2
	l-1.2,1c0,0.5-0.6,0.6-1,0.7c-1.8,0.4-1.8,0.4-3.5,1.3c-0.1,0-0.1,0.1-0.2,0.1c-0.3,0.1-0.8-0.3-1,0.2c-0.2,0.4-0.8,0.4-1.2,0.6
	c-0.3,0.2-0.7,0.3-1.1,0.4c-0.6,0.2-1.2,0.6-1.7,0.6c-0.7,0-1.2,0.4-1.8,0.4c-0.8-0.1-1.2,0.3-1.8,0.4c-0.2,0-0.4,0.2-0.7,0.2
	c-0.4,0-0.7-0.3-1.1-0.1c-0.4,0.2-0.8,0.4-1.3,0.3c-0.3-0.1-0.7,0.3-1.1,0.1c0,0-0.2,0-0.2,0.1c-0.2,0.7-1.1,0.3-1.5,0.6
	c-0.5,0.3-1,0.2-1.5,0.3c-0.6,0.1-1.2,0.1-1.8,0.4c-0.1,0-0.3,0-0.4,0C45.6,217.9,45.6,217.9,44.3,218.4z"/>
</svg>
