<?xml version="1.0" encoding="UTF-8"?>
<svg id="_レイヤー_2" data-name="レイヤー 2" xmlns="http://www.w3.org/2000/svg" viewBox="0 0 510.6 288.12">
  <g id="text">
    <path d="M86.11,179.16c-.94-.26-1.78-.48-2.76-.75-.24,.16-.55,.36-.72,.47-1.03-.28-1.81-.49-2.62-.71-.42-1.23-1.84-1.05-2.85-1.44-.72-1.03-1.65-1.96-2.25-3.14,.18-1.65,1.04-3.34,1.76-4.91,.21-.12,.5-.27,.49-.28-.31-1.24,.95-2.41,1.31-3.73,.28-.06,.67-.15,.96-.22,.28-.62,.5-1.12,.72-1.6,.56-.23,1.09-.46,1.62-.69,.13-.55,1.15-.34,1.27-.9,.38-.24,.8-.33,1.28-.27,2.22-1.88,5.41,.04,7.91,.5,3.61-1.29,7.34-1.03,10.99-1.58,.14-.3,.27-.6,.41-.91,2.33-1.29,5.06-1.12,7.45-2.05,.39-.6,1.61-.98,2.39-.9,3.72-.9,6.53-3.58,10.48-3.91,.78-.56,1.9-.35,2.71-.86,.93-.79,2.17-1.58,3.5-1.5,.48-.26,1.12-.28,1.48-.76,.24-.32,1.03-.25,1.2-.74,.01-.03,.14-.08,.18-.07,4.04-1.04,8.27-2.98,12.4-4.17,2.44-.44,4.62-2.22,7.21-2.44,2.31-1.44,5.64-2.26,8.41-3.43,.27,.07,.53,.14,.82,.22,1.22-.6,2.63-1.11,3.75-1.94,1.08-.27,2-1.09,3.16-.94,.61-.77,1.96-.68,2.56-1.39,4.1-1.91,8.27-3.88,12.61-5.1,1.42-.28,2.63-1.28,3.96-1.77,.18-.79,1.18-.77,1.82-1.14l.26-.58c1.27-.65,2.77-.83,4.04-1.31,.3-.38,2.02-1.24,2.55-1.41,2.83-1.19,6.23-1.29,8.78-3.31,.87-.31,1.73-.62,2.53-.91,.17-1.16,1.96-.71,2.13-1.8,1.44-.83,2.94-1.44,4.53-2,1.09-.15,1.65-1.18,2.73-1.24,1.13,.07,1.8-.85,2.87-.33,.63-.7,1.63-1.26,2.52-1.4,.23-.43,.23-.8,.75-.86,.78-.39,1.45-.92,2.32-1.08l.41-.93c.39-.18,.87-.27,1.05-.51,.43-.47,1.17-.06,1.61-.64,.34-.44,.94,0,1.18-.54,.38-.41,1.57-.29,1.71-.99,.3-.52,1.16-.53,1.67-.82,.2-.76,1.15,.12,1.33-1.02,1.81-.7,3.78-1.02,5.59-1.83,.11-.69,1.25-.98,2.06-1.54,1.46-.4,2.54-1.35,4.02-1.75,.45-.22,1.09-.21,1.34-.65,.25-.42,1.05-.24,1.23-.74,.04-.11,.31-.18,.48-.25,2.01-.71,3.83-1.69,5.81-2.18-.62-1.12,1.33-1.63,2.11-2.05,.4-.55,1.19-.63,1.79-.94,.61-1.06-1.8-.4-2.26-.14-1.28-.35-2.57-.7-3.9-1.06-.46,.19-.94,.39-1.44,.6-.66-.18-1.29-.35-1.93-.52-.54,.26-1.06,.5-1.3,.62-1.77-.33-2.9,.29-4.56-.47-.53,.2-1.03,.39-1.54,.58-1.27-.44-2.36-.68-3.6-.29-.71,.21-1.28-.15-1.9,.09-.5,.39-1.15-.03-1.69,.15-1.02,.49-2.2,.29-3.23-.06-.33,.12-.63,.24-1.03,.39-.62-.17-1.32-.36-1.96-.53-.5,.21-.86,.27-1.09,.72-.57-.15-1.08-.29-1.65-.45-.26,.12-.55,.26-.88,.41-.61-.07-1.15-.32-1.73-.42-.91,.48-1.65,.51-2.63,.47-1.02,.42-1.6,.36-2.84,.08-.88,.52-1.72,.44-2.62,.49-.49,.37-1.19,.08-1.69,.35-1.12,.03-1.75,.41-2.98-.16-.27,.15-.6,.33-.84,.47-.41-.11-.66-.18-1.09-.3-.43,.18-.96,.4-1.49,.62-1.06-.41-2.08,.53-3.24,.15-.81,0-1.64,.31-2.48,.01-1.19-.24-2.33,.56-3.57,.37-1.84,.4-3.83,.1-5.62,.85-.54-.15-1.05-.29-1.56-.42-.96,.56-2.04,.5-2.99,.87l-1.16-.31c-.49,.14-.91,.48-1.5,.31-.84,.15-1.64,.26-2.42,.66-.26-.07-.52-.14-.78-.21-.7,.5-1.48,.12-2.25,.35-.82,.33-1.66,.2-2.47,.16-.3,.12-.63,.33-.92,.3-1.87,.07-3.59,.82-5.44,1.08-1.82-.22-3.55,.15-5.33-.24-.73,.3-1.59,.49-2.45,.35-.27-.13-.44-.03-.63,.19-.57,.57-1.5,.35-2.12,.65-.67-.08-1.27,.41-1.87,.26-.46-.29-.91,.23-1.34-.01-.23,.16-.46,.32-.69,.49l-.73-.2c-1.19,.52-2.44,.57-3.58,1.06-2.54-.02-5.45,1.81-8.09,1.2-.63-.18-.6,.68-1.27,.32-2.23,.16-4.29,1.36-6.53,1.46-.57,.35-1.31,.14-1.89,.43-.5,.45-1.29,.1-1.85,.47-.94,.95-2.37,.68-3.49,1.3-.76-.2-.86,.25-1.03,.64-1.08,.29-2.03,1.01-3.17,1.01-.66-.04-1.01,.58-1.6,.8-2.08,.85-4.39,1.58-6.64,2.47-1.2,1.23-3.28,1.04-4.78,1.79-.78,.04-1.42-.12-2.11,.29-1.06-.54-1.74-.09-2.55,.45-.8,.3-1.4,.87-1.65,1.63-.25,.09-.49,.19-.77,.29-4.78,.89-10.03,3.16-15.02,4.38-2.28,.67-4.9,.4-7.04,1.15-2.09-.89-4.34-.26-6.46-1.07-.18-.27-.36-.55-.55-.84-1.03-.28-2.06-.56-3.04-.83-.76-.9-.94-2.01-2.1-2.76l.57-1.28c-.22-.12-.38-.2-.54-.28,.65-2.4,2.09-4.72,3.03-7.13,1.38,.31,1.38-1.6,1.98-2.47,.55-.22,1.22-.32,1.28-.92,2.52-1.87,5.47-2.39,8.37-3.46,1.83-.62,3.63-1.63,5.57-1.6,.21-.64,1.02-.26,1.48-.52,.34-.19,.73-.43,1.3-.33,.48,.08,.89-.49,1.49-.25,.86-.32,1.73-.65,2.59-.97,.77,.21,1.24-.32,2-.47,2.73,.78,5.46-.57,8.05-1.54,.46,.04,.97,.49,1.17-.18,1.37-.56,2.99-1.08,4.44-.68,3.68-1.34,1.49-1.12-.62-1.52-.34,.13-.65,.24-1,.38-.6-.16-1.24-.34-2.01-.55-.27,.15-.6,.33-.85,.48-2.96-.44-4.93-2-7.64-2.75-.3-.32-.25-.76-.81-.91-.2-.05-.17-.22-.16-.39-.37-.84-.67-1.65-1.05-2.47,1.44-2.6,2.06-5.89,4.01-8.09,.82-.43,1.01-1.2,1.36-1.96,.37-.14,.68-.25,.98-.37,1.29-2.55,5.41-2.67,7.86-3.5,.47,.13,.86,.23,1.24,.34,.32-.12,.63-.24,.97-.36,.99,.3,2.27,.37,3.14-.2l.82,.22c.15,.24,.29,.48,.47,.76,.91,.25,1.86,.5,2.81,.76,.31-.12,.62-.23,.96-.36,1.01,.27,2.03,.55,3.21,.87,.44-.22,.95-.47,1.37-.68,1.07,.29,1.97,.53,2.86,.78,.33-.12,.63-.24,1.03-.39,2.53,.48,4.45,2.24,7.08,2.6,.18,.28,.37,.56,.58,.88,.93-.04,1.36,.72,2.17,.93,.29,.89,1.59,1.21,1.96,2.08,.1,.24,.83,.25,.44,.7,1.36,1.13,1.92,2.76,2.31,4.32,.15,.15,.31,.4,.26,.57-.09,.61,.52,.8,.36,1.47,.55,.05,.93-.36,1.45-.44,.99-.35,1.89,.28,2.85-.03,.51,.14,1.02,.28,1.5,.41,1.86-1.37,4.26-1.89,6.45-.96,.93-.07,1.47-.97,2.31-1.04,.74,.2,1.34-.63,2.11-.15,2.93-.91,5.8-2.57,8.88-1.26,2.29-1.02,4.64-.99,7.05-1.65,.59-.28,1.08,.36,1.72,.11,.36-.15,.8,.08,1.13-.17,.5,.73,1.11,.45,1.63-.03,1.35-.54,3.56-.22,5.07-.23,.84-.33,1.69-.66,2.53-.99,.68,.18,1.32,.36,2.12,.57,1.21-.79,2.83-.69,4.16-.89,.73,.08,1.38-.16,2.12,.21,1.04-.4,2.08-.8,3.1-1.19,.42,.11,.81,.22,1.21,.33,.3-.12,.6-.24,.96-.38,.86,.23,1.75,.48,2.73,.74,1.51-.61,2.97-1.24,4.6-1.15,.94-.21,1.78,.18,2.69,.37,.52-.06,.86-.2,1.44,.07,1.63-.92,3.63-.61,5.36-.24,.42-.19,.94-.44,1.38-.64,.88,.33,1.59,.04,2.4-.02,.92,.23,1.79,.07,2.6-.32l1.24,.34c.93-.66,2.33-.26,3.33-.78,.9,.24,1.8,.49,2.69,.73,1.26-.67,2.48-.11,3.81-.16,2.03-.7,4.27,.19,6.25-.84,2.51,.65,5.11,1.82,7.61,.65,.55-.35,1.2,.28,1.7-.14,1.06-.29,2.21,.19,3.24-.46,1.9,.41,3.73,1.44,5.54,.8,.59-.08,1.11-.04,1.71,0,2.65-.97,5.26-.23,7.88,.57,1.93-.97,4.54,.35,6.73-.79,.87,.03,1.66,.41,2.48,.58,.97-.55,2.53-.53,3.07-1.49,.34-.44,1.07-.54,1.47-.95,2.41-1.14,5-2.15,7.15-3.75,1.49-1.4,3.91-1.84,5.64-2.67,.5,.16,.42-.45,.87-.51,.39-.05,.74-.26,1.2-.43,.2-.32,.27-1.18,.88-.95,.22,.09,.4,.01,.48-.15,.16-.34,.81-.38,.82-.82,0-.26,.38-.26,.6-.37,1.04-.51,1.26-1.38,2.49-1.69l.41-.9c2.44-.85,5.24-1.86,7.2-3.46l.4-.9c.81-.11,1.22-.95,1.97-.98,.82,.27,.68-.31,1.11-.72,.31-.09,.88-.24,1.34-.37,.19-.43,.33-.73,.44-.99,.87-.24,1.23-.79,2.01-1.03,.32-.17,.83-.16,.87-.58,.47-.22,1.22-.36,1.58-.67,.32-.78,1.44-.98,2.15-1.5,.69-.36,1.64,.28,2.19-.38,.21-.47,.76-.82,1.23-1.12,.52-.61,1.03-1.11,1.87-1.49,.73-.37,1.44-1.04,2.09-1.29,.23-.43,.53-.38,.93-.32,.7-1.21,2.09-2.06,3.45-2.55,.05-.33,.75-.56,1.01-.88,.91-.16,1.38-.74,2.17-1.06,.57-.11,.41-.62,.83-.81,1.32-.4,1.42-1.14,2.7-1.57l.5-1.12c1.88-.66,3.35-1.85,4.96-2.9,.98-.28,1.8-.87,2.61-1.35,.36-.69,1.02-1.1,1.87-1.34l.46-1.03c.67-.25,1.22-.45,1.61-.6,.63-1.45,2.47-1.7,3.81-2.34,1.57-.22,1.9-.28,2.45-1.91,1.08-.28,1.94-1.07,2.26-2.11,.5-.22,1.18-.3,1.26-.89,.56-.35,.99-.82,1.73-.97,.18-.41,.36-.81,.53-1.19,1.04-.21,1.08-.87,1.9-1.29,.03-.62,.71-.71,1.26-.94l.44-.99c.49-.13,1.06-.29,1.53-.41l.59-1.32c.54-.22,1.22-.31,1.27-.92,.59-.58,1.81-.74,2.01-1.57,.49-.19,.99-.37,1.48-.56,.46-.47,.28-1.12,1.08-1.44,.51-.77,.74-1.73,1.74-2.15,.32-.1,.36-.2,.2-.5-.16-.29-.11-.61,.1-.73,.87-.47,.83-1.25,1.31-1.87,.31-.12,.62-.23,.95-.36,.22-1.25,1.15-1.21,1.76-1.92,.96-.3,.96-1.58,1.45-2.3,1.14-.23,1.54-1.13,2.26-1.84,.93-.55,2.1-.88,2.86-1.59,.96,.1,1.72-.48,2.62-.73,1.42,.38,2.84,.77,4.29,1.16,.12,.22,.26,.47,.42,.76,.54,.15,1.11,.3,1.6,.43,.29,.43,.41,.86,.97,1.04,1.78,1.76,3.77,3.72,4.5,6.24,.08,.11,.1,.33,.02,.43-.26,.32,.13,.6,.04,.89-.13,.42,.33,.67,.42,1.02-1.43,2.48-1.86,5.98-4.18,7.58-.86,1.41-2.47,1.91-3.63,3.02-.57,.7-1.81,.71-2.05,1.66-1.46,.4-2.9,1.2-4.29,1.82-.43,1.16-.93,1.99-2.35,2.38l-.55,1.23c-.97-.08-1.65,.28-1.86,1.19-1.13,.22-1.74,.92-2.74,1.28l-.41,.92c-.76,.09-1.13,.65-1.73,.94-.03,.52-.54,.71-1.06,.84-1.4,.58-2.96,1.12-3.92,2.22-.62,.13-.96,.54-1.41,.82-.35,.22-.87-.16-1.07,.2-.36,.53-1.36,.45-1.41,1.17-1.07,.4-2.12,.79-3.14,1.18-.53,1.45-1.28,2.63-2.49,3.47-.42,.41-1.85,.3-1.68,1.19-.82,.15-1.38,.71-2.28,.61-.45,.22-1.19,1.12-1.7,1.35-.74,.44-1.84,.96-2.16,1.81-.54,.2-1.03,.39-1.55,.58l-.45,1.01c-.47,.13-1.05,.28-1.49,.4-.23,.42-.23,.77-.75,.86-1.73,1.01-3.82,1.53-5.41,2.77-.39,.48-1.2,.59-1.6,1.06-.24,1.02-1.99,.99-2.22,2.02-.06,.45-.5,.7-.95,.71-1.43-.02-2.11,1.05-3.46,1.35-.16,.74-.92,.85-1.6,1.06-1.34,.84-2.58,1.63-4.15,2.08l-.81,1.8c-.44,.23-.93,.33-1.28,.7-.57,.5-1.62,.26-1.82,1.31-.42,.13-.98,.31-1.49,.47-.09,.66-.75,.74-1.24,.99-.22,.3-.43,.51-.91,.33-.87,.37-1.39,.9-2.46,1.19-.19,.29-.27,1.17-.87,.93-.23-.09-.42-.01-.47,.15-.1,.34-.74,.29-.76,.67-.33,.21-1.01-.15-1.04,.42-.78,.29-1.53,.64-2.42,.66-.06,.51-.89,.67-.95,1.11-.07,.55-.84,.66-.98,1.12-.57,.09-.64,.49-.82,.81-2.12,.75-4.19,1.55-6,2.77-1.9,.4-3.05,1.6-4.61,2.53-.3,.6-1.6,.44-1.34,1.4,4.51-2.01,9.18,.8,13.66,1.69,.39-.15,.7-.26,1.02-.39,.88,.24,1.79,.48,2.69,.73,.37-.13,.74-.26,1.11-.39,1.07,.56,2.39-.07,3.34,.72,.95,.83,1.67,1.72,2.99,.95,1.94,2.11,5.59,1.62,7.86,3.04,1.7,1.29,2.93,.81,4.81,2.47,.55,.01,.47,.62,1.06,.64,.39,.02,.77,.19,1.12,.29,.72,1.46,2.81,1.99,3.44,3.48,.13,.29,.86,.36,.51,.84,1.57,1.19,2.09,3.25,2.99,4.87-.21,1.54,1.35,2.6,1.59,4.07-.19,.46,.2,.79,.41,1.17l-.55,1.22c.37,.44,.62,.91,.27,1.45,.27,.53,.09,1,.59,1.47l-1.34,3c.31,1.07,1.37,.49,2.2,.71,.36-.66,1.19-.51,1.81-.67,.44-.2,.86-.27,1.33-.08,1.45-.06,2.98,.07,4.39,.41,1.23-.17,2.54-.48,3.7-.89,1.62,.84,3.45-.07,4.89,.42,.09,.12,.32,.31,.4,.29,.94-.29,1.68,.21,2.6,.37,.92-.57,2.26-.18,3.32-.75,2.04,.74,4.09,1.05,6.05,.29,1.76-.26,3.63,.75,5.29,1.07,.62-.24,1.17-.44,1.54-.59,.64,.17,1.03,.28,1.58,.43,.42-.21,.93-.46,1.34-.66,1.06,.24,1.44,.93,2.58,1.04,1.12-.33,2.16,.44,3.23,.09,1.44-.14,2.8,.83,4.23-.07,.6,.16,1.24,.34,2.01,.55,.27-.15,.6-.33,.85-.47,.41,.11,.66,.18,.95,.26,1.64-1.06,3.25-.05,4.94,.32,1.13,.53,2.44-.44,3.65-.03,1.07-.71,2.11-.01,3.21,.19,.71-.16,1.52,.06,2.22,.27,.38-.14,.69-.26,1.05-.39,1.06,.46,2.11,.35,3.2,.2,1.55,.54,3.13,.46,4.69,.87,.46-.66,1.56-.51,2.35-.4,.57-.31,1.04,.03,1.53,.16,.66,.11,1.1-.24,1.73,.12,.49-.19,.98-.38,1.5-.58,1.32,.72,2.47,.07,3.79,.32,.6-.19,1.32-.09,1.93-.47,.53,.14,1.09,.3,1.59,.43,3.13-1.13,9.02,1.39,11.82,2.87,.12,.46,.66,.46,1.08,.62,.66,.46,1.28,1.07,1.73,1.82,1.08,.32,1.25,1.46,2.22,2.06,.18,.09,.35,.44,.27,.55-.33,.46-.05,.81,.19,1.19,1.75,2.13,.51,4.27-.54,6.46-.31,.08-.69,.19-.99,.27l-.31,.7c-.99,.4-1.81,1.02-2.91,1.35-.89-.14-1.52,.34-2.22,.61-.37,.14-1.02-.26-1.15,.36,0,.04-.37,.11-.51,.06-.98-.41-2.2,.25-3.23,.15-.67-.26-1.37-.11-2.1,0-.36,.26-.63-.25-.84-.41-2.47,.32-4.7-1.69-7.14-1.35-.77-.27-1.79-.14-2.24-.89-.38-.11-.77-.22-1.15-.33-.45,.26-.89,.12-1.33-.02-2.63,.28-5.4-.9-8.02-1.5-.95,.62-1.55,.06-2.53,.19-.49,.18-.89-.17-1.34-.22-1,.28-2.1,.28-3.05-.16-1.95-.51-3.86,.34-5.77-.54-.35,.12-.72,.25-1.09,.38-1.88-.51-3.6-1.22-5.51-.48-.92-.45-2.1-.22-3.08-.19-1.9-.39-3.86-.54-5.77-1.2-.33,.12-.64,.24-1,.37-.6-.16-1.23-.33-1.9-.52-.52,.25-1.04,.5-1.4,.67l-1.42-.39c-.49,.19-.98,.38-1.5,.58-.88-.24-1.77-.48-2.81-.76-.26,.15-.59,.34-.84,.48-1.13-.16-2.03-.89-3.03-.48-.68-.32-1.2,.54-1.89,.16-.6-.33-1.31,.12-1.91-.18-1.41,.25-2.83-.6-4.17,.22-1.03-.29-2.07-.55-3.1-.82-1.2,.21-2.34,.44-3.53,.04-.26,.15-.6,.33-.87,.48-1.17-.44-2.11-.05-3.18-.18-1.06,.34-2.04-.41-3.19-.58-.45,.21-.97,.46-1.38,.65-.57-.15-.95-.26-1.37-.37-.79,.66-1.75,0-2.62,.24-1.47,.06-2.79,0-4.23-.41-1.22,.91-2.55-.03-3.72,.68-1.58-.79-3.14,.49-4.72-.26-.6,.21-1.12,.57-1.76,.2-.66,.12-1.45,.21-2.05,.44-1.47-.46-2.1,.86-3.61,.03-.62,.63-1.55,.11-2.26,.44-.5,.49-.68,.91-1.55,1.11l-.4,.89c-.38,.14-.75,.38-1.12,.4-.54,.02-.38,.72-1.08,.54-.89-.12-1.15,.78-2.09,.94l-.54,1.2c-.64,.15-1.08,.55-1.77,.42-1.08,.29-1.85,1.37-3.29,1.22-.04,.42-.74,.39-.87,.8-.04,.14-.44,.22-.7,.29-.5,.12-.41,.61-.83,.81-2.17,1.03-4.05,2.12-6.39,2.66-1.13,.76-2.4,1.31-3.85,1.48-1.45,.29-2.75,1.3-4.27,1.44-.7-.07-1.21,.52-1.86,.5-.74-.33-1.31,.06-1.88,.3-1.02,.13-1.98,.32-3.02,.59-1.79,.91-3.84,1.17-5.77,1.44-.92-.07-1.76,.01-2.63,.48-2.18,.98-4.71,.61-6.94,1.34-1.44-.2-2.56,.2-4.06-.25-2.47,.98-5.44,.97-8.05,.86-3.03-1.27-7.28-.87-9.4-3.56-.51-.14-1.03-.28-1.52-.41-.43-.47-.47-1.11-1.21-1.42-.15-.06-.28-.28-.26-.42,.1-.63-.42-1.08-.7-1.64,2.03-3.7,2.98-8.59,5.87-11.52,.74-.27,1.13-1.02,1.38-1.74,.51-.21,1.07-.3,1.29-.74,2.68-1.74,5.88-3.26,9.1-4.05,.52,.14,.46-.27,.71-.38,.64,.07,1.25,.06,1.91,0,2.95-2.15,6.86-1.61,10.04-3.31,.92,.51,1.35-.21,2.21-.07,1.92,.52,3.93-.75,5.77-1.14,1.07,.29,2.11,.57,3.18,.86,2.5-1.13,4.95-1.84,7.64-1.7,1.03,.18,.95-1.45,2.12-1.07,1.11,.17,2.25-.55,3.39-.22,1.3-.23,2.47-.88,3.77-.64,.69-.25,1.51-.47,2.26-.34,.31-.12,.62-.23,1.01-.38,1.63,.65,2.76,.33,4.32,.49,1.2,.18,1.15-1.13,2.32-1.23,.5-1.12,.43-1.16,1.88-2.25,.06-.4,.8-.36,.83-.83,.02-.3,.24-.59,.39-.92,.76,.31,.88-.25,1.49-.51,.12-.02,.19-.27,.22-.42,0-.58-.35-1.17-.1-1.78,.09-.18-.18-.47-.28-.72-.61-.07-.54-.56-1.06-.95-.31-.08-.87-.24-1.37-.37-.73-1.27-1.58-2.34-2.95-2.87-.82-.15-1.63-.42-2.23-.93-.26-.15-.25-.51-.67-.52-.49-.01-.52-.45-.87-.57-1.16-.45-2.2-.16-3.47-.59-.58-.05-.46-.65-1.06-.66-.39-.01-.77-.2-1.15-.32-1.27-1.62-3.79-1.46-5.63-2.18-2.29-.87-4.62,.24-6.9-.86-.45,.27-1.02,.21-1.28-.06-1.02-.88-2.58-.85-3.81-1.32-.19,.18-.43,.48-.51,.45-1.21-.07-2.49-.22-3.62,.12-1.66-.45-3.37-.91-5-1.36-.83,.49-1.44,.17-2.31,.32-.2,.1-.16-.43-.44-.29-.34,.17-.66-.02-.96,.09-.59,.29-1.21,.47-1.59-.14-.65,.32-1.46-.28-2.09,.26-.21,.18-.6,.24-.91,.36q-.38,.63-1.38,1.02c-.13,.29-.27,.59-.39,.88-.88,.21-1.23,.78-2,1.02-.32,.17-.82,.16-.89,.57-.44,.4-1.29,.01-1.53,.49-1.43,1.42-4.11,1.63-5.95,2.6-.55,.73-1.74,.86-2.59,.96l-.81,1.81c-.58,.24-1.31,.36-1.31,.97-.82,.46-1.87,.51-2.41,1.19-1.79,.29-3.47,1.1-5.08,2.18-.65,.53-1.36,1.06-2.07,1.53-.21,.2-.27,.49-.72,.32-.63,.33-1.65,.3-2.03,.9-.16,.65-1.24,.51-1.44,1.19-.74,1.02-2.35,1.09-3.26,1.88-1.03,.22-2.26,.73-3.37,.78-.06-.01-.26,.12-.26,.19-.02,.43-.64,.51-.8,.83-.16,.31-.31,.59-.77,.66-.58,.09-.61,.51-.82,.81-5.18,2.05-10.16,4.65-15.4,6.3-.49,.77-1.73,.79-2.55,.97-1.57,2.22-4.78,2.28-6.7,4.25-1.99,.73-3.86,1.56-5.96,1.74-1.64,.92-3.22,1.85-5.09,2.4l-.28,.63c-1.24,.25-2.02,1.16-3.26,1.45-.94,1.61-3.89,1.13-4.75,2.79-2.88,1.43-6.23,1.62-9.12,2.96-.84,1.26-2.74,1.63-4.13,2.28-3.32,1.51-6.7,3.45-10.28,4.11-.73,.25-1.42,.67-2.22,.55l-.28,.63c-.34,.18-1-.17-1.08,.41-.37,.21-.88,.24-1.3,.25-.21,.27-.4,.55-.91,.33-4.53,1.99-9.56,3.68-13.96,5.66-.39-.13-.73,.04-.92,.2-2.02,1.39-5.25,1.25-7.15,2.92-.86,.32-1.71,.64-2.56,1-.09,.62-.78,.14-1.12,.37-.47,.34-1.31,.31-1.64,.85-.2,.1-.82,0-1.09,.18-.43,.01-.31,.66-.88,.47-.6-.19-.5,.39-.88,.47-.55,.45-1.09,.85-1.93,.45-1.04,.39-2.14,.81-3.25,1.21-.31,.11-.28,.69-.89,.39-4.31,1-8.39,3.12-12.61,4.24-.56,.7-1.46,.66-2.25,.78-.46,.17-.87,.51-1.49,.37-.86,.62-1.93,.84-2.93,1.05-.32,.09-.61,.21-.71,.51-.25,.16-.88-.17-.96,.28-.17,.49-.36,.84-.93,.94-.66-.05-1.22,.23-1.87,.44-.52,.19-1.29-.42-1.46,.31-1.26,.06-2.22,.11-3.1,1.14-.04,.41-.5,.5-.86,.58-1.52,.32-1.52,.31-2.94,1.1-.31,.27-.78-.21-1,.27-1.32,.86-3.36,1.4-4.88,1.68-1.23,.1-1.78,.6-3.03,.41-.63,.38-1.51,.21-2.24,.36-.17,.58-.91,.23-1.27,.48-.39,.27-.88,.17-1.32,.22-1.54,.43-3.06,.13-4.41,.67Z"/>
    <g>
      <path d="M324.58,255.49c.24-1.45,.47-2.91,.72-4.36,.23-1.38-.42-2.82,.34-4.21,.2-.36-.34-1.05-.31-1.58,.06-1.36-.38-2.79,.42-4.08-.88-1.31-.27-2.78-.43-4.16-.15-1.34,1.02-2.18,1.34-3.23,.28-.92-.59-2.12,.16-3.31,.42-.67,.54-1.42,1.57-1.45,.37,0,.71-.43,1.1-.59,.46-.19,1.11-.57,1.41-.41,.67,.37,1.16,.84,1.79-.03,.05-.06,.58,.26,.9,.35,.9,.25,1.8,.46,2.7,.71,.57,.16,1.17,.27,1.67,.56,.52,.31,1.29,.78,1.33,1.23,.08,1,1.02,.79,1.39,1.3,.35,.48,.93,.74,1.02,1.49,.06,.53,.64,.99,.88,1.52,.11,.24-.03,.61-.09,.91-.07,.33-.35,.7-.26,.96,.62,1.82-1.02,3.08-1.11,4.72-1.66,.61-1.24,2.57-2.38,3.61-1.05,.96-1.71,2.34-2.55,3.53-.1,.15-.38,.28-.36,.38,.23,1.5-1.26,1.64-1.93,2.42-.49,.56-.19,.44,.24,.75,.82,.59,1.63,1.39,2.05,2.29,1.01,2.14,2.72,3.75,4,5.67,1.72,2.57,3.89,4.67,6.66,6.11,.28,1.44,1.93,1.18,2.61,2.09,.83,1.1,2.16,1.37,3.22,2.09,.98,.67,1.98,1.32,3.01,1.92,1.55,.9,2.84,2.17,4.49,2.94,.53,.25,.8,1.08,1.17,1.65,.09,.13-.15,2.18-.27,2.23-1.01,.41-2.01,.84-3.05,1.18-.53,.17-.99-.06-1.42-.51-1.93-2.03-4.16-3.67-6.6-5.03-.53-.3-.89-.89-1.36-1.32-.63-.58-1.08-1.45-2.19-1.31-.24,.03-.56-.38-.81-.61-2.51-2.33-5.54-4.15-7.29-7.25-.07-.12-.3-.25-.43-.23-1.23,.18-1.75-.83-2.34-1.53-.71-.83-.97-2.23-1.81-2.69-1.07-.59-1.63-1.65-2.62-2.17-1.08-.57-.6-1.8-1.33-2.46-.13-.12-.26-.25-.39-.38-.09,.14-.25,.28-.26,.43-.2,1.91-.17,3.88-.62,5.73-.35,1.48-.47,2.92-.5,4.4,0,.31-.26,.61-.35,.93-.27,.99-1.41,1.92-.19,3.02,.09,.08,.08,.39,0,.52-1.24,2.16,.11,4.7-1.03,6.91-.25,.49-.32,1.36,.83,1.53,.49,.07,.93,.81,1.29,1.31,.62,.88,.13,2.12-.82,2.96-.8,.7-1.77,1.05-2.59,1.62-1.02,.71-1.7,.41-2.59-.04-.71-.36-1.16-.75-1.06-1.6,.22-1.82-.46-3.72,.53-5.49,.15-.28,.02-.71,.02-1.07,0-1-.36-2.22,.09-2.93,.63-.99,.23-1.91,.48-2.81,.24-.88,.7-1.71,.95-2.59,.15-.5,.07-1.05,.12-1.58,.18-2.28,.09-4.62,.64-6.81,.36-1.41,.34-2.76,.27-4.17Zm7.36-21.45c-.96,0-1.68-.01-2.4,.01-.15,0-.29,.17-.43,.26,.13,.13,.23,.3,.39,.38,1.55,.72,1.81,2.01,1.84,3.56,.02,.83-.4,1.52-.33,2.36,.07,.73-.3,1.49,.27,2.17,.04,.05,.02,.21-.03,.25-.85,.59-.36,1.49-.51,2.23-.15,.74-.37,1.48-.53,2.22-.03,.15,.05,.33,.09,.5,.15-.09,.37-.15,.44-.28,1.13-2.22,3.33-3.68,4.25-6.11,.34-.9,1.1-1.58,1.33-2.73,.2-1.02,.37-2.02,.4-3.06,0-.22-.19-.65-.28-.65-1.68,.05-2.84-2.07-4.48-1.12Z"/>
      <path d="M188.2,231.72c1.5-.24,2.06,1,2.94,1.69,.81,.63,1.02,1.41,.88,2.36-.19,1.29-1.38,1.61-2.28,2-.49,.21-1.17,.74-2.01,.14-.51-.36-1.55-.2-2.17,.47-2.64-.39-4.85,.99-7.07,1.95-2.14,.92-4.27,1.97-6.28,3.28-1.53,1-3.26,1.8-4.73,2.93-1.13,.87-2.12,1.92-3.12,2.94-.09,.09,.15,.78,.29,.8,1.95,.28,3.76,1.16,5.8,1.17,1.83,.01,3.75-.61,5.5,.46,.95-1.2,1.87-.03,2.8,.05,1.03,.09,2.15-.39,3.09,.4,.88-.84,1.65,.18,2.49,.13,1.02-.06,1.78,.44,2.56,1.05,.43,.34,1.04-.7,1.73,0,.37,.37,1.09,.56,1.64,.54,1.14-.04,1.88,.75,2.81,1.12,1.74,.69,1.97,2.47,2.75,3.84,.17,.31-.8,2.67-1.16,3.03-2.93,3.03-6.04,5.77-9.77,7.87-2.06,1.16-3.91,2.77-5.95,4.03-1.44,.88-2.75,1.94-4.42,2.46-.77,.24-1.31,1.18-2.07,1.55-2.32,1.11-4.36,2.63-6.49,4.02-1.4,.91-2.95,1.6-4.47,2.31-.71,.33-1.47,.44-2.21-.15-.77-.62-1.41-1.5-.91-2.28,.67-1.05-.02-2.51,1.24-3.32,.46-.3,.8-.69,1.41-.55,.53,.12,1.13,.44,1.57,.29,1.58-.55,3.15-1.16,4.62-1.94,1.28-.68,2.33-1.81,3.64-2.38,1.69-.73,2.89-2.12,4.49-2.93,2.3-1.16,4.24-2.86,6.4-4.22,1.4,.13,1.64-1.24,2.43-1.88,.88-.71,1.79-1.39,2.65-2.12,.61-.52,1.1-1.27,1.79-1.59,.61-.28,1.36-.61,1.16-1.15-.24-.65-.94-1.34-1.59-1.57-1.6-.55-3.14-1.52-4.97-1.14-1.62-.99-3.57-.18-5.29-1.01-.88-.42-2.18-.26-3.21-.02-.91,.22-1.56-.76-2.61-.15-.61,.35-1.78-.33-2.71-.43-.9-.09-1.81-.02-2.72-.02-1,0-2.08,.26-2.97-.05-1.83-.64-4.05-.65-5-3-.43-1.08-.56-1.98-.07-2.95,.57-1.13,1.3-2.17,1.83-3.31,.56-1.21,1.81-1.65,2.64-2.57,1.37-1.51,3.55-2.06,5-3.58,2.11-.28,3.19-2.55,5.4-2.74,.66-.06,1.21-1,1.91-1.24,.65-.22,1.25-.33,1.88-.75,.87-.58,2.08-.62,3.09-1.04,2.02-.83,3.97-1.81,6.12-2.29,.58-.13,1.14-.33,1.71-.5Z"/>
      <path d="M453.68,260.34c-.11-2.68,.6-5.29,2.4-7.09,1.81-1.81,3.64-4.1,6.71-4.01,1.01-.73,2.18-.59,3.31-.52,1.4,.08,2.69,.71,3.63,1.68,1.4,1.44,1.1,3.64-.74,4.94-1.71,1.21-3.63,2.13-5.49,3.12-.66,.35-1.42,.51-2.13,.76-.32,.11-.64,.35-.94,.32-.38-.04-.74-.29-1.11-.44-.07,.51-.24,1.04-.18,1.54,.08,.66,.15,1.56,.58,1.88,.85,.64,1.91,1.07,2.95,1.35,.76,.21,1.85-.27,2.38,.11,.86,.62,1.38-.21,2.05-.07,.73,.15,1.7,.66,2.13,.37,.81-.55,1.6-.43,2.31-.32,1.47,.23,2.74-.61,4.13-.57,1.35,.04,2.54-.4,3.68-.97,.89-.44,1.83,.05,2.81-.46,.93-.49,2.28-.12,3.43-.24,1.1-.11,1.93-.92,3.07-1.14,2.16-.41,4.46-.26,6.49-1.37,.35-.19,.97,.42,1.34-.28,.38-.72,1.12-.33,1.7-.46,.57-.13,1.12-.35,1.68-.53,.56-.18,1.11-.4,1.68-.53,.58-.13,1.2,.16,1.77-.36,.26-.24,.83-.19,1.26-.18,.65,.02,1.14-.14,1.68-.59,1-.83,1.82-.71,2.76,.16,.27,.25,.52,.51,.77,.77,1.25,1.26,1.06,2.55-.55,3.44-.44,.24-.93,.52-1.4,.53-1.75,.02-3.31,.83-4.99,1.09-1.69,.26-3.34,.6-4.99,1.06-1.4,.4-2.92,.41-4.38,.59-.34,.04-.7,.06-1.03,.13-.64,.15-.94,.95-1.92,.65-.6-.18-1.45,.57-2.22,.72-.78,.15-1.61,.01-2.4,.14-.74,.12-1.45,.41-2.17,.66-.32,.11-.61,.39-.92,.39-2.98,0-5.79,1.25-8.79,1.13-.83-.03-1.57,.74-2.49,.51-.67,1.08-1.72,.11-2.62,.46-.94,.37-2.14,.08-3.23,.08s-2.18,.07-3.26-.03c-.68-.06-1.33-1.11-2.02,.02-.04,.07-.38,.05-.51-.03-1.81-1.14-4.07-1.73-5.24-3.66-.59-.97-.71-2.24-.98-3.38-.1-.43-.02-.9-.02-1.35Z"/>
      <path d="M17.96,231.98c-.13-1.08,.17-2.19-.49-3.3-.36-.6-.12-1.59-.05-2.4,.19-2.39,1.96-3.29,3.97-1.99,.67,.43,1.22,1.06,1.75,1.66,.2,.23,.34,.72,.23,.96-1,2.13-.33,4.38-.51,6.57-.05,.63-.03,1.27,0,1.9,.05,1.14-.22,2.2-.5,3.31-.7,2.69-1.87,5.24-2.28,8.03-.17,1.18-1.01,2.28-1.57,3.4-1.12,2.25-1.85,4.66-3.22,6.82-.9,1.42-1.09,3.26-2.58,4.35-.11,.08-.22,.34-.17,.45,.5,1.29-.94,1.82-1.08,2.81-.14,.99-.61,1.74-1.22,2.5-.35,.43-.48,1.07-.59,1.64-.26,1.35-1.4,2.27-1.59,3.7-.21,1.57-1.23,2.91-1.69,4.44-.3,1-.44,2.11-.38,3.19,.02,.41-.11,.85-.26,1.24-.42,1.11-.53,2.24,.05,3.28,.42,.77,.34,1.35-.3,1.86-.61,.48-1.02,1.12-1.84,1.45-1.71,.68-2.95,.16-3.06-1.65-.05-.79-.03-1.56-.56-2.21,.73-.81,.46-1.81,.56-2.76,.1-.93,.22-1.89,.56-2.75,.47-1.19,1.1-2.3,1.06-3.63,1.2-1,.7-2.82,1.85-3.85,.17-.15,.23-.44,.33-.67,.54-1.31,.9-2.74,1.65-3.92,.73-1.15,.61-2.73,1.87-3.58,.07-1.86,2.03-2.94,1.98-4.9-.02-.56,.73-1.11,1.02-1.72,.74-1.59,1.62-3.13,2.17-4.8,.55-1.67,1.6-3.14,1.73-5.01,.06-.92,.96-1.71,1.11-2.8,.07-.5,.51-1.05,.46-1.69-.03-.36-.16-.87,.02-1.06,1.41-1.46,.74-3.34,1.15-4.97,.33-1.31,.4-2.57,.47-3.9Z"/>
      <path d="M42.8,257.38c-.7,.15-1.57-.34-2.22,.45-.09,.11-.58,.09-.7-.04-.67-.78-1.53-.3-2.29-.4-1.29-.16-2.6,.23-3.88-.49-.49-.28-1.39,.25-2.1,.25-.68,0-1.35-.26-2.03-.3-.77-.04-1.48,.14-2.25,.44-.95,.36-2.15,.16-3.22,.07-1.23-.1-2.06-1.49-1.52-2.66,.35-.74,.14-1.78,1.13-2.22,.69-.31,1.33-.99,2-1,.76-.01,1.5-1.43,2.27-.1,.85-.96,1.71-.02,2.52-.07,1.15-.07,2.15,.04,3.25,.34,1.08,.3,2.28,.15,3.41,.31,1.04,.15,1.93,.9,3.13,.05,.76-.54,2.12,.41,2.99-.6,.04-.04,.18,0,.26,0,1.59-.21,1.52-.21,1.6-1.6,.13-2.19,.25-4.38,.58-6.54,.12-.77,.71-1.86,1.33-2.06,.89-.29,2.15-.53,2.92,.64,.47,.72,1.05,1.37,1.51,2.09,.17,.27,.27,.73,.15,1-.76,1.77-.63,3.7-1.06,5.52-1.16,.53,.61,1.41-.29,2.19-.43,.37-.17,1.5-.26,2.29-.11,.93,.41,1.97-.52,2.78-.13,.12-.12,.59,0,.78,.46,.69,.34,1.19,.09,2.03-.53,1.81-.37,3.81-.68,5.7-.35,2.19-.64,4.52-2.62,5.92-.72,.51-1.67,1.2-2.74,.74-1.61-.69-2.09-1.65-1.65-3.31,.17-.64,.51-1.23,.75-1.86,.48-1.25,1.24-2.49,1.32-3.76,.12-1.84,.87-3.57,.68-5.47-.1-1.05-.41-1.23-1.28-1.12-.18,.02-.36,0-.59,0Z"/>
      <path d="M269.81,264.19c-.2-1.42,.43-3.14-.52-4.73-.12-.21,.13-.64,.21-.97,.1-.41,.4-.9,.27-1.22-.83-1.96-.77-3.85,0-5.81,.37-.94-.25-2.01,.5-3.06,.97-1.38,1.34-1.68,2.84-1.04,1.07,.46,1.9,1.06,2.3,2.26,.25,.76,.74,1.4,1.86,1.27,2.13-.25,3.98,.57,5.88,1.52,2.12,1.06,3.16,2.99,4.48,4.68,.41,.53,.28,1.63-.16,2.52-.51,1.04-.62,2.2,.46,3.13,.22,.19,.3,.6,.35,.92,.12,.79,.52,1.23,1.35,1.32,1.42,.14,2.32,1.12,3.2,2.09,.53,.59,.58,1.24-.05,1.85-.46,.44-.82,1.07-1.36,1.3-.94,.4-1.75,1.03-3.06,.28-1.19-.67-2.41-1.57-3.88-1.75-.19-.02-.38-.26-.52-.44-.26-.34-.4-.91-.72-1.03-2.95-1.13-2.58-3.63-2.51-5.97,.01-.43,.55-.84,.82-1.27,.42-.68,.37-1.55-.32-1.81-1.56-.6-2.92-1.97-4.93-.91-1.43,.75-1.51,.54-1.6,1.9-.06,.86,.36,1.78-.31,2.58-.07,.08,.04,.44,.17,.54,.26,.2,.6,.29,.89,.46,1.03,.61,2.01,1.75,1.86,2.63-.2,1.18-.62,2.65-2.01,3.35-.99,.5-1.78,1.3-3.09,1.12-1.52-.21-2.36-.92-2.39-2.51-.02-.99,0-1.99,0-3.2Z"/>
      <path d="M79.94,253.19c.24,.95-.52,1.69-.04,2.67,.36,.73,.1,1.78,.06,2.68-.04,.87-.2,1.74-.21,2.61,0,.7,.15,1.39,.22,2.09,.03,.27,.12,.67-.01,.79-1.2,1.11-.2,2.1,.24,3,.29,.58,.45,.9-.07,1.34-.28,.23-.52,.51-.77,.76-.67,.68-1.5,1.56-2.4,1.15-1.19-.53-2.65-1.1-2.44-2.97,.08-.72-.49-.99-.96-.49-1.11,1.16-2.64,1.53-3.96,2.26-.8,.45-1.73,.53-2.37-.31-.47-.62-1.25-.29-1.65-.6-1.16-.91-1.98-2.14-2.45-3.57-.18-.56-.28-1.16-.56-1.67-1.46-2.6-1.33-5.14-.22-7.88,.42-1.03,.85-1.9,1.64-2.57,1.71-1.43,3.46-1.43,5.03-.52,.9,.53,1.85,.96,2.43,1.98,.31,.53,1.08,.8,1.65,1.17,.58,.37,.97,1.55,1.62,1.1,.51-.36-.52-1.2-.6-1.78-.18-1.35-.43-2.77,.41-4.1,.75-1.17,1.64-1.5,2.78-.77,.36,.23,.67,.56,1.05,.75,1.24,.62,1.9,1.54,1.6,2.87Zm-12.14,4.81c-.11,.07-.33,.15-.33,.22,0,1.62-.31,3.3,.9,4.69,.4,.45,.76,.63,1.31,.14,.88-.78,1.04-1.32,.39-2.24-.59-.84-1.24-1.62-1.88-2.43-.11-.14-.25-.25-.39-.39Z"/>
      <path d="M360.11,259.47c-.1-1.49,.39-3.19,.85-4.97,.61-2.37,2.59-2.78,4.09-3.91,.11-.08,.4,0,.56,.08,.45,.23,.86,.55,1.33,.73,.63,.24,1.35,.63,1.93,.5,.97-.21,.39-1.17,.48-1.79,.16-1.22,1.18-1.77,1.94-2.43,.58-.5,1.32,.15,1.89,.49,1.22,.74,2.21,1.55,2.25,3.27,.03,1.2,.66,2.41,1.11,3.58,.42,1.09,.3,1.6,.54,2.61,.24,1.01,.2,1.84-.04,2.82-.23,.94-.05,1.97-.05,2.97v3.25c0,.18,0,.36,0,.54,.01,.54,1.09,.85,.29,1.57-.96,.87-1.75,1.99-3.17,2.16-.3,.03-.71-.1-.94-.3-.93-.82-1.69-1.77-1.61-3.12,.08-1.2-.05-2.36,.47-3.6,.69-1.67-.53-3.41-.48-5.16,0-.06-.13-.2-.17-.19-.8,.18-1.6,.38-2.4,.57,.03,.13,.03,.29,.11,.38,.3,.33,.66,.62,.95,.97,.65,.79,.6,1.79-.09,2.58-1.77,2-4.03,2.2-6.46,1.73-.5-.1-.99-.25-1.48-.35-1.03-.22-1.83-1.13-1.86-2.19-.02-.81,0-1.63,0-2.79Zm5.79-.29c.05-.95,1.25-.34,1.07-1.16-.08-.39-.46-.73-.7-1.09-.48,.4-.91,.83-.72,1.53,.05,.18,.16,.35,.34,.72Z"/>
      <path d="M426.48,257.38c0-1,.03-1.99,0-2.99-.1-2.57,.93-5.05,.58-7.65-.05-.35,.32-.76,.51-1.13,.56-1.06,1.39-1.19,2.53-.76,1.18,.44,1.78,1.44,2.59,2.23,.28,.27,.23,.95,.19,1.43-.03,.4-.29,.78-.4,1.18-.04,.14,.08,.32,.12,.48,.13-.04,.31-.03,.38-.12,.79-.98,1.67-1.11,2.82-.56,.39,.18,1.04-.27,1.56-.24,.48,.03,.93,.4,1.41,.5,1.69,.33,2.71,1.58,3.74,2.75,.84,.95,.87,2.19,.87,3.44,0,1.38-.21,2.74,.44,4.15,.57,1.22-1.04,2.96-2.66,3.25-2.02,.36-3.23-.64-3.26-2.7,0-.9,0-1.81,0-2.71-.02-1.97-.75-2.75-2.68-2.7-.55,.01-1.51-.46-1.61,.38-.12,1.04-1.87,1.61-.81,2.94,.14,.18,.26,.65,.19,.7-.74,.53-.47,1.28-.53,1.97-.15,1.67-1.86,3.21-3.6,3.21-.6,0-1.64,0-1.72-.25-.24-.7-.81-1.27-.71-2.18,.17-1.52,.05-3.07,.05-4.61Z"/>
      <path d="M200.6,264.68c.22-1.36,.31-2.77,.72-4.08,.28-.86,1.01-1.58,1.59-2.32,.85-1.1,1.54-2.55,2.67-3.17,1.74-.95,3.41-2.34,5.52-2.34,.81,0,1.74,.38,2.41,.87,1.01,.75,1.82,1.75,2.72,2.65,.06,.06,.19,.14,.18,.19-.49,2.23,1.72,2.54,2.67,3.74,.76,.96,1.59,1.86,2.29,2.86,.72,1.02,.28,2.86-.81,3.52-.64,.39-1.35,.68-2.04,.97-.6,.25-2.18-.42-2.51-1.33-.34-.94-1.04-1.45-1.68-2-.63-.53-1.31-1.02-2.3-.06-1,.97-2.54,1.24-3.73,2.11-1.12,.82-2.58,1.17-3.86,1.79-1.11,.53-2.02-.06-2.94-.45-.9-.39-.79-1.3-.78-2.1,0-.27,0-.54,0-.81-.04,0-.09-.02-.13-.02Z"/>
      <path d="M394.67,266.15c-1.39-.17-3.23-.3-5.02-.67-1.16-.24-1.81-1.22-2.36-2.27-.83-1.58-1.23-3.22-1.06-4.99,.02-.25,.04-.55,.17-.74,1.17-1.66,2.23-3.4,3.98-4.56,.94-.62,1.82-1.35,2.66-2.11,.6-.54,1.15-.79,1.87-.25,.69,.52,1.47,.95,2.06,1.55,1.31,1.32,1.26,2.31-.09,3.55-.3,.28-.74,.4-1.1,.62-.87,.53-1.8,1-2.57,1.65-.61,.52-1.01,1.28-1.5,1.93,.71,.25,1.42,.71,2.13,.71,.93,0,1.97,.47,2.83-.34,.89-.83,1.81,.44,2.8-.03,.82-.39,1.8-.5,2.72-.64,.29-.05,.67,.13,.94,.32,.36,.26,.64,.63,.97,.94,.73,.68,1.55,1.35,1.14,2.51-.44,1.27-1.61,1.94-2.74,2.12-2.43,.39-4.91,.45-7.83,.69Z"/>
      <path d="M234.56,242.85c-1.11,1.38,.86,3.13-.64,4.47,1.19,1.92,.15,4.03,.55,6.01,.35,1.73,1,3.41,1.3,5.15,.16,.9,.36,1.68,.81,2.49,.38,.7,.5,1.61,.67,2.45,.34,1.69-1.17,1.77-1.87,2.45-.65,.64-2.26,.13-3.1-.6-.8-.69-1.31-1.43-1.09-2.55,.18-.97-.44-1.89-.44-2.76,0-1.02-1.25-2.05-.09-3.08-.67-.92-.55-1.99-.54-3.03,0-1.09,.42-2.47-.1-3.19-.75-1.03,.06-2.19-.68-3-.81-.88-.19-1.97-.64-3-.66-1.53-.66-3.39-.71-5.12-.04-1.29,.4-2.52,1.43-3.47,.64-.6,1.28-.6,1.86-.06,1.4,1.33,2.93,2.58,2.7,4.87-.06,.61,.38,1.27,.61,1.96Z"/>
      <path d="M109.88,263.92c.14-.78-.32-1.7,.48-2.47,.19-.18-.02-.82-.11-1.24-.07-.32-.32-.61-.36-.93-.21-1.73-.45-3.45-.53-5.19-.06-1.22,.85-2.54,1.61-2.68,1.46-.28,3.1,.46,3.82,1.59,.56,.88,.53,1.81,.53,2.76,0,.5,.14,.55,.59,.25,.95-.65,2.01-.89,3.19-.83,.64,.03,1.57-.67,1.88-.42,.67,.54,1.32,.39,2.01,.46,1.81,.2,2.92,1.31,3.63,2.88,.27,.6-.51,2.11-1.33,2.54-1.28,.66-2.66,.93-3.98,.25-1.56-.8-2.84,.21-4.22,.49-.67,.14-1.13,1.51-.52,2.29,.67,.87,.05,1.24-.16,1.8-.75,1.97-3.61,2.73-5.88,1.47-.31-.17-.55-.68-.61-1.07-.1-.61-.03-1.26-.03-1.95Z"/>
      <path d="M407.44,267.04c.05-.14,.28-.77,.54-1.38,.79-1.84,1.59-3.67,2.38-5.51,.1-.23,.29-.44,.32-.68,.2-1.82,.2-3.67,.59-5.45,.68-3.07,.44-6.16,.51-9.25,.01-.66,1.46-2.51,2.03-2.58,.22-.03,.47,.15,.69,.26,.44,.24,.86,.54,1.31,.75,2.57,1.18,2.1,1.88,1.73,3.68-.1,.48,.37,1.04-.26,1.63-.43,.4-.06,1.55-.32,2.26-.26,.71-.52,1.28,.13,1.88,.03,.03-.07,.26-.15,.37-1.03,1.28-.88,2.8-.78,4.26,.06,.93-.39,1.66-.59,2.48-.1,.4-.51,.76-.5,1.13,.02,1.58-.58,2.97-1.03,4.45-.69,2.26-2.18,3.53-4.11,4.41-1.61,.73-2.53-.14-2.5-2.72Z"/>
      <path d="M255.46,264.43c-1.36-.98-3.95-.52-4.81-3.07-.29-.88-.57-2.58-.43-3.71,.07-.53,.07-1.09,0-1.62-.17-1.38,.28-2.51,1.08-3.62,1.22-1.7,2.39-1.93,4.53-1.16,1.83,.67,3.05,1.99,4.31,3.31,.26,.27,.32,.77,.42,1.17,.14,.58,.28,1.16,.35,1.75,.06,.48,.18,1.07-.03,1.45-.75,1.42,.34,3.46-1.67,4.48-1.09,.55-2.12,1.07-3.76,1.03Z"/>
      <path d="M100.1,254.96c-.87,1.39-.09,3.51-1.02,5.35-.15,.29-.21,.82-.05,1.03,.63,.81,.84,1.51,0,2.3-.14,.13-.13,.62,0,.78,.7,.85,.16,1.53-.29,2.16-.62,.86-1.54,1.4-2.56,1.63-.46,.1-1.22,.03-1.47-.27-.5-.62-1.21-1.63-1.01-2.16,.94-2.46,.1-4.96,.41-7.41,.22-1.73,.75-3.41,.57-5.19-.07-.64,1.05-1.65,1.71-1.77,1.8-.33,3.68,1.25,3.71,3.56Z"/>
      <path d="M90.14,242.8c-.02-1.17,.5-2.08,1.12-2.91,.48-.65,1.08-1.02,2.03-1.02,1.46,0,2.93-.32,4.4-.49,.65-.08,1.23,0,1.66,.6,.55,.78,1.15,1.51,1.71,2.28,.04,.06-.1,.24-.14,.37-.53,1.52-1.69,2.5-3.18,2.65-1.32,.14-2.49,.53-3.7,.95-1.49,.51-2.55,.29-3.3-.77-.33-.46-.4-1.1-.59-1.66Z"/>
      <path d="M413.32,228.08c1.29,.2,2.41,1.27,3.34,2.55,.16,.22,.09,.74-.06,1.02-.95,1.8-3.82,2.31-5.38,.99-.44-.37-.76-2.62-.46-3.28,.27-.6,1.48-1.32,2.56-1.29Z"/>
    </g>
  </g>
</svg>