<?xml version="1.0" encoding="utf-8"?>
<!-- Generator: Adobe Illustrator 16.0.3, SVG Export Plug-In . SVG Version: 6.00 Build 0)  -->
<!DOCTYPE svg PUBLIC "-//W3C//DTD SVG 1.1//EN" "http://www.w3.org/Graphics/SVG/1.1/DTD/svg11.dtd">
<svg version="1.1" id="_レイヤー_2" xmlns="http://www.w3.org/2000/svg" xmlns:xlink="http://www.w3.org/1999/xlink" x="0px"
	 y="0px" width="640px" height="480px" viewBox="0 0 640 480" enable-background="new 0 0 640 480" xml:space="preserve">
<path id="logo" d="M107.933,283.995c-1.178-0.326-2.231-0.602-3.459-0.94c-0.301,0.201-0.689,0.451-0.902,0.59
	c-1.291-0.352-2.269-0.614-3.284-0.891c-0.526-1.541-2.306-1.315-3.572-1.805c-0.902-1.291-2.068-2.457-2.82-3.936
	c0.226-2.068,1.304-4.187,2.206-6.154c0.263-0.15,0.627-0.339,0.614-0.352c-0.389-1.554,1.191-3.021,1.642-4.675
	c0.351-0.075,0.84-0.188,1.203-0.276c0.351-0.776,0.627-1.403,0.903-2.005c0.702-0.288,1.366-0.577,2.03-0.865
	c0.163-0.689,1.441-0.426,1.592-1.128c0.477-0.301,1.003-0.413,1.604-0.338c2.783-2.356,6.781,0.05,9.915,0.626
	c4.525-1.616,9.2-1.291,13.775-1.98c0.175-0.376,0.338-0.752,0.514-1.141c2.92-1.616,6.342-1.403,9.338-2.569
	c0.489-0.752,2.018-1.229,2.996-1.128c4.663-1.128,8.185-4.487,13.136-4.901c0.978-0.701,2.381-0.438,3.397-1.077
	c1.166-0.99,2.72-1.98,4.387-1.881c0.602-0.325,1.404-0.351,1.855-0.952c0.301-0.401,1.291-0.313,1.504-0.928
	c0.012-0.037,0.175-0.101,0.226-0.088c5.064-1.304,10.366-3.735,15.542-5.227c3.058-0.552,5.791-2.782,9.037-3.059
	c2.896-1.805,7.069-2.832,10.542-4.299c0.338,0.088,0.664,0.176,1.028,0.275c1.529-0.752,3.296-1.391,4.7-2.432
	c1.354-0.338,2.507-1.366,3.961-1.178c0.765-0.966,2.457-0.853,3.208-1.742c5.139-2.395,10.366-4.863,15.806-6.393
	c1.78-0.352,3.296-1.604,4.963-2.219c0.226-0.99,1.479-0.965,2.281-1.429l0.326-0.728c1.592-0.814,3.472-1.04,5.064-1.642
	c0.376-0.477,2.532-1.555,3.196-1.768c3.547-1.491,7.809-1.617,11.005-4.148c1.091-0.389,2.168-0.777,3.171-1.141
	c0.213-1.454,2.457-0.891,2.67-2.257c1.805-1.04,3.685-1.805,5.678-2.507c1.366-0.188,2.068-1.479,3.422-1.554
	c1.417,0.088,2.256-1.065,3.598-0.414c0.79-0.877,2.043-1.579,3.158-1.755c0.289-0.539,0.289-1.002,0.94-1.077
	c0.978-0.489,1.817-1.153,2.908-1.354l0.514-1.165c0.489-0.226,1.09-0.339,1.316-0.64c0.539-0.589,1.466-0.075,2.018-0.802
	c0.426-0.552,1.178,0,1.479-0.677c0.477-0.515,1.968-0.364,2.144-1.241c0.376-0.652,1.454-0.664,2.093-1.028
	c0.25-0.952,1.441,0.15,1.667-1.278c2.269-0.877,4.738-1.278,7.006-2.294c0.138-0.864,1.567-1.228,2.582-1.93
	c1.83-0.502,3.184-1.692,5.039-2.193c0.564-0.276,1.366-0.264,1.68-0.815c0.313-0.526,1.316-0.301,1.542-0.927
	c0.05-0.139,0.389-0.226,0.602-0.313c2.52-0.891,4.801-2.118,7.283-2.732c-0.777-1.404,1.667-2.043,2.645-2.57
	c0.501-0.688,1.491-0.789,2.243-1.178c0.765-1.329-2.257-0.501-2.833-0.176c-1.604-0.438-3.221-0.877-4.888-1.328
	c-0.577,0.238-1.178,0.488-1.805,0.752c-0.828-0.226-1.617-0.438-2.419-0.652c-0.677,0.326-1.329,0.627-1.629,0.777
	c-2.218-0.413-3.635,0.363-5.715-0.589c-0.665,0.251-1.291,0.489-1.931,0.727c-1.592-0.551-2.958-0.852-4.512-0.363
	c-0.89,0.264-1.604-0.188-2.381,0.113c-0.627,0.488-1.441-0.038-2.118,0.188c-1.279,0.614-2.758,0.363-4.049-0.075
	c-0.414,0.15-0.79,0.301-1.291,0.489c-0.777-0.213-1.654-0.451-2.457-0.664c-0.627,0.263-1.078,0.338-1.366,0.902
	c-0.715-0.188-1.354-0.364-2.068-0.564c-0.326,0.15-0.689,0.326-1.103,0.514c-0.765-0.088-1.441-0.4-2.168-0.526
	c-1.141,0.602-2.068,0.64-3.296,0.589c-1.279,0.527-2.005,0.452-3.56,0.101c-1.104,0.652-2.156,0.552-3.284,0.614
	c-0.614,0.464-1.492,0.101-2.118,0.438c-1.404,0.038-2.194,0.515-3.735-0.2c-0.338,0.188-0.752,0.413-1.053,0.589
	c-0.514-0.138-0.828-0.226-1.366-0.376c-0.539,0.226-1.204,0.502-1.868,0.777c-1.329-0.514-2.607,0.664-4.061,0.188
	c-1.016,0-2.056,0.389-3.109,0.013c-1.491-0.301-2.92,0.702-4.475,0.464c-2.306,0.502-4.801,0.126-7.044,1.065
	c-0.677-0.188-1.316-0.363-1.955-0.526c-1.203,0.702-2.557,0.627-3.748,1.091l-1.454-0.389c-0.614,0.176-1.141,0.602-1.88,0.389
	c-1.053,0.188-2.056,0.325-3.033,0.827c-0.326-0.088-0.652-0.176-0.978-0.264c-0.877,0.627-1.855,0.15-2.82,0.439
	c-1.028,0.413-2.081,0.25-3.096,0.2c-0.376,0.15-0.79,0.413-1.153,0.376c-2.344,0.088-4.5,1.027-6.819,1.354
	c-2.281-0.275-4.45,0.188-6.681-0.301c-0.915,0.376-1.993,0.614-3.071,0.438c-0.338-0.162-0.552-0.037-0.79,0.238
	c-0.715,0.715-1.88,0.438-2.658,0.815c-0.839-0.101-1.592,0.514-2.344,0.325c-0.577-0.363-1.141,0.288-1.68-0.013
	c-0.288,0.201-0.576,0.401-0.865,0.614l-0.915-0.25c-1.492,0.651-3.058,0.714-4.487,1.328c-3.184-0.025-6.831,2.269-10.14,1.504
	c-0.79-0.226-0.752,0.853-1.592,0.401c-2.795,0.2-5.377,1.705-8.185,1.83c-0.714,0.438-1.642,0.176-2.369,0.539
	c-0.627,0.563-1.617,0.125-2.319,0.589c-1.178,1.19-2.971,0.853-4.375,1.63c-0.953-0.251-1.078,0.313-1.291,0.802
	c-1.354,0.363-2.544,1.266-3.974,1.266c-0.827-0.05-1.266,0.728-2.005,1.003c-2.607,1.065-5.502,1.98-8.323,3.097
	c-1.504,1.541-4.111,1.303-5.991,2.243c-0.978,0.05-1.78-0.15-2.645,0.363c-1.329-0.677-2.181-0.112-3.196,0.564
	c-1.002,0.376-1.754,1.091-2.068,2.043c-0.313,0.112-0.614,0.238-0.965,0.363c-5.991,1.116-12.572,3.961-18.826,5.49
	c-2.858,0.84-6.142,0.501-8.824,1.441c-2.62-1.115-5.44-0.326-8.097-1.341c-0.226-0.339-0.451-0.689-0.689-1.054
	c-1.291-0.351-2.582-0.701-3.811-1.04c-0.953-1.128-1.178-2.52-2.632-3.459l0.714-1.604c-0.276-0.15-0.477-0.251-0.677-0.352
	c0.814-3.008,2.62-5.916,3.798-8.937c1.729,0.389,1.729-2.006,2.481-3.096c0.689-0.276,1.529-0.401,1.604-1.153
	c3.159-2.344,6.856-2.996,10.491-4.337c2.294-0.777,4.55-2.043,6.981-2.006c0.263-0.802,1.279-0.325,1.855-0.651
	c0.426-0.238,0.915-0.539,1.629-0.414c0.602,0.101,1.115-0.614,1.868-0.313c1.078-0.4,2.168-0.814,3.246-1.216
	c0.965,0.264,1.554-0.4,2.507-0.589c3.422,0.978,6.844-0.714,10.09-1.93c0.576,0.05,1.216,0.614,1.466-0.226
	c1.717-0.702,3.748-1.354,5.565-0.853c4.612-1.68,1.867-1.404-0.777-1.905c-0.426,0.163-0.815,0.301-1.253,0.477
	c-0.752-0.201-1.554-0.427-2.52-0.689c-0.338,0.188-0.752,0.413-1.065,0.602c-3.71-0.552-6.179-2.507-9.576-3.447
	c-0.376-0.401-0.313-0.952-1.015-1.141c-0.25-0.063-0.213-0.275-0.201-0.488c-0.463-1.054-0.84-2.068-1.316-3.097
	c1.805-3.259,2.582-7.383,5.026-10.14c1.028-0.539,1.266-1.505,1.705-2.457c0.464-0.176,0.852-0.313,1.229-0.464
	c1.617-3.196,6.781-3.347,9.852-4.387c0.589,0.163,1.078,0.288,1.554,0.426c0.401-0.15,0.79-0.301,1.216-0.451
	c1.241,0.376,2.846,0.464,3.936-0.251l1.028,0.276c0.188,0.301,0.363,0.602,0.589,0.952c1.141,0.313,2.332,0.627,3.522,0.953
	c0.388-0.15,0.777-0.288,1.203-0.451c1.266,0.338,2.544,0.689,4.023,1.09c0.552-0.275,1.191-0.589,1.717-0.852
	c1.341,0.363,2.469,0.664,3.585,0.978c0.414-0.15,0.79-0.301,1.291-0.489c3.171,0.602,5.578,2.808,8.874,3.259
	c0.226,0.352,0.464,0.702,0.727,1.104c1.166-0.051,1.705,0.902,2.72,1.165c0.364,1.116,1.993,1.517,2.457,2.607
	c0.125,0.301,1.04,0.313,0.551,0.878c1.705,1.416,2.407,3.459,2.896,5.414c0.188,0.188,0.389,0.502,0.326,0.715
	c-0.113,0.765,0.651,1.003,0.451,1.843c0.689,0.063,1.166-0.451,1.817-0.552c1.241-0.438,2.369,0.351,3.572-0.038
	c0.639,0.176,1.278,0.352,1.88,0.515c2.332-1.718,5.34-2.369,8.085-1.203c1.166-0.088,1.842-1.216,2.895-1.304
	c0.928,0.25,1.68-0.79,2.645-0.188c3.672-1.141,7.27-3.221,11.13-1.579c2.87-1.278,5.816-1.241,8.836-2.068
	c0.74-0.351,1.354,0.451,2.156,0.138c0.451-0.188,1.002,0.101,1.416-0.213c0.627,0.915,1.392,0.564,2.043-0.037
	c1.692-0.677,4.462-0.276,6.355-0.289c1.053-0.413,2.118-0.827,3.171-1.24c0.853,0.226,1.655,0.451,2.657,0.714
	c1.517-0.99,3.547-0.864,5.214-1.115c0.915,0.101,1.729-0.2,2.657,0.264c1.304-0.502,2.607-1.003,3.886-1.492
	c0.526,0.138,1.015,0.276,1.517,0.414c0.376-0.15,0.752-0.301,1.203-0.477c1.078,0.288,2.194,0.602,3.422,0.928
	c1.893-0.765,3.723-1.555,5.766-1.441c1.178-0.264,2.231,0.226,3.372,0.464c0.652-0.075,1.078-0.251,1.805,0.087
	c2.043-1.152,4.55-0.764,6.719-0.301c0.526-0.237,1.178-0.551,1.729-0.802c1.103,0.414,1.993,0.05,3.008-0.025
	c1.153,0.289,2.244,0.088,3.259-0.4l1.554,0.426c1.166-0.827,2.92-0.326,4.174-0.978c1.128,0.301,2.256,0.614,3.372,0.915
	c1.579-0.84,3.108-0.138,4.775-0.201c2.544-0.877,5.352,0.238,7.834-1.053c3.146,0.815,6.405,2.281,9.539,0.815
	c0.689-0.439,1.504,0.351,2.131-0.176c1.329-0.363,2.771,0.238,4.062-0.576c2.381,0.514,4.675,1.805,6.943,1.002
	c0.74-0.1,1.392-0.05,2.144,0c3.321-1.216,6.593-0.288,9.877,0.715c2.419-1.216,5.69,0.438,8.436-0.99
	c1.091,0.037,2.081,0.514,3.108,0.727c1.216-0.689,3.172-0.664,3.848-1.867c0.427-0.552,1.342-0.677,1.844-1.19
	c3.02-1.43,6.267-2.695,8.961-4.701c1.868-1.754,4.901-2.306,7.07-3.346c0.626,0.2,0.525-0.564,1.09-0.64
	c0.488-0.063,0.928-0.326,1.504-0.539c0.251-0.401,0.339-1.479,1.104-1.19c0.275,0.112,0.501,0.013,0.602-0.188
	c0.2-0.426,1.016-0.477,1.027-1.027c0-0.326,0.477-0.326,0.752-0.464c1.305-0.64,1.58-1.729,3.121-2.118l0.514-1.129
	c3.059-1.065,6.568-2.331,9.025-4.336l0.502-1.129c1.015-0.138,1.528-1.19,2.469-1.228c1.027,0.338,0.852-0.389,1.391-0.903
	c0.389-0.112,1.104-0.301,1.68-0.464c0.238-0.538,0.414-0.914,0.552-1.24c1.091-0.301,1.542-0.99,2.52-1.291
	c0.401-0.213,1.04-0.201,1.091-0.728c0.589-0.275,1.529-0.451,1.98-0.84c0.4-0.978,1.805-1.228,2.694-1.88
	c0.865-0.451,2.056,0.352,2.745-0.477c0.264-0.589,0.953-1.027,1.542-1.403c0.651-0.765,1.291-1.392,2.344-1.868
	c0.915-0.463,1.805-1.303,2.62-1.616c0.287-0.539,0.664-0.477,1.165-0.401c0.878-1.517,2.62-2.582,4.324-3.196
	c0.063-0.413,0.94-0.702,1.267-1.103c1.141-0.201,1.729-0.928,2.72-1.329c0.714-0.138,0.514-0.777,1.04-1.016
	c1.654-0.501,1.78-1.429,3.385-1.968l0.626-1.403c2.356-0.827,4.199-2.319,6.218-3.635c1.228-0.352,2.256-1.091,3.271-1.692
	c0.451-0.865,1.278-1.379,2.344-1.68l0.576-1.291c0.84-0.313,1.529-0.564,2.018-0.752c0.79-1.817,3.097-2.131,4.776-2.934
	c1.968-0.275,2.381-0.351,3.07-2.394c1.354-0.351,2.432-1.341,2.833-2.645c0.627-0.276,1.479-0.376,1.579-1.116
	c0.702-0.438,1.241-1.027,2.169-1.216c0.226-0.514,0.451-1.015,0.664-1.491c1.304-0.264,1.354-1.091,2.382-1.617
	c0.037-0.776,0.89-0.89,1.579-1.178l0.552-1.241c0.614-0.163,1.328-0.363,1.917-0.514l0.74-1.654
	c0.677-0.276,1.529-0.389,1.592-1.153c0.739-0.728,2.269-0.928,2.52-1.968c0.613-0.238,1.24-0.464,1.854-0.702
	c0.577-0.589,0.352-1.404,1.354-1.805c0.64-0.966,0.928-2.169,2.182-2.695c0.4-0.125,0.451-0.251,0.25-0.627
	c-0.2-0.363-0.138-0.765,0.126-0.915c1.09-0.589,1.04-1.566,1.642-2.344c0.389-0.15,0.777-0.288,1.19-0.451
	c0.276-1.566,1.441-1.517,2.206-2.406c1.204-0.376,1.204-1.98,1.818-2.883c1.429-0.288,1.93-1.417,2.832-2.307
	c1.166-0.689,2.633-1.103,3.585-1.993c1.203,0.126,2.156-0.602,3.284-0.915c1.78,0.477,3.56,0.966,5.377,1.454
	c0.15,0.276,0.326,0.59,0.526,0.953c0.677,0.188,1.392,0.376,2.006,0.539c0.363,0.539,0.514,1.077,1.216,1.303
	c2.231,2.206,4.726,4.663,5.641,7.822c0.1,0.138,0.125,0.413,0.024,0.538c-0.325,0.401,0.163,0.753,0.051,1.116
	c-0.163,0.526,0.413,0.84,0.526,1.278c-1.793,3.108-2.331,7.495-5.239,9.501c-1.078,1.768-3.097,2.394-4.55,3.785
	c-0.715,0.878-2.27,0.89-2.57,2.081c-1.829,0.501-3.635,1.504-5.377,2.281c-0.539,1.454-1.165,2.494-2.945,2.983l-0.689,1.541
	c-1.216-0.1-2.068,0.352-2.331,1.492c-1.417,0.275-2.182,1.152-3.435,1.604l-0.514,1.152c-0.953,0.113-1.417,0.815-2.169,1.179
	c-0.037,0.651-0.677,0.89-1.328,1.053c-1.755,0.727-3.711,1.404-4.914,2.782c-0.777,0.163-1.203,0.678-1.768,1.028
	c-0.438,0.275-1.09-0.2-1.341,0.251c-0.451,0.664-1.704,0.563-1.768,1.466c-1.341,0.502-2.657,0.99-3.936,1.479
	c-0.664,1.817-1.604,3.296-3.121,4.35c-0.526,0.514-2.318,0.376-2.105,1.491c-1.028,0.188-1.729,0.89-2.857,0.765
	c-0.564,0.275-1.492,1.403-2.131,1.692c-0.928,0.551-2.307,1.203-2.708,2.269c-0.677,0.251-1.291,0.488-1.942,0.727l-0.564,1.267
	c-0.589,0.162-1.316,0.351-1.867,0.501c-0.288,0.526-0.288,0.965-0.94,1.078c-2.168,1.266-4.788,1.918-6.781,3.472
	c-0.488,0.602-1.504,0.739-2.005,1.329c-0.301,1.278-2.495,1.24-2.783,2.531c-0.075,0.564-0.626,0.878-1.19,0.891
	c-1.792-0.025-2.645,1.315-4.337,1.691c-0.2,0.928-1.153,1.065-2.006,1.329c-1.68,1.053-3.233,2.043-5.201,2.607l-1.016,2.256
	c-0.552,0.288-1.165,0.413-1.604,0.877c-0.714,0.627-2.03,0.326-2.281,1.643c-0.526,0.163-1.229,0.389-1.867,0.589
	c-0.113,0.827-0.94,0.928-1.555,1.241c-0.275,0.376-0.539,0.639-1.141,0.413c-1.09,0.464-1.742,1.128-3.083,1.492
	c-0.238,0.363-0.339,1.466-1.091,1.165c-0.288-0.112-0.526-0.013-0.589,0.188c-0.126,0.426-0.928,0.363-0.952,0.84
	c-0.414,0.263-1.267-0.188-1.305,0.526c-0.977,0.363-1.917,0.802-3.033,0.827c-0.074,0.64-1.115,0.84-1.19,1.392
	c-0.087,0.689-1.053,0.827-1.228,1.403c-0.715,0.113-0.803,0.614-1.028,1.016c-2.657,0.939-5.252,1.942-7.521,3.472
	c-2.382,0.502-3.823,2.006-5.778,3.171c-0.376,0.753-2.006,0.552-1.68,1.755c5.653-2.52,11.507,1.003,17.122,2.118
	c0.488-0.188,0.877-0.325,1.278-0.488c1.103,0.301,2.243,0.602,3.372,0.915c0.463-0.163,0.928-0.326,1.391-0.489
	c1.342,0.702,2.996-0.088,4.187,0.902c1.19,1.041,2.093,2.156,3.748,1.191c2.432,2.645,7.007,2.03,9.852,3.811
	c2.131,1.616,3.673,1.015,6.029,3.096c0.689,0.013,0.589,0.777,1.328,0.802c0.489,0.025,0.966,0.238,1.404,0.364
	c0.902,1.83,3.522,2.494,4.312,4.361c0.163,0.363,1.078,0.451,0.64,1.053c1.968,1.492,2.619,4.074,3.747,6.104
	c-0.263,1.931,1.692,3.259,1.993,5.102c-0.238,0.576,0.251,0.99,0.514,1.467l-0.688,1.529c0.463,0.551,0.776,1.141,0.338,1.817
	c0.339,0.664,0.113,1.253,0.739,1.842l-1.68,3.761c0.389,1.341,1.718,0.614,2.758,0.89c0.451-0.827,1.492-0.639,2.269-0.84
	c0.552-0.25,1.078-0.338,1.667-0.1c1.817-0.075,3.735,0.087,5.503,0.514c1.542-0.213,3.184-0.602,4.638-1.116
	c2.03,1.054,4.324-0.087,6.129,0.527c0.113,0.15,0.401,0.388,0.502,0.363c1.178-0.363,2.105,0.263,3.259,0.464
	c1.153-0.715,2.833-0.226,4.161-0.94c2.558,0.928,5.127,1.316,7.583,0.363c2.206-0.325,4.551,0.94,6.631,1.342
	c0.777-0.301,1.467-0.552,1.931-0.74c0.802,0.214,1.291,0.352,1.98,0.539c0.526-0.263,1.165-0.576,1.68-0.827
	c1.328,0.301,1.805,1.166,3.233,1.304c1.404-0.414,2.707,0.552,4.049,0.112c1.805-0.175,3.51,1.041,5.302-0.087
	c0.752,0.2,1.555,0.426,2.52,0.689c0.338-0.188,0.752-0.414,1.065-0.59c0.514,0.138,0.827,0.226,1.19,0.326
	c2.056-1.328,4.074-0.063,6.192,0.401c1.416,0.664,3.059-0.552,4.575-0.038c1.341-0.89,2.645-0.013,4.023,0.238
	c0.89-0.2,1.905,0.075,2.782,0.339c0.477-0.176,0.865-0.326,1.316-0.489c1.328,0.577,2.645,0.438,4.011,0.251
	c1.942,0.677,3.923,0.576,5.879,1.09c0.576-0.827,1.955-0.639,2.945-0.501c0.714-0.389,1.304,0.038,1.918,0.2
	c0.827,0.139,1.378-0.301,2.168,0.15c0.614-0.237,1.229-0.476,1.88-0.727c1.655,0.902,3.097,0.088,4.751,0.401
	c0.752-0.238,1.654-0.113,2.419-0.59c0.664,0.176,1.366,0.377,1.993,0.539c3.923-1.416,11.306,1.742,14.815,3.598
	c0.15,0.576,0.827,0.576,1.354,0.777c0.827,0.576,1.604,1.341,2.169,2.281c1.354,0.401,1.566,1.83,2.782,2.582
	c0.226,0.112,0.438,0.552,0.339,0.689c-0.414,0.576-0.063,1.015,0.237,1.491c2.194,2.67,0.64,5.353-0.677,8.098
	c-0.389,0.1-0.864,0.238-1.24,0.338l-0.389,0.878c-1.241,0.501-2.269,1.278-3.647,1.691c-1.116-0.175-1.905,0.427-2.783,0.765
	c-0.464,0.176-1.278-0.325-1.441,0.451c0,0.051-0.464,0.139-0.639,0.075c-1.229-0.514-2.758,0.313-4.049,0.188
	c-0.84-0.326-1.717-0.138-2.632,0c-0.451,0.326-0.79-0.313-1.054-0.514c-3.096,0.4-5.891-2.118-8.949-1.692
	c-0.965-0.339-2.243-0.176-2.808-1.115c-0.477-0.139-0.965-0.276-1.441-0.414c-0.563,0.326-1.115,0.15-1.667-0.025
	c-3.297,0.352-6.769-1.128-10.053-1.88c-1.19,0.777-1.942,0.075-3.171,0.238c-0.614,0.226-1.115-0.213-1.68-0.275
	c-1.253,0.351-2.632,0.351-3.823-0.201c-2.443-0.639-4.838,0.427-7.231-0.677c-0.439,0.15-0.903,0.313-1.366,0.477
	c-2.356-0.64-4.513-1.529-6.907-0.602c-1.152-0.564-2.632-0.276-3.86-0.238c-2.381-0.489-4.838-0.677-7.232-1.504
	c-0.413,0.15-0.802,0.301-1.253,0.464c-0.752-0.201-1.542-0.414-2.382-0.652c-0.651,0.313-1.304,0.627-1.755,0.84l-1.779-0.488
	c-0.614,0.237-1.229,0.476-1.881,0.727c-1.103-0.301-2.218-0.602-3.521-0.952c-0.326,0.188-0.739,0.426-1.053,0.602
	c-1.417-0.201-2.545-1.116-3.798-0.602c-0.853-0.401-1.505,0.677-2.369,0.2c-0.752-0.414-1.643,0.15-2.395-0.226
	c-1.767,0.313-3.547-0.752-5.227,0.275c-1.291-0.363-2.595-0.689-3.886-1.027c-1.504,0.263-2.933,0.552-4.425,0.05
	c-0.325,0.188-0.752,0.414-1.09,0.602c-1.467-0.552-2.645-0.063-3.986-0.226c-1.328,0.427-2.557-0.514-3.998-0.727
	c-0.564,0.263-1.216,0.576-1.73,0.814c-0.714-0.188-1.19-0.326-1.717-0.464c-0.99,0.827-2.193,0-3.284,0.301
	c-1.842,0.075-3.497,0-5.302-0.514c-1.529,1.141-3.196-0.038-4.663,0.853c-1.98-0.99-3.936,0.614-5.916-0.326
	c-0.752,0.264-1.403,0.715-2.206,0.251c-0.827,0.15-1.817,0.263-2.569,0.551c-1.843-0.576-2.632,1.078-4.524,0.038
	c-0.777,0.79-1.943,0.138-2.833,0.552c-0.627,0.614-0.853,1.141-1.943,1.391l-0.501,1.116c-0.477,0.175-0.94,0.476-1.403,0.501
	c-0.677,0.025-0.477,0.902-1.354,0.677c-1.115-0.15-1.441,0.978-2.619,1.179l-0.678,1.504c-0.802,0.188-1.354,0.689-2.218,0.526
	c-1.354,0.363-2.319,1.717-4.124,1.529c-0.05,0.526-0.928,0.488-1.09,1.003c-0.051,0.175-0.552,0.275-0.878,0.363
	c-0.626,0.15-0.514,0.765-1.04,1.016c-2.721,1.291-5.076,2.657-8.01,3.334c-1.416,0.952-3.008,1.642-4.826,1.854
	c-1.816,0.363-3.446,1.63-5.352,1.806c-0.877-0.088-1.517,0.651-2.332,0.626c-0.927-0.413-1.641,0.075-2.355,0.376
	c-1.279,0.163-2.482,0.401-3.785,0.74c-2.244,1.141-4.813,1.466-7.232,1.805c-1.153-0.088-2.207,0.013-3.297,0.602
	c-2.732,1.229-5.904,0.765-8.699,1.68c-1.805-0.251-3.209,0.251-5.088-0.313c-3.097,1.229-6.819,1.216-10.091,1.078
	c-3.798-1.592-9.125-1.091-11.782-4.463c-0.639-0.175-1.291-0.351-1.904-0.514c-0.539-0.589-0.59-1.391-1.518-1.779
	c-0.188-0.075-0.351-0.352-0.326-0.526c0.126-0.79-0.525-1.354-0.877-2.056c2.545-4.638,3.735-10.768,7.357-14.439
	c0.928-0.339,1.416-1.279,1.73-2.182c0.639-0.263,1.341-0.376,1.616-0.928c3.359-2.181,7.37-4.086,11.406-5.076
	c0.651,0.176,0.577-0.338,0.89-0.476c0.803,0.087,1.567,0.075,2.395,0c3.697-2.695,8.599-2.019,12.584-4.149
	c1.154,0.64,1.692-0.263,2.771-0.088c2.407,0.652,4.926-0.939,7.232-1.429c1.341,0.363,2.645,0.715,3.985,1.078
	c3.134-1.416,6.205-2.307,9.576-2.131c1.291,0.226,1.191-1.817,2.658-1.341c1.391,0.213,2.82-0.689,4.248-0.276
	c1.63-0.288,3.097-1.103,4.727-0.802c0.864-0.313,1.893-0.59,2.832-0.427c0.389-0.15,0.777-0.288,1.266-0.476
	c2.043,0.814,3.46,0.413,5.415,0.614c1.505,0.226,1.441-1.417,2.908-1.542c0.626-1.404,0.539-1.454,2.356-2.82
	c0.075-0.501,1.003-0.451,1.041-1.04c0.024-0.376,0.301-0.74,0.488-1.153c0.953,0.389,1.104-0.313,1.867-0.64
	c0.15-0.024,0.238-0.338,0.276-0.526c0-0.727-0.438-1.467-0.126-2.231c0.113-0.226-0.226-0.589-0.351-0.902
	c-0.765-0.087-0.677-0.701-1.329-1.19c-0.389-0.101-1.09-0.301-1.717-0.464c-0.915-1.592-1.98-2.933-3.697-3.598
	c-1.028-0.188-2.043-0.526-2.795-1.165c-0.326-0.188-0.314-0.64-0.84-0.652c-0.615-0.012-0.652-0.563-1.091-0.714
	c-1.454-0.564-2.758-0.201-4.35-0.74c-0.728-0.063-0.577-0.814-1.329-0.827c-0.488-0.012-0.965-0.25-1.441-0.4
	c-1.592-2.031-4.75-1.83-7.057-2.732c-2.87-1.091-5.791,0.301-8.648-1.078c-0.564,0.338-1.278,0.263-1.604-0.075
	c-1.278-1.104-3.233-1.065-4.775-1.654c-0.238,0.226-0.539,0.602-0.64,0.563c-1.516-0.088-3.121-0.275-4.537,0.15
	c-2.08-0.563-4.225-1.141-6.268-1.704c-1.039,0.613-1.805,0.213-2.895,0.4c-0.251,0.126-0.201-0.539-0.552-0.363
	c-0.427,0.213-0.827-0.025-1.203,0.113c-0.739,0.363-1.517,0.589-1.993-0.176c-0.814,0.401-1.83-0.351-2.619,0.326
	c-0.264,0.226-0.752,0.301-1.141,0.451c-0.318,0.526-0.895,0.952-1.73,1.278c-0.162,0.363-0.338,0.739-0.488,1.103
	c-1.104,0.264-1.542,0.978-2.508,1.279c-0.4,0.213-1.027,0.2-1.115,0.714c-0.551,0.502-1.617,0.013-1.918,0.614
	c-1.792,1.78-5.15,2.043-7.457,3.259c-0.689,0.915-2.182,1.078-3.246,1.203l-1.016,2.269c-0.728,0.301-1.643,0.452-1.643,1.216
	c-1.027,0.577-2.344,0.64-3.021,1.492c-2.243,0.363-4.35,1.379-6.367,2.732c-0.815,0.664-1.705,1.328-2.595,1.918
	c-0.264,0.25-0.338,0.614-0.902,0.4c-0.79,0.414-2.068,0.376-2.545,1.129c-0.2,0.814-1.554,0.639-1.805,1.491
	c-0.928,1.278-2.945,1.366-4.086,2.356c-1.291,0.275-2.833,0.915-4.224,0.978c-0.075-0.013-0.326,0.15-0.326,0.238
	c-0.025,0.539-0.802,0.64-1.002,1.04c-0.201,0.389-0.389,0.74-0.965,0.827c-0.727,0.113-0.765,0.64-1.028,1.016
	c-6.493,2.569-12.735,5.828-19.303,7.896c-0.614,0.965-2.168,0.99-3.196,1.216c-1.968,2.783-5.991,2.858-8.398,5.327
	c-2.494,0.915-4.838,1.955-7.47,2.181c-2.056,1.153-4.036,2.319-6.38,3.009l-0.351,0.789c-1.554,0.313-2.532,1.454-4.086,1.817
	c-1.178,2.019-4.875,1.417-5.954,3.497c-3.61,1.793-7.809,2.031-11.431,3.711c-1.053,1.579-3.435,2.043-5.177,2.857
	c-4.162,1.893-8.398,4.324-12.885,5.151c-0.915,0.313-1.78,0.84-2.783,0.689l-0.351,0.79c-0.426,0.226-1.253-0.213-1.354,0.514
	c-0.464,0.264-1.103,0.301-1.629,0.313c-0.263,0.338-0.501,0.689-1.141,0.413c-5.678,2.495-11.983,4.613-17.498,7.095
	c-0.489-0.163-0.915,0.05-1.153,0.251c-2.532,1.742-6.581,1.566-8.962,3.66c-1.078,0.4-2.143,0.802-3.208,1.253
	c-0.113,0.777-0.978,0.176-1.404,0.464c-0.589,0.426-1.642,0.389-2.056,1.065c-0.25,0.125-1.028,0-1.366,0.226
	c-0.539,0.013-0.389,0.827-1.103,0.589c-0.752-0.237-0.627,0.489-1.103,0.59c-0.689,0.563-1.366,1.065-2.419,0.563
	c-1.304,0.489-2.683,1.016-4.074,1.517c-0.389,0.138-0.351,0.865-1.116,0.489c-5.402,1.253-10.516,3.91-15.806,5.314
	c-0.702,0.877-1.83,0.827-2.82,0.978c-0.577,0.213-1.09,0.64-1.868,0.464c-1.078,0.777-2.419,1.053-3.672,1.316
	c-0.401,0.112-0.765,0.263-0.89,0.639c-0.313,0.201-1.103-0.213-1.203,0.352c-0.213,0.614-0.451,1.053-1.166,1.178
	c-0.827-0.063-1.529,0.288-2.344,0.552c-0.651,0.238-1.617-0.526-1.83,0.389c-1.58,0.075-2.783,0.138-3.886,1.429
	c-0.05,0.514-0.627,0.627-1.078,0.727c-1.905,0.401-1.905,0.389-3.685,1.379c-0.389,0.339-0.978-0.263-1.253,0.339
	c-1.654,1.078-4.211,1.755-6.117,2.105c-1.542,0.125-2.231,0.752-3.798,0.514c-0.79,0.477-1.893,0.264-2.808,0.451
	c-0.213,0.728-1.141,0.289-1.592,0.602c-0.489,0.339-1.103,0.214-1.655,0.276c-1.93,0.539-3.835,0.163-5.527,0.84L107.933,283.995z"
	/>
<g id="h">
	<path d="M22.512,350.201c-0.163-1.354,0.213-2.745-0.614-4.137c-0.451-0.752-0.15-1.993-0.063-3.008
		c0.238-2.996,2.457-4.124,4.977-2.495c0.839,0.539,1.529,1.329,2.193,2.081c0.25,0.288,0.426,0.902,0.288,1.203
		c-1.253,2.67-0.414,5.49-0.639,8.235c-0.063,0.79-0.038,1.592,0,2.382c0.063,1.429-0.276,2.757-0.626,4.148
		c-0.877,3.372-2.344,6.568-2.858,10.065c-0.213,1.479-1.266,2.857-1.968,4.262c-1.404,2.819-2.319,5.841-4.036,8.548
		c-1.128,1.78-1.366,4.086-3.234,5.452c-0.138,0.101-0.276,0.427-0.213,0.564c0.627,1.617-1.178,2.281-1.354,3.522
		c-0.175,1.24-0.765,2.181-1.529,3.133c-0.438,0.539-0.602,1.342-0.739,2.056c-0.326,1.692-1.755,2.846-1.993,4.638
		c-0.263,1.968-1.542,3.647-2.118,5.565c-0.376,1.254-0.552,2.645-0.477,3.999c0.025,0.514-0.138,1.065-0.326,1.554
		c-0.526,1.392-0.665,2.808,0.063,4.111c0.527,0.965,0.426,1.692-0.376,2.331c-0.765,0.602-1.278,1.404-2.306,1.817
		c-2.144,0.853-3.698,0.201-3.835-2.067c-0.063-0.99-0.038-1.956-0.702-2.771c0.915-1.016,0.577-2.269,0.702-3.459
		c0.125-1.166,0.276-2.369,0.702-3.447c0.589-1.491,1.379-2.883,1.329-4.55c1.504-1.254,0.877-3.535,2.319-4.826
		c0.213-0.188,0.289-0.551,0.414-0.84c0.677-1.642,1.128-3.435,2.068-4.913c0.915-1.441,0.765-3.422,2.344-4.487
		c0.088-2.331,2.544-3.686,2.482-6.142c-0.025-0.702,0.915-1.392,1.278-2.156c0.928-1.993,2.031-3.923,2.72-6.017
		c0.689-2.093,2.005-3.936,2.168-6.279c0.075-1.153,1.203-2.144,1.391-3.51c0.088-0.627,0.639-1.316,0.577-2.118
		c-0.038-0.451-0.201-1.091,0.025-1.329c1.768-1.83,0.928-4.186,1.442-6.229c0.414-1.642,0.501-3.221,0.589-4.888H22.512z"/>
	<path d="M53.646,382.038c-0.877,0.188-1.968-0.427-2.782,0.563c-0.113,0.139-0.727,0.113-0.877-0.05
		c-0.84-0.978-1.918-0.376-2.871-0.501c-1.617-0.201-3.259,0.288-4.863-0.614c-0.614-0.352-1.742,0.313-2.632,0.313
		c-0.852,0-1.692-0.326-2.544-0.376c-0.965-0.051-1.855,0.175-2.82,0.551c-1.191,0.451-2.695,0.201-4.036,0.088
		c-1.542-0.125-2.582-1.867-1.905-3.334c0.438-0.928,0.175-2.231,1.417-2.782c0.865-0.389,1.667-1.241,2.507-1.254
		c0.953-0.013,1.88-1.792,2.845-0.125c1.065-1.203,2.143-0.025,3.159-0.088c1.441-0.088,2.695,0.05,4.074,0.426
		c1.354,0.376,2.857,0.188,4.274,0.389c1.304,0.188,2.419,1.128,3.923,0.063c0.953-0.677,2.657,0.515,3.748-0.752
		c0.05-0.05,0.226,0,0.326,0c1.993-0.263,1.905-0.263,2.005-2.005c0.163-2.745,0.313-5.49,0.727-8.198
		c0.15-0.965,0.89-2.331,1.667-2.582c1.116-0.363,2.695-0.664,3.66,0.803c0.589,0.902,1.316,1.717,1.893,2.619
		c0.213,0.339,0.338,0.915,0.188,1.254c-0.953,2.219-0.79,4.638-1.329,6.919c-1.454,0.664,0.765,1.768-0.364,2.745
		c-0.539,0.464-0.213,1.88-0.326,2.87c-0.138,1.166,0.514,2.47-0.652,3.484c-0.163,0.15-0.15,0.739,0,0.978
		c0.577,0.865,0.426,1.492,0.113,2.545c-0.664,2.269-0.464,4.775-0.852,7.145c-0.439,2.745-0.802,5.665-3.284,7.42
		c-0.902,0.64-2.093,1.505-3.435,0.928c-2.018-0.865-2.62-2.068-2.068-4.148c0.213-0.803,0.639-1.542,0.94-2.332
		c0.602-1.566,1.554-3.121,1.654-4.713c0.151-2.306,1.091-4.475,0.853-6.855c-0.125-1.316-0.514-1.542-1.604-1.404
		c-0.226,0.025-0.451,0-0.739,0L53.646,382.038z"/>
</g>
<path id="a" d="M100.199,376.786c0.301,1.19-0.652,2.118-0.05,3.347c0.451,0.915,0.125,2.231,0.075,3.359
	c-0.05,1.09-0.251,2.181-0.263,3.271c0,0.877,0.188,1.742,0.276,2.619c0.038,0.339,0.15,0.84-0.013,0.99
	c-1.504,1.392-0.251,2.633,0.301,3.761c0.363,0.727,0.564,1.128-0.088,1.68c-0.351,0.288-0.652,0.639-0.965,0.952
	c-0.84,0.853-1.88,1.955-3.008,1.441c-1.492-0.664-3.322-1.379-3.059-3.723c0.101-0.902-0.614-1.241-1.203-0.614
	c-1.391,1.454-3.309,1.918-4.963,2.833c-1.003,0.563-2.168,0.664-2.971-0.389c-0.589-0.777-1.567-0.363-2.068-0.752
	c-1.454-1.141-2.482-2.683-3.071-4.475c-0.226-0.702-0.351-1.454-0.702-2.094c-1.83-3.259-1.667-6.442-0.275-9.877
	c0.526-1.291,1.065-2.381,2.056-3.221c2.143-1.793,4.336-1.793,6.305-0.652c1.128,0.664,2.319,1.203,3.045,2.482
	c0.389,0.664,1.354,1.002,2.068,1.466c0.727,0.464,1.216,1.943,2.031,1.379c0.639-0.451-0.652-1.504-0.752-2.231
	c-0.226-1.691-0.539-3.472,0.514-5.139c0.94-1.467,2.056-1.88,3.484-0.965c0.451,0.288,0.84,0.701,1.316,0.939
	c1.554,0.777,2.381,1.931,2.005,3.598L100.199,376.786z M84.982,382.816c-0.138,0.087-0.414,0.188-0.414,0.275
	c0,2.03-0.389,4.137,1.128,5.879c0.501,0.563,0.953,0.789,1.642,0.175c1.103-0.978,1.304-1.654,0.489-2.808
	c-0.74-1.053-1.554-2.03-2.356-3.046c-0.138-0.175-0.313-0.313-0.489-0.488V382.816z"/>
<g>
	<path d="M125.468,379.005c-1.091,1.742-0.113,4.399-1.279,6.706c-0.188,0.363-0.263,1.027-0.063,1.291
		c0.79,1.015,1.053,1.893,0,2.883c-0.175,0.162-0.163,0.776,0,0.978c0.877,1.065,0.201,1.917-0.364,2.707
		c-0.777,1.078-1.93,1.755-3.208,2.043c-0.577,0.126-1.529,0.038-1.843-0.338c-0.626-0.777-1.517-2.043-1.266-2.708
		c1.178-3.083,0.125-6.217,0.514-9.288c0.276-2.168,0.94-4.273,0.714-6.505c-0.087-0.802,1.316-2.068,2.144-2.219
		c2.256-0.413,4.613,1.567,4.65,4.463V379.005z"/>
	<path d="M112.984,363.763c-0.025-1.466,0.627-2.606,1.404-3.647c0.602-0.814,1.354-1.278,2.544-1.278
		c1.83,0,3.673-0.401,5.515-0.614c0.815-0.101,1.542,0,2.081,0.752c0.689,0.978,1.441,1.893,2.144,2.858
		c0.05,0.075-0.125,0.301-0.175,0.464c-0.665,1.904-2.119,3.133-3.986,3.321c-1.654,0.175-3.121,0.664-4.638,1.19
		c-1.867,0.64-3.196,0.363-4.136-0.965c-0.414-0.577-0.501-1.379-0.739-2.081H112.984z"/>
</g>
<path id="r" d="M137.727,390.236c0.175-0.978-0.401-2.131,0.602-3.096c0.238-0.226-0.025-1.028-0.138-1.555
	c-0.088-0.401-0.401-0.765-0.451-1.165c-0.263-2.169-0.564-4.325-0.665-6.506c-0.075-1.529,1.065-3.184,2.018-3.359
	c1.83-0.351,3.886,0.577,4.788,1.993c0.702,1.104,0.665,2.269,0.665,3.46c0,0.626,0.175,0.689,0.739,0.313
	c1.191-0.814,2.52-1.115,3.999-1.04c0.802,0.038,1.968-0.84,2.356-0.526c0.84,0.677,1.654,0.489,2.52,0.576
	c2.269,0.251,3.66,1.643,4.55,3.61c0.338,0.752-0.639,2.645-1.667,3.184c-1.604,0.827-3.334,1.166-4.989,0.313
	c-1.956-1.003-3.56,0.263-5.29,0.614c-0.84,0.176-1.416,1.893-0.652,2.87c0.84,1.091,0.063,1.555-0.2,2.256
	c-0.94,2.47-4.525,3.422-7.37,1.843c-0.389-0.213-0.689-0.853-0.765-1.341c-0.125-0.765-0.038-1.579-0.038-2.444H137.727z"/>
<path id="s" d="M235.895,349.875c1.88-0.301,2.582,1.253,3.685,2.118c1.015,0.79,1.278,1.768,1.103,2.958
	c-0.238,1.617-1.73,2.019-2.858,2.507c-0.614,0.264-1.466,0.928-2.52,0.176c-0.639-0.451-1.942-0.251-2.72,0.589
	c-3.309-0.488-6.079,1.241-8.862,2.444c-2.682,1.153-5.352,2.47-7.872,4.111c-1.917,1.253-4.086,2.256-5.929,3.673
	c-1.416,1.09-2.657,2.406-3.911,3.685c-0.113,0.113,0.188,0.978,0.364,1.003c2.444,0.351,4.713,1.454,7.27,1.467
	c2.294,0.012,4.701-0.765,6.894,0.576c1.191-1.504,2.344-0.037,3.51,0.063c1.291,0.113,2.695-0.488,3.873,0.502
	c1.103-1.054,2.068,0.226,3.121,0.162c1.278-0.075,2.231,0.552,3.208,1.316c0.539,0.427,1.304-0.877,2.168,0
	c0.464,0.464,1.366,0.702,2.056,0.677c1.429-0.05,2.356,0.94,3.522,1.404c2.181,0.864,2.469,3.096,3.447,4.813
	c0.213,0.389-1.003,3.347-1.454,3.798c-3.672,3.799-7.571,7.232-12.246,9.865c-2.582,1.454-4.901,3.472-7.458,5.051
	c-1.805,1.104-3.447,2.432-5.54,3.084c-0.965,0.301-1.642,1.479-2.595,1.942c-2.908,1.392-5.465,3.297-8.135,5.039
	c-1.754,1.141-3.697,2.005-5.603,2.896c-0.89,0.413-1.843,0.551-2.77-0.188c-0.965-0.777-1.768-1.88-1.141-2.857
	c0.84-1.316-0.025-3.146,1.554-4.161c0.577-0.377,1.003-0.865,1.767-0.689c0.665,0.15,1.417,0.551,1.968,0.363
	c1.98-0.689,3.948-1.454,5.791-2.432c1.604-0.853,2.92-2.269,4.563-2.983c2.118-0.915,3.623-2.657,5.628-3.673
	c2.883-1.453,5.314-3.584,8.022-5.289c1.755,0.163,2.056-1.555,3.046-2.356c1.103-0.89,2.244-1.742,3.321-2.657
	c0.765-0.652,1.379-1.592,2.244-1.993c0.765-0.351,1.705-0.765,1.454-1.441c-0.301-0.814-1.178-1.68-1.993-1.968
	c-2.006-0.689-3.936-1.905-6.229-1.429c-2.031-1.241-4.475-0.226-6.631-1.267c-1.103-0.526-2.732-0.325-4.023-0.024
	c-1.141,0.275-1.956-0.953-3.271-0.188c-0.765,0.438-2.231-0.413-3.397-0.539c-1.128-0.112-2.269-0.024-3.409-0.024
	c-1.253,0-2.607,0.325-3.723-0.063c-2.294-0.802-5.077-0.814-6.267-3.76c-0.539-1.354-0.702-2.481-0.088-3.697
	c0.714-1.417,1.629-2.721,2.294-4.149c0.702-1.517,2.269-2.068,3.309-3.221c1.717-1.894,4.45-2.582,6.267-4.487
	c2.645-0.352,3.999-3.196,6.769-3.435c0.827-0.075,1.517-1.254,2.394-1.555c0.814-0.275,1.566-0.413,2.356-0.939
	c1.09-0.728,2.607-0.777,3.873-1.304c2.532-1.041,4.976-2.269,7.671-2.87c0.727-0.163,1.429-0.414,2.144-0.627L235.895,349.875z"/>
<path id="a_1_" d="M251.438,391.188c0.276-1.704,0.389-3.472,0.902-5.113c0.351-1.078,1.266-1.98,1.993-2.908
	c1.065-1.379,1.93-3.196,3.347-3.974c2.181-1.19,4.274-2.933,6.919-2.933c1.015,0,2.181,0.477,3.021,1.09
	c1.266,0.94,2.281,2.194,3.41,3.322c0.075,0.075,0.238,0.176,0.226,0.238c-0.614,2.795,2.156,3.184,3.347,4.688
	c0.952,1.203,1.993,2.331,2.87,3.585c0.902,1.278,0.351,3.585-1.015,4.412c-0.802,0.488-1.692,0.853-2.557,1.216
	c-0.752,0.313-2.732-0.526-3.146-1.667c-0.426-1.179-1.304-1.817-2.106-2.507c-0.79-0.665-1.642-1.279-2.883-0.075
	c-1.253,1.216-3.184,1.554-4.675,2.645c-1.404,1.027-3.234,1.467-4.838,2.243c-1.391,0.665-2.532-0.075-3.685-0.563
	c-1.128-0.489-0.99-1.63-0.978-2.633c0-0.338,0-0.677,0-1.015c-0.05,0-0.113-0.025-0.163-0.025L251.438,391.188z"/>
<path id="l" d="M294.004,363.825c-1.391,1.73,1.078,3.924-0.802,5.604c1.492,2.406,0.188,5.051,0.689,7.533
	c0.438,2.168,1.253,4.273,1.629,6.455c0.201,1.128,0.451,2.105,1.015,3.121c0.477,0.877,0.627,2.018,0.84,3.07
	c0.426,2.118-1.466,2.219-2.344,3.071c-0.815,0.802-2.833,0.163-3.886-0.752c-1.002-0.865-1.642-1.793-1.366-3.196
	c0.226-1.216-0.551-2.369-0.551-3.46c0-1.278-1.567-2.569-0.113-3.86c-0.84-1.153-0.689-2.494-0.677-3.798
	c0-1.366,0.527-3.096-0.125-3.998c-0.94-1.291,0.075-2.745-0.853-3.761c-1.015-1.103-0.238-2.469-0.802-3.76
	c-0.827-1.918-0.827-4.249-0.89-6.418c-0.05-1.617,0.501-3.158,1.792-4.35c0.802-0.752,1.604-0.752,2.331-0.075
	c1.755,1.667,3.673,3.234,3.384,6.104c-0.075,0.765,0.477,1.592,0.765,2.457L294.004,363.825z"/>
<path id="o" d="M320.201,390.875c-1.705-1.229-4.951-0.652-6.029-3.849c-0.363-1.103-0.714-3.233-0.539-4.65
	c0.087-0.664,0.087-1.366,0-2.03c-0.213-1.729,0.351-3.146,1.354-4.537c1.529-2.131,2.996-2.419,5.678-1.454
	c2.294,0.84,3.823,2.494,5.402,4.148c0.326,0.339,0.401,0.966,0.527,1.467c0.175,0.727,0.35,1.454,0.438,2.193
	c0.076,0.602,0.227,1.341-0.037,1.817c-0.939,1.78,0.426,4.337-2.094,5.615c-1.365,0.689-2.656,1.342-4.712,1.291L320.201,390.875z"
	/>
<path id="n" d="M338.188,390.574c-0.251-1.78,0.539-3.937-0.652-5.93c-0.15-0.263,0.163-0.802,0.264-1.215
	c0.125-0.515,0.501-1.129,0.338-1.529c-1.04-2.457-0.965-4.826,0-7.283c0.464-1.178-0.313-2.519,0.627-3.835
	c1.216-1.729,1.68-2.105,3.561-1.304c1.34,0.576,2.381,1.329,2.883,2.833c0.313,0.952,0.927,1.755,2.33,1.592
	c2.67-0.313,4.989,0.714,7.371,1.905c2.656,1.328,3.961,3.747,5.615,5.866c0.514,0.664,0.351,2.043-0.201,3.158
	c-0.639,1.304-0.777,2.758,0.577,3.923c0.275,0.238,0.376,0.753,0.438,1.153c0.15,0.99,0.652,1.542,1.692,1.655
	c1.78,0.175,2.907,1.403,4.011,2.619c0.664,0.739,0.727,1.555-0.063,2.319c-0.576,0.551-1.027,1.341-1.705,1.629
	c-1.178,0.501-2.193,1.291-3.835,0.351c-1.491-0.84-3.021-1.968-4.863-2.193c-0.238-0.024-0.477-0.325-0.651-0.551
	c-0.326-0.427-0.502-1.141-0.903-1.291c-3.697-1.417-3.233-4.551-3.146-7.483c0.012-0.539,0.689-1.053,1.027-1.592
	c0.526-0.853,0.464-1.942-0.4-2.269c-1.956-0.752-3.66-2.47-6.18-1.141c-1.793,0.939-1.893,0.677-2.006,2.381
	c-0.075,1.078,0.451,2.231-0.389,3.234c-0.088,0.101,0.051,0.552,0.213,0.677c0.326,0.251,0.752,0.363,1.116,0.576
	c1.291,0.765,2.519,2.194,2.331,3.297c-0.25,1.479-0.777,3.321-2.52,4.199c-1.24,0.627-2.23,1.629-3.873,1.403
	c-1.905-0.263-2.958-1.152-2.996-3.146c-0.024-1.241,0-2.494,0-4.012L338.188,390.574z"/>
<path id="r_1_" d="M406.838,379.669c0.301-1.817,0.589-3.647,0.902-5.465c0.288-1.729-0.527-3.535,0.426-5.277
	c0.251-0.451-0.426-1.315-0.389-1.98c0.075-1.704-0.477-3.497,0.526-5.113c-1.103-1.643-0.339-3.485-0.538-5.215
	c-0.188-1.68,1.277-2.732,1.679-4.048c0.351-1.153-0.739-2.658,0.2-4.149c0.527-0.84,0.678-1.78,1.969-1.817
	c0.463,0,0.89-0.539,1.379-0.739c0.576-0.238,1.391-0.715,1.768-0.515c0.84,0.464,1.453,1.054,2.243-0.037
	c0.063-0.075,0.727,0.326,1.128,0.438c1.128,0.313,2.256,0.577,3.384,0.89c0.715,0.201,1.467,0.339,2.094,0.702
	c0.651,0.389,1.617,0.978,1.667,1.542c0.101,1.254,1.278,0.99,1.742,1.63c0.438,0.602,1.166,0.927,1.278,1.867
	c0.075,0.664,0.803,1.241,1.104,1.905c0.138,0.301-0.038,0.765-0.113,1.141c-0.088,0.414-0.438,0.877-0.325,1.203
	c0.776,2.281-1.279,3.86-1.392,5.916c-2.081,0.765-1.555,3.222-2.983,4.525c-1.316,1.203-2.144,2.933-3.196,4.425
	c-0.125,0.188-0.476,0.351-0.451,0.476c0.288,1.881-1.579,2.056-2.419,3.033c-0.614,0.702-0.238,0.552,0.301,0.94
	c1.027,0.739,2.043,1.742,2.569,2.87c1.267,2.683,3.409,4.7,5.014,7.107c2.156,3.221,4.876,5.854,8.348,7.658
	c0.352,1.805,2.42,1.479,3.271,2.619c1.041,1.379,2.708,1.718,4.036,2.62c1.229,0.84,2.482,1.654,3.773,2.406
	c1.942,1.129,3.56,2.721,5.628,3.686c0.664,0.313,1.002,1.354,1.466,2.068c0.113,0.163-0.188,2.732-0.338,2.795
	c-1.267,0.514-2.52,1.053-3.823,1.479c-0.664,0.214-1.241-0.075-1.78-0.639c-2.419-2.545-5.214-4.601-8.272-6.305
	c-0.664-0.376-1.115-1.116-1.704-1.654c-0.79-0.728-1.354-1.818-2.745-1.643c-0.301,0.038-0.702-0.477-1.016-0.765
	c-3.146-2.92-6.943-5.201-9.138-9.087c-0.087-0.15-0.376-0.313-0.539-0.288c-1.541,0.226-2.193-1.041-2.933-1.918
	c-0.89-1.041-1.216-2.795-2.269-3.372c-1.342-0.739-2.043-2.068-3.284-2.72c-1.354-0.715-0.752-2.256-1.667-3.084
	c-0.163-0.15-0.326-0.313-0.488-0.476c-0.113,0.175-0.314,0.351-0.326,0.539c-0.251,2.394-0.213,4.863-0.777,7.182
	c-0.438,1.855-0.589,3.66-0.627,5.516c0,0.388-0.326,0.765-0.438,1.165c-0.339,1.241-1.768,2.407-0.238,3.785
	c0.112,0.101,0.101,0.489,0,0.652c-1.554,2.707,0.138,5.891-1.291,8.661c-0.313,0.614-0.401,1.704,1.04,1.918
	c0.615,0.088,1.166,1.015,1.617,1.642c0.777,1.104,0.163,2.657-1.027,3.71c-1.003,0.878-2.219,1.316-3.246,2.03
	c-1.279,0.891-2.131,0.515-3.247-0.05c-0.89-0.451-1.454-0.939-1.329-2.005c0.276-2.281-0.576-4.663,0.665-6.882
	c0.188-0.351,0.024-0.89,0.024-1.341c0-1.254-0.451-2.783,0.113-3.673c0.789-1.241,0.288-2.394,0.602-3.522
	c0.301-1.103,0.877-2.143,1.191-3.246c0.188-0.627,0.088-1.316,0.15-1.98c0.225-2.857,0.112-5.791,0.802-8.536
	c0.451-1.767,0.427-3.459,0.339-5.227L406.838,379.669z M416.063,352.783c-1.203,0-2.105-0.013-3.008,0.013
	c-0.188,0-0.363,0.213-0.539,0.325c0.162,0.163,0.288,0.376,0.488,0.477c1.943,0.902,2.27,2.52,2.307,4.462
	c0.025,1.041-0.502,1.905-0.414,2.958c0.088,0.915-0.375,1.868,0.339,2.721c0.05,0.063,0.024,0.263-0.038,0.313
	c-1.064,0.74-0.451,1.868-0.639,2.796c-0.188,0.927-0.464,1.854-0.664,2.782c-0.038,0.188,0.063,0.414,0.112,0.627
	c0.188-0.113,0.464-0.188,0.552-0.352c1.416-2.782,4.174-4.612,5.327-7.658c0.426-1.128,1.379-1.98,1.667-3.422
	c0.251-1.278,0.464-2.531,0.501-3.835c0-0.276-0.238-0.815-0.351-0.815c-2.105,0.063-3.56-2.594-5.615-1.403L416.063,352.783z"/>
<path id="a_2_" d="M451.372,384.657c-0.126-1.867,0.488-3.998,1.065-6.229c0.764-2.971,3.246-3.484,5.126-4.9
	c0.138-0.101,0.502,0,0.702,0.1c0.564,0.289,1.078,0.689,1.667,0.915c0.79,0.301,1.692,0.79,2.419,0.627
	c1.216-0.263,0.489-1.467,0.602-2.243c0.201-1.529,1.479-2.219,2.432-3.046c0.728-0.627,1.654,0.188,2.369,0.614
	c1.529,0.928,2.771,1.942,2.82,4.099c0.037,1.504,0.827,3.021,1.392,4.487c0.526,1.366,0.376,2.005,0.677,3.271
	c0.301,1.266,0.25,2.306-0.051,3.534c-0.288,1.179-0.063,2.47-0.063,3.723v4.074c0,0.226,0,0.451,0,0.677
	c0.013,0.677,1.366,1.065,0.363,1.968c-1.203,1.091-2.193,2.494-3.973,2.707c-0.376,0.038-0.891-0.125-1.179-0.376
	c-1.165-1.027-2.118-2.219-2.018-3.91c0.1-1.505-0.063-2.958,0.589-4.513c0.865-2.093-0.664-4.274-0.602-6.468
	c0-0.075-0.163-0.251-0.213-0.238c-1.003,0.226-2.006,0.477-3.009,0.715c0.038,0.163,0.038,0.363,0.138,0.477
	c0.377,0.413,0.828,0.776,1.191,1.216c0.814,0.99,0.752,2.243-0.113,3.233c-2.218,2.507-5.051,2.758-8.097,2.168
	c-0.627-0.125-1.241-0.313-1.855-0.438c-1.291-0.275-2.294-1.416-2.331-2.745c-0.025-1.015,0-2.043,0-3.497H451.372z
	 M458.629,384.294c0.063-1.19,1.566-0.426,1.342-1.454c-0.101-0.488-0.577-0.915-0.878-1.366c-0.602,0.502-1.141,1.04-0.902,1.918
	c0.063,0.226,0.2,0.438,0.426,0.902H458.629z"/>
<path id="c" d="M494.69,393.031c-1.742-0.213-4.049-0.376-6.292-0.84c-1.454-0.301-2.27-1.529-2.959-2.845
	c-1.04-1.98-1.541-4.036-1.328-6.255c0.025-0.313,0.05-0.689,0.213-0.928c1.467-2.08,2.795-4.262,4.989-5.716
	c1.178-0.776,2.281-1.691,3.334-2.645c0.752-0.677,1.441-0.99,2.344-0.313c0.864,0.652,1.843,1.191,2.582,1.943
	c1.642,1.654,1.579,2.896-0.113,4.449c-0.376,0.352-0.927,0.502-1.379,0.777c-1.09,0.664-2.256,1.253-3.221,2.068
	c-0.765,0.651-1.267,1.604-1.88,2.419c0.89,0.313,1.779,0.89,2.669,0.89c1.166,0,2.47,0.589,3.548-0.426
	c1.115-1.04,2.269,0.552,3.51-0.038c1.027-0.488,2.256-0.626,3.409-0.802c0.363-0.063,0.84,0.163,1.178,0.401
	c0.451,0.325,0.803,0.789,1.216,1.178c0.915,0.853,1.943,1.692,1.429,3.146c-0.551,1.592-2.018,2.432-3.434,2.657
	c-3.046,0.488-6.154,0.563-9.814,0.864V393.031z"/>
<g id="i">
	<path d="M510.696,394.147c0.063-0.176,0.351-0.966,0.677-1.73c0.99-2.306,1.993-4.6,2.983-6.906
		c0.125-0.288,0.363-0.552,0.401-0.853c0.25-2.281,0.25-4.6,0.739-6.831c0.853-3.848,0.552-7.721,0.64-11.594
		c0.012-0.827,1.83-3.146,2.544-3.234c0.276-0.037,0.589,0.188,0.865,0.326c0.552,0.301,1.078,0.677,1.642,0.94
		c3.222,1.479,2.633,2.356,2.169,4.612c-0.126,0.602,0.464,1.304-0.326,2.043c-0.539,0.501-0.075,1.943-0.401,2.833
		s-0.651,1.604,0.163,2.356c0.038,0.037-0.088,0.326-0.188,0.464c-1.291,1.604-1.103,3.51-0.978,5.339
		c0.075,1.166-0.488,2.081-0.739,3.109c-0.125,0.501-0.639,0.952-0.627,1.416c0.025,1.98-0.727,3.723-1.291,5.578
		c-0.864,2.832-2.732,4.424-5.151,5.527c-2.018,0.915-3.171-0.176-3.134-3.409L510.696,394.147z"/>
	<path d="M518.066,345.313c1.617,0.251,3.021,1.592,4.187,3.196c0.2,0.275,0.113,0.928-0.075,1.278
		c-1.19,2.256-4.788,2.896-6.743,1.241c-0.552-0.464-0.953-3.284-0.577-4.111c0.339-0.752,1.855-1.654,3.209-1.617V345.313z"/>
</g>
<path id="n_1_" d="M534.562,382.038c0-1.254,0.038-2.494,0-3.748c-0.125-3.222,1.166-6.33,0.728-9.589
	c-0.063-0.438,0.4-0.952,0.639-1.416c0.702-1.329,1.742-1.491,3.171-0.953c1.479,0.552,2.231,1.806,3.247,2.796
	c0.351,0.338,0.288,1.19,0.238,1.792c-0.038,0.501-0.364,0.978-0.502,1.479c-0.05,0.175,0.101,0.4,0.15,0.602
	c0.163-0.051,0.389-0.038,0.477-0.15c0.99-1.229,2.093-1.392,3.535-0.702c0.488,0.226,1.303-0.339,1.955-0.301
	c0.602,0.037,1.165,0.501,1.768,0.627c2.118,0.413,3.396,1.98,4.688,3.446c1.053,1.191,1.09,2.745,1.09,4.313
	c0,1.729-0.263,3.434,0.552,5.201c0.715,1.529-1.304,3.71-3.334,4.074c-2.532,0.451-4.049-0.803-4.086-3.385
	c0-1.128,0-2.269,0-3.396c-0.025-2.47-0.94-3.447-3.359-3.385c-0.689,0.013-1.893-0.576-2.018,0.477
	c-0.15,1.304-2.345,2.018-1.016,3.685c0.176,0.227,0.326,0.815,0.238,0.878c-0.928,0.664-0.589,1.604-0.664,2.469
	c-0.188,2.094-2.332,4.024-4.513,4.024c-0.752,0-2.056,0-2.156-0.313c-0.301-0.878-1.015-1.592-0.89-2.732
	c0.213-1.905,0.063-3.849,0.063-5.778V382.038z"/>
<path id="e" d="M568.655,385.748c-0.139-3.359,0.752-6.631,3.008-8.887c2.269-2.269,4.563-5.139,8.41-5.026
	c1.267-0.915,2.732-0.739,4.149-0.651c1.755,0.1,3.371,0.89,4.55,2.105c1.755,1.805,1.379,4.563-0.928,6.191
	c-2.144,1.517-4.55,2.67-6.881,3.911c-0.827,0.438-1.78,0.64-2.67,0.952c-0.401,0.139-0.803,0.439-1.179,0.401
	c-0.476-0.05-0.928-0.363-1.391-0.552c-0.088,0.64-0.301,1.304-0.226,1.931c0.1,0.827,0.188,1.955,0.727,2.356
	c1.065,0.803,2.394,1.341,3.697,1.692c0.953,0.263,2.319-0.339,2.983,0.138c1.078,0.777,1.729-0.264,2.569-0.088
	c0.915,0.188,2.131,0.827,2.67,0.464c1.016-0.689,2.006-0.539,2.896-0.401c1.843,0.289,3.435-0.765,5.177-0.714
	c1.692,0.05,3.184-0.502,4.612-1.216c1.116-0.552,2.294,0.063,3.522-0.577c1.166-0.614,2.857-0.15,4.299-0.301
	c1.379-0.138,2.42-1.153,3.849-1.429c2.707-0.514,5.59-0.326,8.135-1.717c0.438-0.238,1.216,0.526,1.68-0.352
	c0.476-0.902,1.403-0.413,2.131-0.576c0.714-0.163,1.403-0.438,2.105-0.664s1.392-0.502,2.105-0.665
	c0.728-0.163,1.504,0.201,2.219-0.451c0.326-0.301,1.04-0.238,1.579-0.226c0.815,0.025,1.429-0.175,2.106-0.739
	c1.253-1.04,2.281-0.89,3.459,0.2c0.339,0.313,0.651,0.64,0.965,0.966c1.567,1.579,1.329,3.196-0.689,4.312
	c-0.551,0.301-1.165,0.651-1.754,0.664c-2.194,0.025-4.149,1.04-6.255,1.366c-2.118,0.326-4.187,0.752-6.255,1.329
	c-1.755,0.501-3.66,0.514-5.49,0.739c-0.426,0.05-0.877,0.075-1.291,0.163c-0.802,0.188-1.178,1.19-2.406,0.814
	c-0.752-0.226-1.817,0.715-2.782,0.902c-0.979,0.188-2.019,0.013-3.009,0.176c-0.928,0.15-1.817,0.514-2.72,0.827
	c-0.401,0.138-0.765,0.489-1.153,0.489c-3.735,0-7.258,1.566-11.018,1.416c-1.04-0.037-1.968,0.928-3.121,0.64
	c-0.84,1.354-2.156,0.138-3.284,0.576c-1.178,0.464-2.682,0.101-4.048,0.101c-1.367,0-2.732,0.088-4.087-0.038
	c-0.853-0.075-1.667-1.391-2.531,0.025c-0.051,0.088-0.477,0.063-0.64-0.038c-2.269-1.429-5.102-2.168-6.568-4.587
	c-0.739-1.216-0.89-2.808-1.228-4.237c-0.126-0.538-0.025-1.128-0.025-1.691L568.655,385.748z"/>
</svg>
