<?xml version="1.0" encoding="UTF-8"?>
<svg id="_レイヤー_1" data-name="レイヤー 1" xmlns="http://www.w3.org/2000/svg" viewBox="0 0 20.91 164">
  <rect x="18.91" y="0" width="2" height="164"/>
  <polygon points="1.82 41.42 0 40.58 18.58 0 18.91 0 20.91 0 20.78 0 1.82 41.42"/>
  <g>
    <path d="M1.98,152.41v-7.7h1.49v3.1H13.55v1.55H3.47v3.04H1.98Z"/>
    <path d="M7.77,141.37c-.8,0-1.56-.15-2.27-.46-.71-.3-1.35-.73-1.9-1.27-.55-.54-.98-1.17-1.29-1.88-.31-.71-.46-1.47-.46-2.3s.16-1.56,.46-2.27c.31-.71,.74-1.35,1.29-1.9s1.18-.98,1.9-1.29,1.48-.46,2.29-.46,1.57,.15,2.29,.46,1.34,.74,1.88,1.28c.54,.54,.96,1.17,1.26,1.89s.46,1.48,.46,2.29-.15,1.59-.45,2.3c-.3,.71-.72,1.34-1.26,1.88-.54,.54-1.16,.97-1.87,1.27-.71,.3-1.49,.46-2.33,.46Zm0-1.6c.62,0,1.19-.11,1.72-.33,.53-.22,.99-.53,1.4-.93,.41-.4,.72-.86,.95-1.38s.34-1.08,.34-1.69-.11-1.17-.34-1.69-.54-.97-.94-1.36c-.4-.39-.87-.7-1.4-.92s-1.1-.34-1.71-.34-1.19,.11-1.73,.34c-.53,.22-1,.53-1.42,.92-.41,.39-.73,.85-.96,1.38-.23,.53-.34,1.09-.34,1.69s.12,1.18,.35,1.7c.24,.53,.56,.99,.96,1.38,.41,.39,.88,.69,1.42,.9,.54,.21,1.11,.32,1.7,.32Z"/>
    <path d="M1.98,122.25c0-.84,.14-1.56,.42-2.16,.28-.6,.69-1.06,1.22-1.38s1.18-.49,1.94-.49c.46,0,.91,.07,1.35,.21s.84,.36,1.2,.66,.65,.7,.86,1.19c.22,.49,.33,1.09,.33,1.79v1.71h4.24v1.55H1.98v-3.09Zm5.81-.16c0-.46-.07-.84-.22-1.14-.14-.3-.33-.53-.57-.7s-.47-.29-.72-.37c-.25-.07-.47-.11-.69-.11-.23,0-.48,.04-.73,.11-.25,.08-.48,.2-.69,.38s-.38,.41-.51,.69c-.13,.28-.2,.63-.2,1.05v1.79H7.79v-1.7Z"/>
  </g>
</svg>