<!--?xml version="1.0" encoding="utf-8"?-->
<!-- Generator: Adobe Illustrator 15.1.0, SVG Export Plug-In . SVG Version: 6.00 Build 0)  -->

<svg version="1.1" id="_x32_" xmlns="http://www.w3.org/2000/svg" xmlns:xlink="http://www.w3.org/1999/xlink" x="0px" y="0px" width="512px" height="512px" viewBox="0 0 512 512" style="width: 256px; height: 256px; opacity: 1;" xml:space="preserve">
<style type="text/css">

	.st0{fill:#4B4B4B;}

</style>
<g>
	<path class="st0" d="M492.797,231.875h-22.094c-10.578,0-23.328-7.594-28.391-16.875l-36.406-67.078
		c-5.031-9.281-17.813-16.891-28.375-16.891H206.625c-10.563,0-24.5,6.844-30.953,15.219l-54.328,70.438
		c-6.469,8.359-20.391,15.188-30.938,15.188H60.531c-33.313,0-53.813,15.906-58.609,47.938L0,313.531
		c0,10.563,8.656,19.219,19.219,19.219H66.5c2.344,26.969,25.031,48.219,52.625,48.219c27.563,0,50.266-21.25,52.609-48.219h186.188
		c2.297,23.844,22.391,42.469,46.828,42.469s44.516-18.625,46.844-42.469h41.203c10.547,0,19.203-8.656,19.203-19.219v-62.438
		C512,240.531,503.344,231.875,492.797,231.875z M119.125,351.672c-13,0-23.547-10.547-23.547-23.547
		c0-12.969,10.547-23.531,23.547-23.531c12.984,0,23.531,10.563,23.531,23.531C142.656,341.125,132.109,351.672,119.125,351.672z
		 M291.078,231.031H152.125l7.219-9.391l44.375-57.516c3.031-3.906,11.453-8.063,16.406-8.063h70.953V231.031z M314.125,231.031
		v-74.969h53.844c4.031,0,10.578,3.906,12.516,7.438l34.594,67.531H314.125z M404.75,351.672c-13,0-23.531-10.547-23.531-23.547
		c0-12.969,10.531-23.531,23.531-23.531s23.531,10.563,23.531,23.531C428.281,341.125,417.75,351.672,404.75,351.672z" style="fill: rgb(0, 0, 0);"></path>
</g>
</svg>
