<?xml version="1.0" encoding="utf-8"?>
<!-- Generator: Adobe Illustrator 27.0.0, SVG Export Plug-In . SVG Version: 6.00 Build 0)  -->
<svg version="1.1" id="_x32_" xmlns="http://www.w3.org/2000/svg" xmlns:xlink="http://www.w3.org/1999/xlink" x="0px" y="0px"
	 viewBox="0 0 512 382.8" style="enable-background:new 0 0 512 382.8;" xml:space="preserve">
<g>
	<polygon points="511,230.9 445.3,162.6 511,105.5 	"/>
	<polygon points="67.1,162.6 1.3,230.9 1.3,105.5 	"/>
	<path d="M511,292.5v62.7c0,15.3-12.2,27.5-27.5,27.5H28.9c-15.3,0-27.5-12.2-27.5-27.5v-62.7l98.4-102.4l112.6,96.8
		c11.7,10.2,27.5,15.8,43.8,15.8c16.3,0,32.1-5.6,43.8-15.8l112.6-96.8L511,292.5z"/>
	<path d="M511,27.5V55L270.9,262c-7.6,6.6-21.4,6.6-29.1,0L1.3,55V27.5C1.3,12.2,13.6,0,28.9,0h454.6C498.8,0,511,12.2,511,27.5z"/>
</g>
</svg>
