<?xml version="1.0" encoding="utf-8"?>
<!-- Generator: Adobe Illustrator 27.0.0, SVG Export Plug-In . SVG Version: 6.00 Build 0)  -->
<svg version="1.1" id="_x32_" xmlns="http://www.w3.org/2000/svg" xmlns:xlink="http://www.w3.org/1999/xlink" x="0px" y="0px"
	 viewBox="0 0 512 423.6" style="enable-background:new 0 0 512 423.6;" xml:space="preserve">
<g>
	<path d="M337.1,162.5v-80L294,90.1V123h-77.5V90.1l-43.1-7.7v80h-50.8l-58,127.2v25.1v18v53.9v7.2v10.3c0,10.8,8.2,19.5,18,19.5
		h345.8c9.7,0,18-8.7,18-19.5v-10.3v-7.2v-53.9v-18v-25.1l-59-127.2H337.1z M255.5,367.1c-40,0-72.3-32.3-72.3-72.3
		c0-40,32.3-72.3,72.3-72.3c40,0,72.3,32.3,72.3,72.3C327.8,334.3,295.5,367.1,255.5,367.1z"/>
	<path d="M434,26.5C395.5,10.1,310.4,0.4,255.5,0.4C202.1,0.4,116,10.1,77,26.5C38,42.9-1,80.4-1,124c0,24.1,11.8,38,14.9,41.6
		c0,0,16.4,0,20.5,0h24.1c13.3,0,29.2,0,38,0c5.1,0,15.9-21.5,15.9-30.3c0-15.4-8.2-36.9-8.2-36.9c0.5-10.8,4.6-18.5,22.1-25.7
		c31.3-13.3,100-13.9,129.3-13.9c28.7,0,98,0.5,129.3,13.9c17.4,7.2,21.5,15.4,22.1,25.7c0,0-8.2,21.5-8.2,36.9
		c0,8.7,10.8,30.3,15.9,30.3c8.7,0,24.6,0,38,0h24.1c4.1,0,20.5,0,20.5,0c3.1-3.1,14.9-17.4,14.9-41.6C512,79.9,473,42.9,434,26.5z"
		/>
</g>
</svg>
